<svg width="204" height="242" viewBox="0 0 204 242" fill="none" xmlns="http://www.w3.org/2000/svg">
<path d="M189.289 26.1595C153.832 3.42761 118.227 -4.2972 109.763 8.90538C101.298 22.108 123.18 51.2385 158.637 73.9703C178.508 86.7098 197.521 92.5067 201.104 86.9179C204.687 81.329 191.483 66.4709 171.612 53.7313C136.155 30.9995 100.55 23.2747 92.0861 36.4773C83.6217 49.6799 105.503 78.8107 140.96 101.543C160.831 114.282 179.844 120.079 183.427 114.49C187.01 108.901 173.806 94.0427 153.935 81.3032C118.479 58.5714 82.8316 50.9123 74.3154 64.1958C65.7992 77.4793 87.6382 106.676 123.095 129.408C142.966 142.147 161.979 147.944 165.563 142.355C169.146 136.766 155.941 121.908 136.07 109.169C100.614 86.4369 65.009 78.7117 56.5446 91.9144C48.0802 105.117 69.9619 134.247 105.419 156.979C125.29 169.718 144.303 175.516 147.886 169.927C151.469 164.338 138.265 149.48 118.394 136.74C82.9373 114.008 47.3322 106.284 38.8678 119.487C30.4034 132.689 52.285 161.819 87.7419 184.551C107.613 197.291 126.626 203.087 130.209 197.499C133.792 191.91 120.588 177.052 100.717 164.312C65.2604 141.58 29.6553 133.856 21.1914 147.058C12.727 160.26 34.6082 189.391 70.065 212.123C89.936 224.863 108.949 230.659 112.533 225.07C116.115 219.482 102.911 204.624 83.0404 191.884C47.5836 169.152 11.9369 161.493 3.42066 174.776C-5.09556 188.06 16.7435 217.256 52.2004 239.988" stroke="white" stroke-opacity="0.1" stroke-width="3" stroke-linecap="round"/>
</svg>
