<svg width="17" height="20" viewBox="0 0 17 20" fill="none" xmlns="http://www.w3.org/2000/svg">
<path d="M11.5744 0.114202C10.8875 0.301642 10.2535 0.599486 9.66372 0.999882C8.95714 1.47977 8.50915 2.13581 8.28982 2.95377C8.17451 3.38312 8.12102 3.82081 8.13623 4.26733C8.14065 4.39785 8.17107 4.45428 8.3168 4.42533C9.3384 4.22366 10.2638 3.83749 11.0102 3.07988C11.4724 2.61128 11.705 2.04209 11.8075 1.40764C11.8713 1.01313 11.8738 0.61666 11.8232 0.219698C11.8134 0.143152 11.8055 0.0651338 11.8644 0.000854492C11.8257 0.000854492 11.7874 0.000854492 11.7486 0.000854492C11.7354 0.10586 11.6407 0.0960467 11.5744 0.114202Z" fill="#563AEF"/>
<path d="M8.78068 1.78019C8.2213 2.5643 8.05791 3.46029 8.08146 4.40387C8.08391 4.51034 8.12562 4.51083 8.20953 4.4966C8.80669 4.39552 9.37392 4.21005 9.91661 3.93821C11.2096 3.29051 11.9053 2.27136 11.9102 0.804227C11.9112 0.534352 11.873 0.268403 11.8646 0C11.8057 0.0642793 11.8136 0.142298 11.8234 0.218844C11.8739 0.615805 11.8715 1.01228 11.8077 1.40678C11.7056 2.04123 11.4726 2.61043 11.0103 3.07903C10.2635 3.83615 9.33859 4.22231 8.31699 4.42447C8.17126 4.45342 8.14083 4.397 8.13642 4.26648C8.12121 3.82045 8.17469 3.38276 8.29 2.95292C8.50933 2.13495 8.95733 1.47891 9.66391 0.999027C10.2537 0.598631 10.8877 0.300788 11.5746 0.113347C11.6409 0.0951922 11.7351 0.105006 11.7488 0C11.3288 0.144751 10.8985 0.258589 10.4971 0.455843C9.83516 0.782637 9.2169 1.1688 8.78068 1.78019Z" fill="#563AEF"/>
<path d="M15.7677 14.3299C15.7392 14.3152 15.7122 14.298 15.6843 14.2823C14.594 13.6631 13.9218 12.7185 13.5709 11.5345C13.2672 10.5085 13.3246 9.50653 13.8364 8.55068C14.2034 7.8652 14.7147 7.30337 15.3428 6.85096C15.4964 6.74056 15.4797 6.67775 15.3727 6.55263C14.9939 6.11052 14.568 5.72436 14.069 5.42308C13.0022 4.77881 11.8565 4.61493 10.6465 4.8794C10.0675 5.006 9.54242 5.2852 8.99335 5.49521C8.36479 5.73564 7.7588 5.73515 7.14741 5.4589C6.90256 5.34849 6.65084 5.25281 6.40206 5.15124C5.46241 4.76655 4.50411 4.73563 3.53943 5.03004C2.63706 5.3058 1.93882 5.88186 1.35001 6.59826C0.340184 7.82594 -0.0557959 9.25383 0.00652065 10.7926C0.0173156 11.5782 0.1287 12.3201 0.295532 13.0532C0.65422 14.6297 1.25923 16.1037 2.17484 17.4408C2.65522 18.143 3.19791 18.7932 3.91774 19.2691C4.48399 19.643 5.08654 19.8393 5.77399 19.6617C6.27841 19.5316 6.75633 19.3309 7.23965 19.1455C8.10031 18.8157 8.94821 18.7941 9.8015 19.17C10.1759 19.3349 10.5606 19.4777 10.9526 19.5974C11.4998 19.7642 12.041 19.8108 12.5434 19.4757C13.1744 19.0547 13.7863 18.6047 14.252 17.9948C14.9846 17.0346 15.4895 15.9487 15.9507 14.8407C16.0925 14.4987 16.0881 14.4968 15.7677 14.3299Z" fill="#563AEF"/>
</svg>
