<svg width="16" height="16" viewBox="0 0 16 16" fill="none" xmlns="http://www.w3.org/2000/svg">
<g clip-path="url(#clip0_12_3230)">
<path d="M7.99988 6.54541V9.6436H12.3053C12.1163 10.64 11.5489 11.4836 10.698 12.0509L13.2944 14.0655C14.8071 12.6691 15.6798 10.6182 15.6798 8.18185C15.6798 7.61459 15.6289 7.06908 15.5344 6.5455L7.99988 6.54541Z" fill="#563AEF"/>
<path d="M3.51646 9.52271L2.93089 9.97096L0.858124 11.5855C2.17448 14.1964 4.87247 16 7.99971 16C10.1597 16 11.9705 15.2873 13.2942 14.0655L10.6979 12.0509C9.98513 12.5309 9.07603 12.8219 7.99971 12.8219C5.91973 12.8219 4.1525 11.4183 3.51973 9.52732L3.51646 9.52271Z" fill="#34A853"/>
<path d="M0.858119 4.41455C0.312695 5.49087 0 6.70543 0 7.99996C0 9.29448 0.312695 10.509 0.858119 11.5854C0.858119 11.5926 3.51998 9.51991 3.51998 9.51991C3.35998 9.03991 3.26541 8.53085 3.26541 7.99987C3.26541 7.46889 3.35998 6.95984 3.51998 6.47984L0.858119 4.41455Z" fill="#FBBC05"/>
<path d="M7.99988 3.18545C9.17808 3.18545 10.2253 3.59271 11.0617 4.37818L13.3526 2.0873C11.9635 0.792777 10.1599 0 7.99988 0C4.87263 0 2.17448 1.79636 0.858124 4.41455L3.51991 6.48001C4.1526 4.58908 5.91989 3.18545 7.99988 3.18545Z" fill="#EA4335"/>
</g>
<defs>
<clipPath id="clip0_12_3230">
<rect width="16" height="16" fill="white"/>
</clipPath>
</defs>
</svg>
