<svg width="133" height="91" viewBox="0 0 133 91" fill="none" xmlns="http://www.w3.org/2000/svg">
<path d="M53.418 9.3399e-06L1.09016 1.9061e-07C0.479377 8.38169e-08 -8.53217e-08 0.487983 -1.94031e-07 1.10973L-9.50752e-06 54.3767C-9.61623e-06 54.9984 0.479367 55.4864 1.09015 55.4864L29.7384 55.4864C25.8571 78.5231 9.41712 88.8226 9.24456 88.9564C8.85278 89.1794 8.63378 89.7119 8.76519 90.1999C8.89659 90.6433 9.33219 91 9.81157 91C41.5577 91 50.7581 68.184 53.4181 54.6022C54.5083 49.3211 54.5083 45.6349 54.5083 45.5011L54.5083 1.10949C54.5083 0.487743 54.0288 9.44669e-06 53.418 9.3399e-06Z" fill="#FC5D19" fill-opacity="0.06"/>
<path d="M131.91 2.30638e-05L79.5819 1.39145e-05C78.9711 1.38078e-05 78.4918 0.487997 78.4918 1.10974L78.4917 54.3767C78.4917 54.9984 78.9711 55.4864 79.5819 55.4864L108.23 55.4864C104.349 78.5231 87.9089 88.8226 87.7363 88.9564C87.3445 89.1794 87.1255 89.712 87.2569 90.1999C87.3883 90.6433 87.8239 91 88.3033 91C120.049 91 129.25 68.184 131.91 54.6022C133 49.3211 133 45.6349 133 45.5011L133 1.1095C133 0.487756 132.521 2.31706e-05 131.91 2.30638e-05Z" fill="#FC5D19" fill-opacity="0.06"/>
</svg>
