<svg width="45" height="30" viewBox="0 0 45 30" fill="none" xmlns="http://www.w3.org/2000/svg">
<path d="M26.9501 30H44.3867C44.5903 30 44.75 29.8391 44.75 29.6342V12.0736C44.75 11.8687 44.5903 11.7078 44.3867 11.7078H34.8406C36.1339 4.11327 41.612 0.71781 41.6695 0.6737C41.8001 0.600204 41.873 0.424627 41.8293 0.263762C41.7855 0.117586 41.6403 0 41.4806 0C30.9021 0 27.8364 7.52176 26.95 11.9993C26.5868 13.7403 26.5868 14.9555 26.5868 14.9996V29.6342C26.5868 29.8392 26.7466 30 26.9501 30Z" fill="#563AEF"/>
<path d="M0.795109 30H18.2318C18.4353 30 18.595 29.8391 18.595 29.6342V12.0736C18.595 11.8687 18.4353 11.7078 18.2318 11.7078H8.68561C9.97893 4.11327 15.4571 0.71781 15.5146 0.6737C15.6451 0.600204 15.7181 0.424627 15.6743 0.263762C15.6305 0.117586 15.4854 0 15.3256 0C4.74717 0 1.68143 7.52176 0.795071 11.9993C0.431805 13.7403 0.431808 14.9555 0.431808 14.9996V29.6342C0.431808 29.8392 0.591583 30 0.795109 30Z" fill="#563AEF"/>
</svg>
