<svg width="30" height="30" viewBox="0 0 30 30" fill="none" xmlns="http://www.w3.org/2000/svg">
<path fill-rule="evenodd" clip-rule="evenodd" d="M14.9995 2.8125C10.3908 2.8125 7.23828 6.24125 7.23828 10.445C7.23828 10.9125 7.27703 11.4062 7.35078 11.9113C6.94578 12.3288 6.67578 12.8888 6.67578 13.535C6.67578 14.715 7.53828 15.565 8.55203 15.8813C9.14703 17.165 9.94203 18.3938 10.9208 19.3438C12.0158 20.4062 13.3945 21.1675 14.9995 21.1675C16.6045 21.1675 17.9833 20.405 19.0783 19.3425C20.057 18.3925 20.852 17.165 21.447 15.88C22.462 15.565 23.3233 14.715 23.3233 13.535C23.3233 12.8888 23.0533 12.3287 22.6483 11.91C22.722 11.4062 22.7608 10.9125 22.7608 10.445C22.7608 6.24125 19.6083 2.8125 14.9983 2.8125H14.9995Z" fill="#FFDBA6"/>
<path fill-rule="evenodd" clip-rule="evenodd" d="M9.14961 21.5625C7.67419 21.5625 6.2345 22.0165 5.02602 22.8629C3.81753 23.7093 2.89882 24.9072 2.39461 26.2937L2.22836 26.7525C2.1082 27.083 2.06948 27.4375 2.11548 27.7862C2.16148 28.1348 2.29084 28.4672 2.49261 28.7552C2.69438 29.0432 2.9626 29.2783 3.27455 29.4406C3.58649 29.6029 3.93297 29.6876 4.28461 29.6875H25.7146C26.0662 29.6876 26.4127 29.6029 26.7247 29.4406C27.0366 29.2783 27.3048 29.0432 27.5066 28.7552C27.7084 28.4672 27.8377 28.1348 27.8837 27.7862C27.9297 27.4375 27.891 27.083 27.7709 26.7525L27.6034 26.2937C27.0992 24.9074 26.1807 23.7097 24.9725 22.8633C23.7642 22.0168 22.3248 21.5627 20.8496 21.5625H9.14961Z" fill="#F966F2"/>
<path fill-rule="evenodd" clip-rule="evenodd" d="M20.9375 21.5625H9.0625V22.5C9.0625 23.4117 9.42466 24.286 10.0693 24.9307C10.714 25.5753 11.5883 25.9375 12.5 25.9375H17.5C18.4117 25.9375 19.286 25.5753 19.9307 24.9307C20.5753 24.286 20.9375 23.4117 20.9375 22.5V21.5625Z" fill="#FFDBA6"/>
<path fill-rule="evenodd" clip-rule="evenodd" d="M22.8807 12.1875C22.8098 12.09 22.7321 11.9977 22.6482 11.9113C22.7219 11.4062 22.7607 10.9125 22.7607 10.445C22.7607 6.24125 19.6082 2.8125 14.9994 2.8125C10.3907 2.8125 7.23816 6.24125 7.23816 10.445C7.23816 10.9125 7.27691 11.4062 7.35066 11.9113C7.26691 11.9975 7.18941 12.09 7.11816 12.1875H8.74941C8.96245 12.1878 9.16921 12.1155 9.33566 11.9825L11.7744 10.03C12.0512 9.80855 12.395 9.68778 12.7494 9.6875H17.2457C17.6007 9.6875 17.9457 9.80875 18.2219 10.03L20.6632 11.9825C20.8296 12.1155 21.0364 12.1878 21.2494 12.1875H22.8807Z" fill="#486472"/>
<path fill-rule="evenodd" clip-rule="evenodd" d="M15 2.1875C12.5965 2.1875 10.2914 3.1423 8.59185 4.84185C6.8923 6.54139 5.9375 8.84648 5.9375 11.25V13.75C5.9375 13.9986 5.83873 14.2371 5.66291 14.4129C5.4871 14.5887 5.24864 14.6875 5 14.6875C4.75136 14.6875 4.5129 14.5887 4.33709 14.4129C4.16127 14.2371 4.0625 13.9986 4.0625 13.75V11.25C4.0625 8.3492 5.21484 5.5672 7.26602 3.51602C9.3172 1.46484 12.0992 0.3125 15 0.3125C17.9008 0.3125 20.6828 1.46484 22.734 3.51602C24.7852 5.5672 25.9375 8.3492 25.9375 11.25V13.75C25.9375 13.9986 25.8387 14.2371 25.6629 14.4129C25.4871 14.5887 25.2486 14.6875 25 14.6875C24.7514 14.6875 24.5129 14.5887 24.3371 14.4129C24.1613 14.2371 24.0625 13.9986 24.0625 13.75V11.25C24.0625 8.84648 23.1077 6.54139 21.4082 4.84185C19.7086 3.1423 17.4035 2.1875 15 2.1875Z" fill="#607D8B"/>
<path fill-rule="evenodd" clip-rule="evenodd" d="M6.875 10.9375C6.12908 10.9375 5.41371 11.2338 4.88626 11.7613C4.35882 12.2887 4.0625 13.0041 4.0625 13.75C4.0625 14.4959 4.35882 15.2113 4.88626 15.7387C5.41371 16.2662 6.12908 16.5625 6.875 16.5625H7.5C7.74864 16.5625 7.9871 16.4637 8.16291 16.2879C8.33873 16.1121 8.4375 15.8736 8.4375 15.625V11.875C8.4375 11.6264 8.33873 11.3879 8.16291 11.2121C7.9871 11.0363 7.74864 10.9375 7.5 10.9375H6.875ZM23.0125 10.9375C23.7584 10.9375 24.4738 11.2338 25.0012 11.7613C25.5287 12.2887 25.825 13.0041 25.825 13.75C25.825 14.4959 25.5287 15.2113 25.0012 15.7387C24.4738 16.2662 23.7584 16.5625 23.0125 16.5625H22.3875C22.1389 16.5625 21.9004 16.4637 21.7246 16.2879C21.5488 16.1121 21.45 15.8736 21.45 15.625V11.875C21.45 11.6264 21.5488 11.3879 21.7246 11.2121C21.9004 11.0363 22.1389 10.9375 22.3875 10.9375H23.0125Z" fill="#607D8B"/>
<path fill-rule="evenodd" clip-rule="evenodd" d="M22.5 14.6875C22.7486 14.6875 22.9871 14.7863 23.1629 14.9621C23.3387 15.1379 23.4375 15.3764 23.4375 15.625V16.25C23.4375 16.5373 23.3809 16.8217 23.271 17.0871C23.1611 17.3525 22.9999 17.5937 22.7968 17.7968C22.5937 17.9999 22.3525 18.1611 22.0871 18.271C21.8217 18.3809 21.5373 18.4375 21.25 18.4375H15.625C15.3764 18.4375 15.1379 18.3387 14.9621 18.1629C14.7863 17.9871 14.6875 17.7486 14.6875 17.5C14.6875 17.2514 14.7863 17.0129 14.9621 16.8371C15.1379 16.6613 15.3764 16.5625 15.625 16.5625H21.25C21.3329 16.5625 21.4124 16.5296 21.471 16.471C21.5296 16.4124 21.5625 16.3329 21.5625 16.25V15.625C21.5625 15.3764 21.6613 15.1379 21.8371 14.9621C22.0129 14.7863 22.2514 14.6875 22.5 14.6875Z" fill="#607D8B"/>
</svg>
