<svg width="26" height="26" viewBox="0 0 26 26" fill="none" xmlns="http://www.w3.org/2000/svg">
<g clip-path="url(#clip0_215_4919)">
<path d="M5.14583 26C4.93035 26 4.72368 25.9144 4.57131 25.762C4.41894 25.6097 4.33333 25.403 4.33333 25.1875V20.5833H2.97917C2.18922 20.5828 1.43179 20.2687 0.873212 19.7101C0.314634 19.1515 0.000573882 18.3941 0 17.6042L0 2.97917C0.000573882 2.18922 0.314634 1.43179 0.873212 0.873212C1.43179 0.314634 2.18922 0.000573882 2.97917 0L23.0208 0C23.8108 0.000573882 24.5682 0.314634 25.1268 0.873212C25.6854 1.43179 25.9994 2.18922 26 2.97917V17.6042C25.9994 18.3941 25.6854 19.1515 25.1268 19.7101C24.5682 20.2687 23.8108 20.5828 23.0208 20.5833H10.8994L5.72108 25.7617C5.64558 25.8373 5.55591 25.8972 5.4572 25.9381C5.35849 25.979 5.25268 26 5.14583 26Z" fill="#FF8112"/>
<path d="M6.67471 13.8884C6.50631 13.8884 6.34207 13.8361 6.20471 13.7386C6.06735 13.6412 5.96367 13.5035 5.90799 13.3445C5.85232 13.1856 5.8474 13.0133 5.89393 12.8514C5.94046 12.6896 6.03613 12.5462 6.16771 12.4411L9.07105 10.1228C9.23969 9.99133 9.45335 9.93168 9.66569 9.95674C9.87802 9.98179 10.0719 10.0895 10.2054 10.2566C10.3388 10.4237 10.401 10.6366 10.3785 10.8492C10.3559 11.0618 10.2505 11.257 10.085 11.3924L7.18171 13.7108C7.03766 13.8256 6.85894 13.8882 6.67471 13.8884ZM17.9717 13.4118C17.8372 13.4117 17.7048 13.3783 17.5864 13.3145C17.468 13.2507 17.3673 13.1585 17.2933 13.0462C17.2193 12.9339 17.1744 12.8049 17.1625 12.671C17.1506 12.537 17.1722 12.4022 17.2253 12.2786L19.197 7.67443C19.239 7.57633 19.3 7.48748 19.3763 7.41295C19.4527 7.33841 19.543 7.27964 19.6421 7.24001C19.7412 7.20037 19.8471 7.18064 19.9538 7.18195C20.0605 7.18325 20.166 7.20555 20.264 7.24759C20.3621 7.28963 20.451 7.35058 20.5255 7.42696C20.6001 7.50334 20.6588 7.59365 20.6985 7.69273C20.7381 7.79182 20.7578 7.89775 20.7565 8.00446C20.7552 8.11117 20.7329 8.21658 20.6909 8.31468L18.7192 12.9188C18.6564 13.065 18.5521 13.1896 18.4193 13.2772C18.2864 13.3648 18.1308 13.4116 17.9717 13.4118ZM15.9795 13.9968C15.8187 13.9967 15.6616 13.9492 15.5277 13.8603L11.736 11.3253C11.5652 11.2019 11.4489 11.0172 11.4115 10.8098C11.3742 10.6025 11.4187 10.3887 11.5358 10.2135C11.6529 10.0384 11.8333 9.91544 12.0392 9.87062C12.245 9.82581 12.4603 9.8626 12.6395 9.97326L16.4312 12.5083C16.5756 12.6055 16.6851 12.7464 16.7434 12.9105C16.8018 13.0745 16.806 13.2529 16.7554 13.4195C16.7049 13.586 16.6022 13.732 16.4625 13.8359C16.3229 13.9398 16.1535 13.9962 15.9795 13.9968Z" fill="#FAFAFA"/>
<path d="M5.41667 16.2499C4.22175 16.2499 3.25 15.2782 3.25 14.0833C3.25 12.8883 4.22175 11.9166 5.41667 11.9166C6.61158 11.9166 7.58333 12.8883 7.58333 14.0833C7.58333 15.2782 6.61158 16.2499 5.41667 16.2499ZM10.8333 11.9166C9.63842 11.9166 8.66667 10.9448 8.66667 9.74992C8.66667 8.555 9.63842 7.58325 10.8333 7.58325C12.0283 7.58325 13 8.555 13 9.74992C13 10.9448 12.0283 11.9166 10.8333 11.9166ZM17.3333 16.2499C16.1384 16.2499 15.1667 15.2782 15.1667 14.0833C15.1667 12.8883 16.1384 11.9166 17.3333 11.9166C18.5283 11.9166 19.5 12.8883 19.5 14.0833C19.5 15.2782 18.5283 16.2499 17.3333 16.2499ZM20.5833 8.66659C19.3884 8.66659 18.4167 7.69484 18.4167 6.49992C18.4167 5.305 19.3884 4.33325 20.5833 4.33325C21.7783 4.33325 22.75 5.305 22.75 6.49992C22.75 7.69484 21.7783 8.66659 20.5833 8.66659Z" fill="#FFC107"/>
</g>
<defs>
<clipPath id="clip0_215_4919">
<rect width="26" height="26" fill="white"/>
</clipPath>
</defs>
</svg>
