<svg width="139" height="73" viewBox="0 0 139 73" fill="none" xmlns="http://www.w3.org/2000/svg">
<path d="M136.625 71.1542L127.464 52.1052C126.36 49.8091 123.706 48.7105 121.302 49.5543L106.159 54.8699C103.579 55.7757 100.75 54.4404 99.8085 51.8727L94.1813 36.5186C93.2971 34.1059 90.728 32.7562 88.2395 33.3972L73.0138 37.3188C70.4999 37.9663 67.9087 36.5823 67.0489 34.1329L62.6865 21.7054C61.7893 19.1495 59.0199 17.7729 56.4407 18.6007L40.7249 23.6448C38.171 24.4645 35.4253 23.123 34.5023 20.6045L28.7726 4.97079C27.9128 2.62463 25.4529 1.27346 23.0116 1.80637L1.86554 6.42247" stroke="#FC5D19" stroke-opacity="0.32" stroke-width="3" stroke-linecap="round"/>
</svg>
