<svg width="91" height="86" viewBox="0 0 91 86" fill="none" xmlns="http://www.w3.org/2000/svg">
<path fill-rule="evenodd" clip-rule="evenodd" d="M82.7879 37.836L80.5541 35.3251L79.5486 55.7471L82.0142 53.5538L82.7879 37.836ZM87.9664 48.2586L88.1811 43.8985L90.2515 46.2258L87.9664 48.2586ZM73.5964 61.0423L75.1609 29.2625L72.9271 26.7516L71.1308 63.2357L73.5964 61.0423ZM65.1785 68.5308L67.5339 20.6891L65.3001 18.1781L62.713 70.7242L65.1785 68.5308ZM56.7607 76.0194L59.9069 12.1156L57.6731 9.60454L54.2951 78.2128L56.7607 76.0194ZM48.3429 83.5079L52.28 3.54219L50.0461 1.03107L45.8773 85.7013L48.3429 83.5079ZM40.2044 85.3175L44.3734 0.647633L41.9079 2.84101L37.9707 82.8066L40.2044 85.3175ZM32.5774 76.744L35.9556 8.13618L33.4901 10.3295L30.3437 74.2331L32.5774 76.744ZM24.9504 68.1706L27.5378 15.6247L25.0722 17.8181L22.7167 65.6596L24.9504 68.1706ZM17.3234 59.5971L19.12 23.1132L16.6544 25.3066L15.0897 57.0861L17.3234 59.5971ZM9.6965 51.0237L10.7021 30.6018L8.23654 32.7952L7.46259 48.5126L9.6965 51.0237ZM2.0695 42.4502L2.28428 38.0903L-0.000739496 40.1231L2.0695 42.4502Z" fill="#FC5D19" fill-opacity="0.2"/>
</svg>
