<svg width="101" height="105" viewBox="0 0 101 105" fill="none" xmlns="http://www.w3.org/2000/svg">
<path d="M36.3117 1.98105C36.3117 3.13666 35.4863 3.9621 34.3307 3.9621C33.175 3.9621 32.3496 3.13666 32.3496 1.98105C32.3496 0.825438 33.175 0 34.3307 0C35.4863 0 36.3117 0.825438 36.3117 1.98105Z" fill="#0A5373" fill-opacity="0.7"/>
<path d="M50.5621 3.9621C51.6562 3.9621 52.5432 3.07516 52.5432 1.98105C52.5432 0.886947 51.6562 0 50.5621 0C49.468 0 48.5811 0.886947 48.5811 1.98105C48.5811 3.07516 49.468 3.9621 50.5621 3.9621Z" fill="#0A5373" fill-opacity="0.7"/>
<path d="M66.6725 3.9621C67.7666 3.9621 68.6535 3.07516 68.6535 1.98105C68.6535 0.886947 67.7666 0 66.6725 0C65.5783 0 64.6914 0.886947 64.6914 1.98105C64.6914 3.07516 65.5783 3.9621 66.6725 3.9621Z" fill="#0A5373" fill-opacity="0.7"/>
<path d="M20.1975 16.3287C20.1975 17.4843 19.372 18.3098 18.2164 18.3098C17.0608 18.3098 16.2354 17.4843 16.2354 16.3287C16.2354 15.1731 17.0608 14.3477 18.2164 14.3477C19.2069 14.3477 20.1975 15.3382 20.1975 16.3287Z" fill="#0A5373" fill-opacity="0.7"/>
<path d="M36.3117 16.3287C36.3117 17.4843 35.4863 18.3098 34.3307 18.3098C33.175 18.3098 32.3496 17.4843 32.3496 16.3287C32.3496 15.1731 33.175 14.3477 34.3307 14.3477C35.4863 14.3477 36.3117 15.3382 36.3117 16.3287Z" fill="#0A5373" fill-opacity="0.7"/>
<path d="M52.5432 16.3287C52.5432 17.4843 51.7177 18.3098 50.5621 18.3098C49.4065 18.3098 48.5811 17.4843 48.5811 16.3287C48.5811 15.1731 49.4065 14.3477 50.5621 14.3477C51.5526 14.3477 52.5432 15.3382 52.5432 16.3287Z" fill="#0A5373" fill-opacity="0.7"/>
<path d="M68.6535 16.3287C68.6535 17.4843 67.8281 18.3098 66.6725 18.3098C65.5168 18.3098 64.6914 17.4843 64.6914 16.3287C64.6914 15.1731 65.5168 14.3477 66.6725 14.3477C67.8281 14.3477 68.6535 15.3382 68.6535 16.3287Z" fill="#0A5373" fill-opacity="0.7"/>
<path d="M84.8869 16.3287C84.8869 17.4843 84.0615 18.3098 82.9059 18.3098C81.7502 18.3098 80.9248 17.4843 80.9248 16.3287C80.9248 15.1731 81.7502 14.3477 82.9059 14.3477C83.8964 14.3477 84.8869 15.3382 84.8869 16.3287Z" fill="#0A5373" fill-opacity="0.7"/>
<path d="M20.1975 30.6854C20.1975 31.8357 19.372 32.6574 18.2164 32.6574C17.0608 32.6574 16.2354 31.8357 16.2354 30.6854C16.2354 29.535 17.0608 28.7133 18.2164 28.7133C19.2069 28.549 20.1975 29.535 20.1975 30.6854Z" fill="#0A5373" fill-opacity="0.7"/>
<path d="M36.3117 30.6854C36.3117 31.8357 35.4863 32.6574 34.3307 32.6574C33.175 32.6574 32.3496 31.8357 32.3496 30.6854C32.3496 29.535 33.175 28.7133 34.3307 28.7133C35.4863 28.549 36.3117 29.535 36.3117 30.6854Z" fill="#0A5373" fill-opacity="0.7"/>
<path d="M50.5621 32.6711C51.6562 32.6711 52.5432 31.7841 52.5432 30.69C52.5432 29.5959 51.6562 28.709 50.5621 28.709C49.468 28.709 48.5811 29.5959 48.5811 30.69C48.5811 31.7841 49.468 32.6711 50.5621 32.6711Z" fill="#0A5373" fill-opacity="0.7"/>
<path d="M66.6725 32.6711C67.7666 32.6711 68.6535 31.7841 68.6535 30.69C68.6535 29.5959 67.7666 28.709 66.6725 28.709C65.5783 28.709 64.6914 29.5959 64.6914 30.69C64.6914 31.7841 65.5783 32.6711 66.6725 32.6711Z" fill="#0A5373" fill-opacity="0.7"/>
<path d="M84.8869 30.6854C84.8869 31.8357 84.0615 32.6574 82.9059 32.6574C81.7502 32.6574 80.9248 31.8357 80.9248 30.6854C80.9248 29.535 81.7502 28.7133 82.9059 28.7133C83.8964 28.549 84.8869 29.535 84.8869 30.6854Z" fill="#0A5373" fill-opacity="0.7"/>
<path d="M3.96211 45.0396C3.96211 46.1953 3.13667 47.0207 1.98105 47.0207C0.825439 47.0207 0 46.1953 0 45.0396C0 43.884 0.825439 43.0586 1.98105 43.0586C3.13667 43.0586 3.96211 43.884 3.96211 45.0396Z" fill="#0A5373" fill-opacity="0.7"/>
<path d="M20.1975 45.0396C20.1975 46.1953 19.372 47.0207 18.2164 47.0207C17.0608 47.0207 16.2354 46.1953 16.2354 45.0396C16.2354 43.884 17.0608 43.0586 18.2164 43.0586C19.2069 43.0586 20.1975 43.884 20.1975 45.0396Z" fill="#0A5373" fill-opacity="0.7"/>
<path d="M36.3117 45.0396C36.3117 46.1953 35.4863 47.0207 34.3307 47.0207C33.175 47.0207 32.3496 46.1953 32.3496 45.0396C32.3496 43.884 33.175 43.0586 34.3307 43.0586C35.4863 43.0586 36.3117 43.884 36.3117 45.0396Z" fill="#0A5373" fill-opacity="0.7"/>
<path d="M52.5432 45.0396C52.5432 46.1953 51.7177 47.0207 50.5621 47.0207C49.4065 47.0207 48.5811 46.1953 48.5811 45.0396C48.5811 43.884 49.4065 43.0586 50.5621 43.0586C51.5526 43.0586 52.5432 43.884 52.5432 45.0396Z" fill="#0A5373" fill-opacity="0.7"/>
<path d="M68.6535 45.0396C68.6535 46.1953 67.8281 47.0207 66.6725 47.0207C65.5168 47.0207 64.6914 46.1953 64.6914 45.0396C64.6914 43.884 65.5168 43.0586 66.6725 43.0586C67.8281 43.0586 68.6535 43.884 68.6535 45.0396Z" fill="#0A5373" fill-opacity="0.7"/>
<path d="M84.8869 45.0396C84.8869 46.1953 84.0615 47.0207 82.9059 47.0207C81.7502 47.0207 80.9248 46.1953 80.9248 45.0396C80.9248 43.884 81.7502 43.0586 82.9059 43.0586C83.8964 43.0586 84.8869 43.884 84.8869 45.0396Z" fill="#0A5373" fill-opacity="0.7"/>
<path d="M101 45.0396C101 46.1953 100.175 47.0207 99.0191 47.0207C97.8635 47.0207 97.0381 46.1953 97.0381 45.0396C97.0381 43.884 97.8635 43.0586 99.0191 43.0586C100.175 43.0586 101 43.884 101 45.0396Z" fill="#0A5373" fill-opacity="0.7"/>
<path d="M1.98105 61.3684C3.07516 61.3684 3.96211 60.4814 3.96211 59.3873C3.96211 58.2932 3.07516 57.4062 1.98105 57.4062C0.886948 57.4062 0 58.2932 0 59.3873C0 60.4814 0.886948 61.3684 1.98105 61.3684Z" fill="#0A5373" fill-opacity="0.7"/>
<path d="M20.1975 59.3873C20.1975 60.5429 19.372 61.3684 18.2164 61.3684C17.0608 61.3684 16.2354 60.5429 16.2354 59.3873C16.2354 58.2317 17.0608 57.4062 18.2164 57.4062C19.2069 57.4062 20.1975 58.2317 20.1975 59.3873Z" fill="#0A5373" fill-opacity="0.7"/>
<path d="M36.3117 59.3873C36.3117 60.5429 35.4863 61.3684 34.3307 61.3684C33.175 61.3684 32.3496 60.5429 32.3496 59.3873C32.3496 58.2317 33.175 57.4062 34.3307 57.4062C35.4863 57.4062 36.3117 58.2317 36.3117 59.3873Z" fill="#0A5373" fill-opacity="0.7"/>
<path d="M50.5621 61.3684C51.6562 61.3684 52.5432 60.4814 52.5432 59.3873C52.5432 58.2932 51.6562 57.4062 50.5621 57.4062C49.468 57.4062 48.5811 58.2932 48.5811 59.3873C48.5811 60.4814 49.468 61.3684 50.5621 61.3684Z" fill="#0A5373" fill-opacity="0.7"/>
<path d="M66.6725 61.3684C67.7666 61.3684 68.6535 60.4814 68.6535 59.3873C68.6535 58.2932 67.7666 57.4062 66.6725 57.4062C65.5783 57.4062 64.6914 58.2932 64.6914 59.3873C64.6914 60.4814 65.5783 61.3684 66.6725 61.3684Z" fill="#0A5373" fill-opacity="0.7"/>
<path d="M84.8869 59.3873C84.8869 60.5429 84.0615 61.3684 82.9059 61.3684C81.7502 61.3684 80.9248 60.5429 80.9248 59.3873C80.9248 58.2317 81.7502 57.4062 82.9059 57.4062C83.8964 57.4062 84.8869 58.2317 84.8869 59.3873Z" fill="#0A5373" fill-opacity="0.7"/>
<path d="M99.0191 61.3684C100.113 61.3684 101 60.4814 101 59.3873C101 58.2932 100.113 57.4062 99.0191 57.4062C97.925 57.4062 97.0381 58.2932 97.0381 59.3873C97.0381 60.4814 97.925 61.3684 99.0191 61.3684Z" fill="#0A5373" fill-opacity="0.7"/>
<path d="M20.1975 73.735C20.1975 74.8906 19.372 75.716 18.2164 75.716C17.0608 75.716 16.2354 74.8906 16.2354 73.735C16.2354 72.5794 17.0608 71.7539 18.2164 71.7539C19.2069 71.7539 20.1975 72.5794 20.1975 73.735Z" fill="#0A5373" fill-opacity="0.7"/>
<path d="M36.3117 73.735C36.3117 74.8906 35.4863 75.716 34.3307 75.716C33.175 75.716 32.3496 74.8906 32.3496 73.735C32.3496 72.5794 33.175 71.7539 34.3307 71.7539C35.4863 71.7539 36.3117 72.5794 36.3117 73.735Z" fill="#0A5373" fill-opacity="0.7"/>
<path d="M50.5621 75.716C51.6562 75.716 52.5432 74.8291 52.5432 73.735C52.5432 72.6409 51.6562 71.7539 50.5621 71.7539C49.468 71.7539 48.5811 72.6409 48.5811 73.735C48.5811 74.8291 49.468 75.716 50.5621 75.716Z" fill="#0A5373" fill-opacity="0.7"/>
<path d="M66.6725 75.716C67.7666 75.716 68.6535 74.8291 68.6535 73.735C68.6535 72.6409 67.7666 71.7539 66.6725 71.7539C65.5783 71.7539 64.6914 72.6409 64.6914 73.735C64.6914 74.8291 65.5783 75.716 66.6725 75.716Z" fill="#0A5373" fill-opacity="0.7"/>
<path d="M84.8869 73.735C84.8869 74.8906 84.0615 75.716 82.9059 75.716C81.7502 75.716 80.9248 74.8906 80.9248 73.735C80.9248 72.5794 81.7502 71.7539 82.9059 71.7539C83.8964 71.7539 84.8869 72.5794 84.8869 73.735Z" fill="#0A5373" fill-opacity="0.7"/>
<path d="M20.1975 88.0826C20.1975 89.2382 19.372 90.0637 18.2164 90.0637C17.0608 90.0637 16.2354 89.2382 16.2354 88.0826C16.2354 86.927 17.0608 86.1016 18.2164 86.1016C19.2069 86.1016 20.1975 87.0921 20.1975 88.0826Z" fill="#0A5373" fill-opacity="0.7"/>
<path d="M36.3117 88.0826C36.3117 89.2382 35.4863 90.0637 34.3307 90.0637C33.175 90.0637 32.3496 89.2382 32.3496 88.0826C32.3496 86.927 33.175 86.1016 34.3307 86.1016C35.4863 86.1016 36.3117 87.0921 36.3117 88.0826Z" fill="#0A5373" fill-opacity="0.7"/>
<path d="M52.5432 88.0826C52.5432 89.2382 51.7177 90.0637 50.5621 90.0637C49.4065 90.0637 48.5811 89.2382 48.5811 88.0826C48.5811 86.927 49.4065 86.1016 50.5621 86.1016C51.5526 86.1016 52.5432 87.0921 52.5432 88.0826Z" fill="#0A5373" fill-opacity="0.7"/>
<path d="M68.6535 88.0826C68.6535 89.2382 67.8281 90.0637 66.6725 90.0637C65.5168 90.0637 64.6914 89.2382 64.6914 88.0826C64.6914 86.927 65.5168 86.1016 66.6725 86.1016C67.8281 86.1016 68.6535 87.0921 68.6535 88.0826Z" fill="#0A5373" fill-opacity="0.7"/>
<path d="M84.8869 88.0826C84.8869 89.2382 84.0615 90.0637 82.9059 90.0637C81.7502 90.0637 80.9248 89.2382 80.9248 88.0826C80.9248 86.927 81.7502 86.1016 82.9059 86.1016C83.8964 86.1016 84.8869 87.0921 84.8869 88.0826Z" fill="#0A5373" fill-opacity="0.7"/>
<path d="M36.3117 102.439C36.3117 103.59 35.4863 104.411 34.3307 104.411C33.175 104.411 32.3496 103.59 32.3496 102.439C32.3496 101.289 33.175 100.467 34.3307 100.467C35.4863 100.303 36.3117 101.289 36.3117 102.439Z" fill="#0A5373" fill-opacity="0.7"/>
<path d="M50.5621 104.427C51.6562 104.427 52.5432 103.54 52.5432 102.446C52.5432 101.352 51.6562 100.465 50.5621 100.465C49.468 100.465 48.5811 101.352 48.5811 102.446C48.5811 103.54 49.468 104.427 50.5621 104.427Z" fill="#0A5373" fill-opacity="0.7"/>
<path d="M66.6725 104.427C67.7666 104.427 68.6535 103.54 68.6535 102.446C68.6535 101.352 67.7666 100.465 66.6725 100.465C65.5783 100.465 64.6914 101.352 64.6914 102.446C64.6914 103.54 65.5783 104.427 66.6725 104.427Z" fill="#0A5373" fill-opacity="0.7"/>
</svg>
