<svg width="74" height="74" viewBox="0 0 74 74" fill="none" xmlns="http://www.w3.org/2000/svg">
<g clip-path="url(#clip0_160_7282)">
<path d="M33.7625 54.4208C33.4189 54.1631 33.0104 54.0062 32.5827 53.9676C32.1549 53.9291 31.7249 54.0104 31.3408 54.2024C30.9567 54.3945 30.6336 54.6897 30.4079 55.0551C30.1821 55.4204 30.0625 55.8413 30.0625 56.2708V58.386C28.2263 58.29 26.3931 58.144 24.5649 57.9481C9.53367 56.4003 4.625 52.7373 4.625 51.6458C4.625 51.3128 5.63942 49.7434 10.5697 48.1031C11.0774 47.9838 11.5297 47.6961 11.8528 47.2867C12.1759 46.8774 12.3507 46.3706 12.3488 45.8491C12.3488 44.3291 10.7516 43.1821 9.30242 43.6507C3.12958 45.6703 0 48.359 0 51.6458C0 59.2493 16.8473 61.8023 24.0747 62.5485C25.9863 62.7581 27.9936 62.9123 30.0625 63.0233V65.5208C30.0625 67.4325 32.2517 68.5024 33.7625 67.3708L39.9292 62.7458C40.2147 62.5293 40.4463 62.2496 40.6057 61.9286C40.7651 61.6077 40.8481 61.2542 40.8481 60.8958C40.8481 60.5374 40.7651 60.1839 40.6057 59.863C40.4463 59.542 40.2147 59.2623 39.9292 59.0458L33.7625 54.4208ZM64.6822 43.6507C64.0987 43.4606 63.4636 43.51 62.9166 43.7882C62.3696 44.0663 61.9555 44.5503 61.7653 45.1338C61.5752 45.7173 61.6246 46.3524 61.9028 46.8994C62.1809 47.4464 62.665 47.8605 63.2484 48.0506C68.2496 49.6786 69.375 51.2326 69.375 51.6489C69.375 53.0148 63.0326 56.8227 47.3353 58.1331C47.0325 58.1584 46.7375 58.2432 46.4674 58.3824C46.1973 58.5217 45.9572 58.7129 45.761 58.9449C45.5647 59.177 45.416 59.4454 45.3235 59.7349C45.231 60.0244 45.1964 60.3293 45.2217 60.6322C45.247 60.9351 45.3317 61.23 45.471 61.5001C45.6103 61.7702 45.8014 62.0103 46.0335 62.2066C46.2655 62.4028 46.534 62.5515 46.8235 62.644C47.113 62.7365 47.4179 62.7711 47.7207 62.7458C55.6203 62.0767 74 59.6748 74 51.6458C74 48.3559 70.8643 45.6641 64.6822 43.6507Z" fill="#563AEF"/>
<path d="M37.0003 3.08325L58.5837 12.3333L37.0003 21.5833L15.417 12.3333L37.0003 3.08325Z" fill="#563AEF"/>
<path d="M15.417 12.3333L37.0003 21.5833V46.2499L15.417 36.9999V12.3333Z" fill="#05CDEE"/>
<path d="M58.5833 12.3333L37 21.5833V46.2499L58.5833 36.9999V12.3333Z" fill="#6F56FC"/>
</g>
<defs>
<clipPath id="clip0_160_7282">
<rect width="74" height="74" fill="white"/>
</clipPath>
</defs>
</svg>
