<svg width="70" height="70" viewBox="0 0 70 70" fill="none" xmlns="http://www.w3.org/2000/svg">
<g clip-path="url(#clip0_160_7261)">
<path d="M17.5 70C7.84875 70 0 62.1513 0 52.5C0 42.8488 7.84875 35 17.5 35C27.1513 35 35 42.8488 35 52.5C35 62.1513 27.1513 70 17.5 70Z" fill="#05CDEE"/>
<path d="M17.4997 64.8959C16.7261 64.8959 15.9843 64.5887 15.4373 64.0417C14.8903 63.4947 14.583 62.7528 14.583 61.9793V59.2697C14.583 58.4961 14.8903 57.7543 15.4373 57.2073C15.9843 56.6603 16.7261 56.353 17.4997 56.353C18.2732 56.353 19.0151 56.6603 19.5621 57.2073C20.109 57.7543 20.4163 58.4961 20.4163 59.2697V61.9793C20.4163 62.7528 20.109 63.4947 19.5621 64.0417C19.0151 64.5887 18.2732 64.8959 17.4997 64.8959Z" fill="#563AEF"/>
<path d="M18.1067 62.1862H13.8542C13.0806 62.1862 12.3388 61.8789 11.7918 61.3319C11.2448 60.785 10.9375 60.0431 10.9375 59.2695C10.9375 58.496 11.2448 57.7541 11.7918 57.2071C12.3388 56.6602 13.0806 56.3529 13.8542 56.3529H18.1067C18.095 56.3383 18.2292 56.175 18.2292 55.8862C18.2292 55.5975 18.095 55.4312 18.0454 55.405L16.8933 55.4166C13.6121 55.4166 10.9375 52.5904 10.9375 49.1137C10.9375 45.637 13.6092 42.8108 16.8933 42.8108H21.1458C21.9194 42.8108 22.6612 43.1181 23.2082 43.6651C23.7552 44.212 24.0625 44.9539 24.0625 45.7275C24.0625 46.501 23.7552 47.2429 23.2082 47.7899C22.6612 48.3368 21.9194 48.6441 21.1458 48.6441H16.8933C16.9079 48.6587 16.7708 48.825 16.7708 49.1137C16.7708 49.4025 16.905 49.5687 16.9546 49.595L18.1067 49.5833C21.3879 49.5833 24.0625 52.4095 24.0625 55.8862C24.0625 59.3629 21.3908 62.1862 18.1067 62.1862Z" fill="#563AEF"/>
<path d="M17.4997 48.6472C16.7261 48.6472 15.9843 48.3399 15.4373 47.7929C14.8903 47.2459 14.583 46.504 14.583 45.7305V43.0209C14.583 42.2474 14.8903 41.5055 15.4373 40.9585C15.9843 40.4115 16.7261 40.1042 17.4997 40.1042C18.2732 40.1042 19.0151 40.4115 19.5621 40.9585C20.109 41.5055 20.4163 42.2474 20.4163 43.0209V45.7305C20.4163 46.504 20.109 47.2459 19.5621 47.7929C19.0151 48.3399 18.2732 48.6472 17.4997 48.6472Z" fill="#563AEF"/>
<path d="M47.3959 70.0001C46.9754 70 46.5598 69.909 46.1777 69.7333C45.7956 69.5576 45.456 69.3014 45.1822 68.9821L40.8072 63.878C40.3537 63.3493 40.1045 62.6757 40.1045 61.9792C40.1045 61.2827 40.3537 60.6092 40.8072 60.0805L45.1822 54.9763C45.569 54.5226 46.086 54.1989 46.6631 54.0492C47.2402 53.8994 47.8494 53.9309 48.408 54.1392C49.5513 54.5651 50.3126 55.6559 50.3126 56.8751V67.0834C50.3111 67.8565 50.0033 68.5974 49.4566 69.1441C48.91 69.6907 48.169 69.9985 47.3959 70.0001Z" fill="#563AEF"/>
<path d="M53.2292 64.8958H44.4792C43.7056 64.8958 42.9638 64.5885 42.4168 64.0416C41.8698 63.4946 41.5625 62.7527 41.5625 61.9792C41.5625 61.2056 41.8698 60.4637 42.4168 59.9168C42.9638 59.3698 43.7056 59.0625 44.4792 59.0625H53.2292C54.8362 59.0625 56.1458 57.7529 56.1458 56.1458V37.9167C56.1458 37.1431 56.4531 36.4013 57.0001 35.8543C57.5471 35.3073 58.2889 35 59.0625 35C59.836 35 60.5779 35.3073 61.1249 35.8543C61.6719 36.4013 61.9792 37.1431 61.9792 37.9167V56.1458C61.9792 60.97 58.0533 64.8958 53.2292 64.8958ZM31.3542 0C31.7747 3.26917e-05 32.1903 0.0910181 32.5724 0.266717C32.9545 0.442417 33.2941 0.698673 33.5679 1.01792L37.9429 6.12208C38.3963 6.65079 38.6456 7.32432 38.6456 8.02083C38.6456 8.71735 38.3963 9.39087 37.9429 9.91958L33.5679 15.0237C33.1811 15.4774 32.6641 15.8011 32.087 15.9509C31.5099 16.1006 30.9007 16.0692 30.3421 15.8608C29.7836 15.6533 29.3019 15.2801 28.9615 14.7911C28.6211 14.3021 28.4382 13.7208 28.4375 13.125V2.91667C28.439 2.14359 28.7468 1.40262 29.2935 0.855975C29.8401 0.309327 30.5811 0.00154153 31.3542 0Z" fill="#563AEF"/>
<path d="M10.9372 27.7084C10.1636 27.7084 9.42176 27.4011 8.87478 26.8541C8.3278 26.3072 8.02051 25.5653 8.02051 24.7917V13.8542C8.02051 9.03008 11.9463 5.10425 16.7705 5.10425H34.2705C35.0441 5.10425 35.7859 5.41154 36.3329 5.95852C36.8799 6.5055 37.1872 7.24737 37.1872 8.02092C37.1872 8.79446 36.8799 9.53633 36.3329 10.0833C35.7859 10.6303 35.0441 10.9376 34.2705 10.9376H16.7705C15.1634 10.9376 13.8538 12.2472 13.8538 13.8542V24.7917C13.8538 25.5653 13.5466 26.3072 12.9996 26.8541C12.4526 27.4011 11.7107 27.7084 10.9372 27.7084Z" fill="#563AEF"/>
<path d="M58.3337 11.6667C55.1166 11.6667 52.5003 9.05042 52.5003 5.83333C52.5003 2.61625 55.1166 0 58.3337 0C61.5507 0 64.167 2.61625 64.167 5.83333C64.167 9.05042 61.5507 11.6667 58.3337 11.6667ZM67.8128 26.25H48.8545C48.2743 26.25 47.7179 26.0195 47.3077 25.6093C46.8975 25.1991 46.667 24.6427 46.667 24.0625V21.6329C46.667 17.745 50.0766 14.5833 54.2707 14.5833H62.3966C66.5907 14.5833 70.0003 17.745 70.0003 21.6329V24.0625C70.0003 24.6427 69.7699 25.1991 69.3596 25.6093C68.9494 26.0195 68.393 26.25 67.8128 26.25Z" fill="#05CDEE"/>
</g>
<defs>
<clipPath id="clip0_160_7261">
<rect width="70" height="70" fill="white"/>
</clipPath>
</defs>
</svg>
