<svg width="74" height="74" viewBox="0 0 74 74" fill="none" xmlns="http://www.w3.org/2000/svg">
<g clip-path="url(#clip0_160_7244)">
<path d="M37.592 15.8855L45.4391 9.60782C47.2552 8.15865 47.9335 5.80607 47.1657 3.61382C46.807 2.55384 46.1232 1.634 45.2114 0.985201C44.2997 0.336403 43.2065 -0.00829853 42.0875 0.000151733H13.4125C11.0938 0.000151733 9.09892 1.41849 8.33117 3.61382C7.95261 4.66763 7.91569 5.81392 8.22565 6.88991C8.5356 7.9659 9.17668 8.91689 10.0578 9.60782L17.908 15.8855C8.11533 23.3811 0 39.9139 0 53.1877C0 63.5446 5.48217 74.0002 17.7292 74.0002H38.5417C49.0034 74.0002 55.5 66.0236 55.5 53.1877C55.5 39.9139 47.3847 23.3811 37.592 15.8855Z" fill="#563AEF"/>
<path d="M29.2917 58.5834H21.5833C20.7656 58.5834 19.9813 58.2586 19.4031 57.6803C18.8249 57.1021 18.5 56.3178 18.5 55.5001C18.5 54.6823 18.8249 53.8981 19.4031 53.3198C19.9813 52.7416 20.7656 52.4167 21.5833 52.4167H29.2917C29.7005 52.4167 30.0927 52.2543 30.3818 51.9652C30.6709 51.6761 30.8333 51.284 30.8333 50.8751C30.8333 50.4662 30.6709 50.0741 30.3818 49.785C30.0927 49.4958 29.7005 49.3334 29.2917 49.3334H26.2083C21.9564 49.3334 18.5 45.8739 18.5 41.6251C18.5 37.3762 21.9564 33.9167 26.2083 33.9167H33.9167C34.7344 33.9167 35.5187 34.2416 36.0969 34.8198C36.6751 35.3981 37 36.1823 37 37.0001C37 37.8178 36.6751 38.6021 36.0969 39.1803C35.5187 39.7586 34.7344 40.0834 33.9167 40.0834H26.2083C25.7995 40.0834 25.4073 40.2458 25.1182 40.535C24.8291 40.8241 24.6667 41.2162 24.6667 41.6251C24.6667 42.034 24.8291 42.4261 25.1182 42.7152C25.4073 43.0043 25.7995 43.1667 26.2083 43.1667H29.2917C33.5436 43.1667 37 46.6262 37 50.8751C37 55.1239 33.5436 58.5834 29.2917 58.5834Z" fill="#05CDEE"/>
<path d="M27.7503 64.75C26.9326 64.75 26.1483 64.4252 25.5701 63.8469C24.9918 63.2687 24.667 62.4844 24.667 61.6667V57.0417C24.667 56.2239 24.9918 55.4397 25.5701 54.8614C26.1483 54.2832 26.9326 53.9583 27.7503 53.9583C28.5681 53.9583 29.3523 54.2832 29.9306 54.8614C30.5088 55.4397 30.8337 56.2239 30.8337 57.0417V61.6667C30.8337 62.4844 30.5088 63.2687 29.9306 63.8469C29.3523 64.4252 28.5681 64.75 27.7503 64.75ZM27.7503 38.5417C26.9326 38.5417 26.1483 38.2168 25.5701 37.6386C24.9918 37.0603 24.667 36.2761 24.667 35.4583V30.8333C24.667 30.0156 24.9918 29.2313 25.5701 28.6531C26.1483 28.0749 26.9326 27.75 27.7503 27.75C28.5681 27.75 29.3523 28.0749 29.9306 28.6531C30.5088 29.2313 30.8337 30.0156 30.8337 30.8333V35.4583C30.8337 36.2761 30.5088 37.0603 29.9306 37.6386C29.3523 38.2168 28.5681 38.5417 27.7503 38.5417Z" fill="#05CDEE"/>
<path d="M43.9375 13.875H11.5625C10.9492 13.875 10.361 14.1186 9.92732 14.5523C9.49364 14.986 9.25 15.5742 9.25 16.1875C9.25 16.8008 9.49364 17.389 9.92732 17.8227C10.361 18.2564 10.9492 18.5 11.5625 18.5H43.9375C44.5508 18.5 45.139 18.2564 45.5727 17.8227C46.0064 17.389 46.25 16.8008 46.25 16.1875C46.25 15.5742 46.0064 14.986 45.5727 14.5523C45.139 14.1186 44.5508 13.875 43.9375 13.875Z" fill="#05CDEE"/>
<path d="M65.5212 57.0416H54.7295C54.1162 57.0416 53.528 56.798 53.0943 56.3643C52.6606 55.9306 52.417 55.3424 52.417 54.7291V47.7916C52.417 43.5428 55.8734 40.0833 60.1253 40.0833C64.3772 40.0833 67.8337 43.5428 67.8337 47.7916V54.7291C67.8337 55.3424 67.59 55.9306 67.1563 56.3643C66.7227 56.798 66.1345 57.0416 65.5212 57.0416ZM57.042 52.4166H63.2087V47.7916C63.1731 46.9977 62.8328 46.2481 62.2584 45.6989C61.6841 45.1496 60.92 44.8431 60.1253 44.8431C59.3306 44.8431 58.5666 45.1496 57.9922 45.6989C57.4179 46.2481 57.0775 46.9977 57.042 47.7916V52.4166Z" fill="#65E0F4"/>
<path d="M68.6042 74.0001H51.6458C48.6704 74.0001 46.25 71.5797 46.25 68.6042V57.8126C46.25 54.8372 48.6704 52.4167 51.6458 52.4167H68.6042C71.5796 52.4167 74 54.8372 74 57.8126V68.6042C74 71.5797 71.5796 74.0001 68.6042 74.0001Z" fill="#05CDEE"/>
</g>
<defs>
<clipPath id="clip0_160_7244">
<rect width="74" height="74" fill="white"/>
</clipPath>
</defs>
</svg>
