<svg width="74" height="74" viewBox="0 0 74 74" fill="none" xmlns="http://www.w3.org/2000/svg">
<g clip-path="url(#clip0_160_7228)">
<path d="M36.9997 68.6041C19.5727 68.6041 5.39551 54.4269 5.39551 36.9999C5.39551 19.5729 19.5727 5.39575 36.9997 5.39575C54.4267 5.39575 68.6039 19.5729 68.6039 36.9999C68.6039 54.4269 54.4267 68.6041 36.9997 68.6041Z" fill="white"/>
<path d="M37 62.4375C51.0487 62.4375 62.4375 51.0487 62.4375 37C62.4375 22.9513 51.0487 11.5625 37 11.5625C22.9513 11.5625 11.5625 22.9513 11.5625 37C11.5625 51.0487 22.9513 62.4375 37 62.4375Z" fill="#563AEF"/>
<path d="M37 74C36.1822 74 35.398 73.6751 34.8198 73.0969C34.2415 72.5187 33.9167 71.7344 33.9167 70.9167V63.5444C33.9167 62.7267 34.2415 61.9424 34.8198 61.3642C35.398 60.7859 36.1822 60.4611 37 60.4611C37.8177 60.4611 38.602 60.7859 39.1802 61.3642C39.7585 61.9424 40.0833 62.7267 40.0833 63.5444V70.9167C40.0833 71.7344 39.7585 72.5187 39.1802 73.0969C38.602 73.6751 37.8177 74 37 74ZM37 13.5389C36.1822 13.5389 35.398 13.2141 34.8198 12.6358C34.2415 12.0576 33.9167 11.2733 33.9167 10.4556V3.08333C33.9167 2.26558 34.2415 1.48132 34.8198 0.903087C35.398 0.32485 36.1822 0 37 0C37.8177 0 38.602 0.32485 39.1802 0.903087C39.7585 1.48132 40.0833 2.26558 40.0833 3.08333V10.4556C40.0833 11.2733 39.7585 12.0576 39.1802 12.6358C38.602 13.2141 37.8177 13.5389 37 13.5389ZM10.4587 40.0833H3.08333C2.26558 40.0833 1.48132 39.7585 0.903087 39.1802C0.32485 38.602 0 37.8177 0 37C0 36.1822 0.32485 35.398 0.903087 34.8198C1.48132 34.2415 2.26558 33.9167 3.08333 33.9167H10.4587C11.2764 33.9167 12.0607 34.2415 12.6389 34.8198C13.2171 35.398 13.542 36.1822 13.542 37C13.542 37.8177 13.2171 38.602 12.6389 39.1802C12.0607 39.7585 11.2764 40.0833 10.4587 40.0833ZM70.9167 40.0833H63.5413C62.7236 40.0833 61.9393 39.7585 61.3611 39.1802C60.7829 38.602 60.458 37.8177 60.458 37C60.458 36.1822 60.7829 35.398 61.3611 34.8198C61.9393 34.2415 62.7236 33.9167 63.5413 33.9167H70.9167C71.7344 33.9167 72.5187 34.2415 73.0969 34.8198C73.6751 35.398 74 36.1822 74 37C74 37.8177 73.6751 38.602 73.0969 39.1802C72.5187 39.7585 71.7344 40.0833 70.9167 40.0833Z" fill="#05CDEE"/>
<path d="M30.0624 52.4938C22.9862 52.4938 20.5503 43.1143 26.4642 39.6733C26.9928 39.3858 27.6127 39.3157 28.1922 39.4779C28.7717 39.6401 29.2652 40.0218 29.5678 40.5419C29.8704 41.0621 29.9584 41.6797 29.8129 42.2637C29.6675 42.8476 29.3002 43.3518 28.789 43.6693C26.9328 44.7485 27.6944 47.8657 30.0624 47.8657C31.8292 47.8657 32.859 45.9572 32.1807 44.693C31.8936 44.1504 31.8339 43.516 32.0146 42.9294C32.1953 42.3428 32.6016 41.852 33.1442 41.565C33.6868 41.2779 34.3212 41.2182 34.9078 41.3989C35.4944 41.5796 35.9852 41.9859 36.2722 42.5285C36.7575 43.4636 37.0073 44.5029 36.9999 45.5563C36.9999 49.3827 33.8857 52.4938 30.0624 52.4938Z" fill="#563AEF"/>
<path d="M50.9951 50.9335L18.6201 41.4553L18.6355 32.3872L51.0105 23.1372L50.9951 50.9335Z" fill="#05CDEE"/>
<path d="M51.6455 52.3397C51.0322 52.3397 50.444 52.096 50.0103 51.6624C49.5766 51.2287 49.333 50.6405 49.333 50.0272V23.8188C49.333 23.2055 49.5766 22.6173 50.0103 22.1837C50.444 21.75 51.0322 21.5063 51.6455 21.5063C52.2588 21.5063 52.847 21.75 53.2807 22.1837C53.7144 22.6173 53.958 23.2055 53.958 23.8188V50.0272C53.958 50.6405 53.7144 51.2287 53.2807 51.6624C52.847 52.096 52.2588 52.3397 51.6455 52.3397ZM19.2705 43.0897C18.6572 43.0897 18.069 42.846 17.6353 42.4124C17.2016 41.9787 16.958 41.3905 16.958 40.7772V33.0688C16.958 32.4555 17.2016 31.8673 17.6353 31.4337C18.069 31 18.6572 30.7563 19.2705 30.7563C19.8838 30.7563 20.472 31 20.9057 31.4337C21.3394 31.8673 21.583 32.4555 21.583 33.0688V40.7772C21.583 41.3905 21.3394 41.9787 20.9057 42.4124C20.472 42.846 19.8838 43.0897 19.2705 43.0897Z" fill="white"/>
</g>
<defs>
<clipPath id="clip0_160_7228">
<rect width="74" height="74" fill="white"/>
</clipPath>
</defs>
</svg>
