<svg width="157" height="225" viewBox="0 0 157 225" fill="none" xmlns="http://www.w3.org/2000/svg">
<path fill-rule="evenodd" clip-rule="evenodd" d="M117.857 0H106.142L157 50.8582V39.1423L117.857 0ZM157 10.8582L146.142 0H157V10.8582ZM157 79.142L77.857 0H66.142L157 90.858V79.142ZM157 119.142L37.857 0H26.142L157 130.858V119.142ZM157 159.142L-2.143 0H-13.8584L157 170.858V159.142ZM157 199.142L-42.1426 0H-53.8584L157 210.858V199.142ZM142.857 225L-68 14.1423V25.8582L131.142 225H142.857ZM102.857 225L-68 54.1423V65.858L91.142 225H102.857ZM62.857 225L-68 94.142V105.858L51.142 225H62.857ZM22.857 225L-68 134.142V145.858L11.142 225H22.857ZM-17.1426 225L-68 174.142V185.858L-28.8584 225H-17.1426ZM-57.1426 225L-68 214.142V225H-57.1426Z" fill="#F2994A" fill-opacity="0.2"/>
</svg>
