<svg width="68" height="68" viewBox="0 0 68 68" fill="none" xmlns="http://www.w3.org/2000/svg">
<path d="M4.01256 53.9709C4.51961 53.6112 4.64014 52.9093 4.28214 52.4027L4.28177 52.4022L4.27843 52.3973C4.2739 52.3907 4.26594 52.3791 4.25489 52.3626C4.23278 52.3295 4.1984 52.2771 4.15456 52.2071C4.06674 52.0668 3.94182 51.8572 3.8019 51.592C3.52004 51.0579 3.18782 50.3181 2.96905 49.4793C2.53186 47.803 2.57297 45.8919 4.16686 44.298C5.82591 42.6389 8.09391 42.3415 10.8609 42.0275L11.0084 42.0108C12.4557 41.8469 14.0463 41.6668 15.5635 41.1421C16.7544 40.7302 17.9001 40.106 18.8955 39.1105C19.8866 38.1194 20.5098 36.9794 20.9217 35.7941C21.4506 34.2723 21.6314 32.6756 21.7958 31.2234L21.8125 31.0758C22.1266 28.3089 22.424 26.0408 24.083 24.3818C25.7421 22.7227 28.0101 22.4254 30.7771 22.1113L30.9246 22.0946C32.3906 21.9286 34.0037 21.746 35.5385 21.2054C36.7083 20.7933 37.8327 20.1734 38.8117 19.1943C39.7864 18.2196 40.4052 17.101 40.8173 15.9368C41.3621 14.3973 41.5455 12.7782 41.712 11.3072L41.7287 11.1597C42.0428 8.39268 42.3401 6.12468 43.9992 4.46563C45.6054 2.85945 47.6098 2.75338 49.3795 3.13019C50.2602 3.31771 51.0394 3.61889 51.6018 3.87643C51.8813 4.00439 52.1026 4.11949 52.251 4.20068C52.3251 4.24122 52.3806 4.27312 52.4158 4.29373C52.4333 4.30402 52.4458 4.31147 52.4528 4.31575L52.4577 4.31869L52.4587 4.31933L52.4592 4.3196L52.4595 4.31981C52.9867 4.64624 53.6798 4.48375 54.0083 3.95628C54.3373 3.4282 54.1764 2.73426 53.649 2.40633L53.0533 3.36251C53.649 2.40633 53.6486 2.40609 53.6481 2.40583L53.6472 2.40525L53.6449 2.40384L53.6387 2.40001L53.6198 2.38852C53.6044 2.3792 53.5833 2.3666 53.5568 2.35107C53.5038 2.32002 53.4291 2.27721 53.3346 2.22547C53.1457 2.12212 52.8764 1.98243 52.5424 1.82943C51.8777 1.52507 50.9383 1.15965 49.8524 0.928432C47.6889 0.467772 44.7687 0.515718 42.409 2.87543C40.1454 5.13903 39.8012 8.17924 39.5087 10.7626L39.492 10.9101C39.1779 13.6771 38.8806 15.9451 37.2215 17.6041C35.5625 19.2632 33.2945 19.5605 30.5275 19.8746L30.38 19.8913C27.7966 20.1838 24.7564 20.528 22.4928 22.7916C20.2292 25.0552 19.885 28.0954 19.5925 30.6787L19.5758 30.8263C19.2618 33.5932 18.9644 35.8612 17.3053 37.5203C15.6463 39.1793 13.3783 39.4767 10.6113 39.7908L10.4638 39.8075C7.88047 40.1 4.84026 40.4442 2.57666 42.7078C0.204658 45.0798 0.241125 47.9439 0.790769 50.0513C1.06542 51.1044 1.47448 52.0087 1.81055 52.6456C1.9796 52.9659 2.13281 53.2236 2.24587 53.4042C2.30247 53.4946 2.34922 53.5661 2.38313 53.6168C2.4001 53.6421 2.41387 53.6623 2.42407 53.6771L2.43667 53.6953L2.44088 53.7013L2.44245 53.7035L2.4431 53.7044C2.44339 53.7048 2.44366 53.7052 3.36248 53.0534L2.44366 53.7052C2.80268 54.212 3.5051 54.3309 4.01256 53.9709Z" fill="white" fill-opacity="0.3"/>
<path d="M11.0405 59.161C11.3985 59.6677 11.278 60.3695 10.7709 60.7293C10.2635 61.0893 9.56104 60.9703 9.20201 60.4636L10.1208 59.8117C9.20201 60.4636 9.20174 60.4632 9.20146 60.4628L9.20081 60.4619L9.19924 60.4596L9.19502 60.4536L9.18243 60.4355C9.17222 60.4207 9.15845 60.4005 9.14149 60.3751C9.10758 60.3244 9.06083 60.253 9.00422 60.1626C8.89116 59.9819 8.73795 59.7243 8.56891 59.4039C8.23283 58.767 7.82377 57.8628 7.54912 56.8097C6.99948 54.7022 6.96301 51.8381 9.33501 49.4661C11.5986 47.2025 14.6388 46.8583 17.2221 46.5658L17.3697 46.5491C20.1366 46.2351 22.4047 45.9377 24.0637 44.2786C25.7227 42.6196 26.0201 40.3516 26.3342 37.5846L26.3509 37.4371C26.6434 34.8538 26.9876 31.8136 29.2512 29.55C31.5148 27.2863 34.555 26.9422 37.1383 26.6497L37.2858 26.633C40.0528 26.3189 42.3208 26.0215 43.9799 24.3625C45.6389 22.7034 45.9363 20.4354 46.2504 17.6684L46.2671 17.5209C46.5595 14.9376 46.9037 11.8974 49.1674 9.63378C51.5271 7.27407 54.4472 7.22613 56.6107 7.68679C57.6966 7.918 58.636 8.28342 59.3007 8.58779C59.6348 8.74079 59.9041 8.88047 60.0929 8.98383C60.1875 9.03557 60.2622 9.07838 60.3152 9.10943C60.3417 9.12495 60.3627 9.13755 60.3782 9.14688L60.3971 9.15836L60.4033 9.16219L60.4056 9.16361L60.4065 9.16419C60.4069 9.16444 60.4073 9.16468 59.8117 10.1209L60.4073 9.16468C60.9348 9.49261 61.0957 10.1866 60.7667 10.7146C60.4381 11.2421 59.7451 11.4046 59.2179 11.0782L59.2175 11.078L59.2171 11.0777L59.2161 11.077L59.2112 11.0741C59.2041 11.0698 59.1917 11.0624 59.1741 11.0521C59.139 11.0315 59.0834 10.9996 59.0093 10.959C58.861 10.8779 58.6396 10.7627 58.3602 10.6348C57.7978 10.3772 57.0185 10.0761 56.1378 9.88854C54.3682 9.51174 52.3637 9.6178 50.7576 11.224C49.0985 12.883 48.8011 15.151 48.4871 17.918L48.4703 18.0655C48.3038 19.5365 48.1205 21.1556 47.5756 22.6951C47.1636 23.8593 46.5448 24.978 45.5701 25.9527C44.591 26.9317 43.4667 27.5517 42.2969 27.9637C40.762 28.5043 39.1489 28.687 37.6829 28.853L37.5354 28.8697C34.7684 29.1837 32.5004 29.4811 30.8414 31.1402C29.1823 32.7992 28.8849 35.0672 28.5709 37.8342L28.5542 37.9817C28.3898 39.434 28.209 41.0306 27.6801 42.5525C27.2681 43.7378 26.645 44.8778 25.6539 45.8688C24.6584 46.8643 23.5128 47.4886 22.3218 47.9005C20.8047 48.4252 19.214 48.6053 17.7668 48.7691L17.6192 48.7858C14.8523 49.0999 12.5843 49.3973 10.9252 51.0563C9.33132 52.6502 9.29022 54.5614 9.7274 56.2376C9.94617 57.0765 10.2784 57.8162 10.5603 58.3504C10.7002 58.6155 10.8251 58.8252 10.9129 58.9654C10.9568 59.0355 10.9911 59.0879 11.0132 59.1209C11.0243 59.1375 11.0323 59.1491 11.0368 59.1557L11.0401 59.1605L11.0405 59.161Z" fill="white" fill-opacity="0.3"/>
<path d="M17.7985 65.9189L17.7986 65.9191C18.1569 66.4258 18.0364 67.1278 17.5293 67.4876C17.0218 67.8476 16.3194 67.7287 15.9604 67.2219L16.8792 66.5701C15.9604 67.2219 15.9601 67.2215 15.9598 67.2211L15.9592 67.2202L15.9576 67.218L15.9534 67.212L15.9408 67.1938C15.9306 67.179 15.9168 67.1588 15.8998 67.1335C15.8659 67.0828 15.8192 67.0113 15.7626 66.9209C15.6495 66.7403 15.4963 66.4826 15.3273 66.1623C14.9912 65.5254 14.5821 64.6211 14.3075 63.5681C13.7578 61.4606 13.7214 58.5965 16.0934 56.2245C18.357 53.9609 21.3972 53.6167 23.9805 53.3242L24.128 53.3075C26.895 52.9934 29.163 52.696 30.8221 51.037C32.4811 49.3779 32.7785 47.1099 33.0925 44.343L33.1093 44.1954C33.4017 41.6121 33.7459 38.5719 36.0095 36.3083C38.2731 34.0447 41.3134 33.7005 43.8967 33.408L44.0442 33.3913C46.8112 33.0773 49.0792 32.7799 50.7382 31.1208C52.3973 29.4618 52.6947 27.1938 53.0087 24.4268L53.0254 24.2793C53.3179 21.696 53.6621 18.6557 55.9257 16.3921C58.2854 14.0324 61.2056 13.9845 63.3691 14.4451C64.455 14.6764 65.3944 15.0418 66.0591 15.3461C66.3932 15.4991 66.6624 15.6388 66.8513 15.7422C66.9458 15.7939 67.0206 15.8367 67.0735 15.8678C67.1 15.8833 67.1211 15.8959 67.1365 15.9052L67.1554 15.9167L67.1616 15.9205L67.1639 15.922L67.1649 15.9225C67.1653 15.9228 67.1657 15.923 66.57 16.8792L67.1657 15.923C67.6931 16.251 67.854 16.9449 67.5251 17.473C67.1965 18.0005 66.5035 18.1629 65.9762 17.8365L65.9759 17.8363L65.9755 17.836L65.9744 17.8354L65.9695 17.8325C65.9663 17.8305 65.962 17.8279 65.9567 17.8247C65.9502 17.8209 65.9421 17.8161 65.9325 17.8104C65.8973 17.7898 65.8418 17.7579 65.7677 17.7174C65.6193 17.6362 65.398 17.5211 65.1185 17.3931C64.5561 17.1356 63.7769 16.8344 62.8962 16.6469C61.1265 16.2701 59.1221 16.3762 57.5159 17.9823C55.8569 19.6414 55.5595 21.9094 55.2454 24.6764L55.2287 24.8239C55.0622 26.2949 54.8789 27.914 54.334 29.4535C53.9219 30.6177 53.3031 31.7363 52.3284 32.711C51.3494 33.6901 50.225 34.3101 49.0552 34.7221C47.5204 35.2627 45.9073 35.4453 44.4413 35.6113L44.2938 35.628C41.5268 35.9421 39.2588 36.2395 37.5997 37.8985C35.9407 39.5576 35.6433 41.8256 35.3292 44.5925L35.3125 44.7401C35.1481 46.1923 34.9673 47.789 34.4384 49.3109C34.0265 50.4962 33.4033 51.6361 32.4123 52.6272C31.4168 53.6227 30.2711 54.2469 29.0802 54.6588C27.563 55.1835 25.9724 55.3636 24.5251 55.5275L24.3776 55.5442C21.6106 55.8582 19.3426 56.1556 17.6836 57.8147C16.0897 59.4086 16.0486 61.3197 16.4858 62.996C16.7045 63.8348 17.0368 64.5746 17.3186 65.1087C17.4585 65.3739 17.5834 65.5835 17.6713 65.7238C17.7151 65.7938 17.7495 65.8462 17.7716 65.8793C17.7826 65.8958 17.7906 65.9075 17.7951 65.914L17.7985 65.9189Z" fill="white" fill-opacity="0.3"/>
</svg>
