<svg width="53" height="53" viewBox="0 0 53 53" fill="none" xmlns="http://www.w3.org/2000/svg">
<path fill-rule="evenodd" clip-rule="evenodd" d="M30.5919 19.8843L25.2381 0L19.8843 19.8843L0 25.2381L19.8843 30.5919L25.2381 50.4762L26.1602 47.0513L26.4235 48.0289L27.2358 47.8102L26.5958 45.4334L30.5919 30.5919L45.4334 26.5958L47.8102 27.2358L48.0289 26.4235L47.0513 26.1602L50.4762 25.2381L30.5919 19.8843ZM47.0513 26.1602L44.7149 25.5312L44.4962 26.3435L45.4334 26.5958L47.0513 26.1602ZM26.5958 45.4334L26.3435 44.4962L25.5312 44.7149L26.1602 47.0513L26.5958 45.4334ZM28.2081 4.18083L28.1853 4.18695L28.1281 4.39955L27.7619 4.30096L27.3957 4.39955L27.3385 4.18695L27.3158 4.18083L27.7619 2.52381L28.2081 4.18083ZM29.1004 7.49488L29.9927 10.8089L29.1803 11.0276L28.288 7.7136L29.1004 7.49488ZM30.885 14.123L31.7773 17.437L30.9649 17.6557L30.0726 14.3417L30.885 14.123ZM32.6696 20.7511L33.1157 22.4081L34.7727 22.8542L34.554 23.6666L32.4293 23.0945L31.8572 20.9698L32.6696 20.7511ZM38.0868 23.7465L41.4008 24.6388L41.1821 25.4512L37.8681 24.5589L38.0868 23.7465ZM51.3369 27.3385L51.343 27.3158L53 27.7619L51.343 28.2081L51.3369 28.1853L51.1243 28.1281L51.2229 27.7619L51.1243 27.3957L51.3369 27.3385ZM48.0289 29.1004L44.7149 29.9927L44.4962 29.1803L47.8102 28.288L48.0289 29.1004ZM41.4008 30.885L38.0868 31.7773L37.8681 30.9649L41.1821 30.0726L41.4008 30.885ZM34.7727 32.6696L33.1157 33.1157L32.6696 34.7727L31.8572 34.554L32.4293 32.4293L34.554 31.8572L34.7727 32.6696ZM31.7773 38.0868L30.885 41.4008L30.0726 41.1821L30.9649 37.8681L31.7773 38.0868ZM29.9927 44.7149L29.1004 48.0289L28.288 47.8102L29.1803 44.4962L29.9927 44.7149ZM28.1853 51.3369L28.2081 51.343L27.7619 53L27.3158 51.343L27.3385 51.3369L27.3957 51.1243L27.7619 51.2229L28.1281 51.1243L28.1853 51.3369ZM24.6388 41.4008L23.7465 38.0868L24.5589 37.8681L25.4512 41.1821L24.6388 41.4008ZM22.8542 34.7727L22.4081 33.1157L20.7511 32.6696L20.9698 31.8572L23.0945 32.4293L23.6666 34.554L22.8542 34.7727ZM17.437 31.7773L14.123 30.885L14.3417 30.0726L17.6557 30.9649L17.437 31.7773ZM10.8089 29.9927L7.49488 29.1004L7.7136 28.288L11.0277 29.1803L10.8089 29.9927ZM4.18695 28.1853L4.18083 28.2081L2.52381 27.7619L4.18083 27.3158L4.18695 27.3385L4.39955 27.3957L4.30096 27.7619L4.39955 28.1281L4.18695 28.1853ZM7.49488 26.4235L10.8089 25.5312L11.0276 26.3435L7.7136 27.2358L7.49488 26.4235ZM14.123 24.6388L17.437 23.7465L17.6557 24.5589L14.3417 25.4512L14.123 24.6388ZM20.7511 22.8542L22.4081 22.4081L22.8542 20.7511L23.6666 20.9698L23.0945 23.0945L20.9698 23.6666L20.7511 22.8542ZM23.7465 17.437L24.6388 14.123L25.4512 14.3417L24.5589 17.6557L23.7465 17.437ZM25.5312 10.8089L26.4235 7.49488L27.2358 7.7136L26.3435 11.0277L25.5312 10.8089Z" fill="white" fill-opacity="0.4"/>
</svg>
