<svg width="236" height="47" viewBox="0 0 236 47" fill="none" xmlns="http://www.w3.org/2000/svg">
<path fill-rule="evenodd" clip-rule="evenodd" d="M76.6582 9.86914H76.7505C77.2117 9.86914 77.4885 10.2476 77.4885 10.7208V32.6734C77.4885 33.052 77.2117 33.4305 76.7505 33.4305C76.3816 33.4305 76.0126 33.1465 76.0126 32.6734V10.6261C76.0126 10.2476 76.2894 9.86914 76.6582 9.86914ZM56.4594 11.0049H70.3866C70.8479 11.0049 71.1245 11.478 71.1245 11.8565C71.1245 12.235 70.8479 12.6135 70.3866 12.6135H57.1973V21.7919H69.0954C69.4643 21.7919 69.8332 22.0759 69.8332 22.549C69.8332 22.9275 69.5565 23.306 69.0954 23.306H57.2894V32.7684C57.1973 33.2415 56.8283 33.62 56.3671 33.62C55.906 33.62 55.5371 33.2415 55.5371 32.7684V11.8565H55.6294C55.6294 11.3834 55.9983 11.0049 56.4594 11.0049ZM96.858 17.8176C96.858 17.3445 96.4889 17.0606 96.12 17.0606C95.6589 17.0606 95.3821 17.4391 95.3821 17.8176V26.9962C95.3821 30.1188 92.8918 32.5789 89.8482 32.4843C86.62 32.4843 84.7754 30.3079 84.7754 26.9015V17.8176C84.7754 17.3445 84.4064 17.0606 84.0375 17.0606C83.6686 17.0606 83.2995 17.4391 83.2995 17.8176V27.1854C83.2995 31.065 85.6977 33.9036 89.6637 33.9036C92.0618 33.9983 94.3676 32.6736 95.4744 30.4973V32.8628C95.4744 33.3359 95.8434 33.6198 96.2123 33.6198C96.6735 33.6198 96.9503 33.2413 96.9503 32.8628H96.858V17.8176ZM110.877 17.9116C110.877 18.2901 110.508 18.5739 110.139 18.5739H105.067V29.0773C105.067 31.4428 106.358 32.2944 108.295 32.2944C108.94 32.2944 109.586 32.1998 110.139 32.0105C110.508 32.0105 110.785 32.2944 110.785 32.6729C110.785 32.9568 110.601 33.2406 110.324 33.3352C109.586 33.6191 108.756 33.7137 108.018 33.7137C105.62 33.7137 103.591 32.2944 103.591 29.2664V18.5739H101.839C101.469 18.5739 101.101 18.1955 101.101 17.817C101.101 17.4385 101.469 17.1546 101.839 17.1546H103.591V12.6127C103.591 12.2342 103.868 11.8557 104.236 11.8557H104.329C104.698 11.8557 105.067 12.2342 105.067 12.6127V17.1546H110.139C110.508 17.1546 110.877 17.5331 110.877 17.9116ZM122.683 18.5739C123.052 18.5739 123.421 18.2901 123.421 17.9116C123.421 17.5331 123.052 17.1546 122.683 17.1546H117.61V12.6127C117.61 12.2342 117.241 11.8557 116.872 11.8557H116.78C116.411 11.8557 116.134 12.2342 116.134 12.6127V17.1546H114.382C114.013 17.1546 113.644 17.4385 113.644 17.817C113.644 18.1955 114.013 18.5739 114.382 18.5739H116.134V29.2664C116.134 32.2944 118.163 33.7137 120.562 33.7137C121.299 33.7137 122.13 33.6191 122.867 33.3352C123.144 33.2406 123.329 32.9568 123.329 32.6729C123.329 32.2944 123.052 32.0105 122.683 32.0105C122.13 32.1998 121.484 32.2944 120.838 32.2944C118.901 32.2944 117.61 31.4428 117.61 29.0773V18.5739H122.683ZM126.188 25.2928C126.188 20.4668 129.417 16.682 133.752 16.682C138.271 16.682 141.13 20.4668 141.13 25.2928C141.13 25.6711 140.761 26.0497 140.392 26.0497H127.849C128.125 30.1186 130.985 32.4841 134.12 32.4841C136.057 32.4841 137.994 31.6325 139.286 30.2132C139.378 30.1186 139.562 30.0238 139.747 30.0238C140.116 30.0238 140.485 30.4023 140.485 30.7809C140.485 30.9702 140.392 31.1594 140.208 31.3487C138.64 33.1465 136.334 34.0927 134.028 33.9982C129.786 33.9982 126.188 30.5917 126.188 25.3874V25.2928ZM127.756 24.5354C128.033 20.9396 130.523 18.1956 133.659 18.1956C137.256 18.1956 139.193 21.2235 139.377 24.5354H127.756ZM147.125 21.8865C148.14 19.1425 150.63 17.1554 153.489 16.9661C153.95 16.9661 154.319 17.3446 154.319 17.9123C154.319 18.2908 154.042 18.764 153.581 18.764H153.489C150.076 19.1425 147.125 21.6973 147.125 26.9962V33.0521C147.033 33.5252 146.756 33.8092 146.295 33.8092C145.926 33.8092 145.557 33.4307 145.557 33.0521V17.9123C145.649 17.4392 145.926 17.1554 146.387 17.1554C146.756 17.1554 147.125 17.5339 147.125 17.9123V21.8865ZM178.669 16.1146C177.562 16.1146 176.64 16.8716 176.363 18.007L173.689 26.807L171.014 18.007C170.737 16.8716 169.723 16.02 168.524 16.02H168.247C167.048 16.02 166.033 16.7769 165.757 18.007L163.082 26.7125L160.499 17.9124C160.222 16.8716 159.3 16.02 158.193 16.02H158.101C156.902 16.02 155.98 17.0608 155.98 18.2909C155.98 18.6694 156.072 19.0479 156.164 19.4262V19.4264L160.315 31.6328C160.592 32.863 161.606 33.7146 162.897 33.8092H163.082C164.281 33.8092 165.295 32.9576 165.664 31.7274L168.339 23.0221L171.014 31.7274C171.291 32.9576 172.397 33.8092 173.596 33.8092H173.781C175.072 33.8092 176.179 32.9576 176.456 31.6328L180.606 19.3318C180.699 19.0479 180.79 18.6694 180.79 18.3855V18.2909C180.79 17.0608 179.868 16.1146 178.669 16.1146ZM185.125 16.9655C186.878 16.3978 188.63 16.0193 190.474 16.1139C193.056 16.1139 194.901 16.8709 196.284 18.101C197.576 19.6149 198.222 21.602 198.13 23.5892V31.3484C198.13 32.6731 197.114 33.7139 195.824 33.7139C194.625 33.7139 193.609 32.8623 193.518 31.6321C192.226 33.0514 190.383 33.903 188.444 33.8085C185.402 33.8085 182.727 31.9161 182.727 28.5096C182.727 24.7246 185.493 22.9268 189.46 22.9268C190.843 22.9268 192.226 23.1161 193.518 23.5892V23.3053C193.518 21.2235 192.319 20.1827 189.92 20.1827C188.814 20.1827 187.707 20.2773 186.601 20.6558C186.415 20.7504 186.139 20.7504 185.955 20.7504C184.848 20.845 183.926 19.9934 183.926 18.858C183.926 18.0064 184.386 17.2494 185.125 16.9655ZM193.611 27.3742C193.611 29.2666 192.042 30.4022 189.829 30.3076C188.353 30.3076 187.247 29.5505 187.247 28.2258V28.1312C187.247 26.7118 188.537 25.7655 190.566 25.7655C191.582 25.7655 192.688 26.0495 193.611 26.428V27.3742ZM212.333 17.7232C212.61 16.6823 213.533 16.02 214.546 16.02C215.838 16.02 216.854 17.0608 216.854 18.2909V18.3855C216.854 18.764 216.761 19.1425 216.575 19.521L211.596 31.7274C211.134 32.9576 210.028 33.7146 208.828 33.8092H208.552C207.261 33.7146 206.246 32.863 205.877 31.6328L200.712 19.4264C200.528 19.0479 200.435 18.6694 200.435 18.2909C200.528 16.9662 201.542 16.02 202.741 16.02C203.847 16.02 204.77 16.7769 205.047 17.8178L208.645 27.7533L212.333 17.7232ZM226.999 15.9254C222.111 15.9254 218.699 19.9943 218.699 24.9146V25.6717C218.883 30.4029 222.848 34.0931 227.46 33.8094C229.582 33.8094 231.611 33.1469 233.27 31.7276C233.733 31.3491 233.917 30.876 233.917 30.3083V30.2135C233.917 29.1727 233.087 28.3211 232.073 28.3211C231.704 28.3211 231.241 28.4157 230.965 28.6996C229.951 29.4567 228.752 29.9298 227.553 29.8352C225.523 29.9298 223.771 28.5103 223.494 26.4287H232.994C234.193 26.3339 235.116 25.2932 235.023 24.063V23.6845C235.023 19.4266 231.427 15.8308 226.999 15.9254ZM226.999 19.899C225.061 19.899 223.771 21.3183 223.402 23.5892H230.504C230.228 21.4129 228.936 19.899 226.999 19.899Z" fill="white"/>
<path fill-rule="evenodd" clip-rule="evenodd" d="M34.0473 1.17232C54.9207 -1.84468 41.5618 15.2812 35.0677 20.0729C39.5207 23.3562 44.0665 27.9704 46.0148 33.2057C49.6329 42.7893 40.7268 44.209 34.0473 41.8131C26.7182 39.3286 20.2242 34.0043 15.9568 27.793C14.7507 27.793 13.4519 27.6154 12.2459 27.2606C14.6579 33.8269 15.6784 40.5708 15.029 46.0724C15.029 34.9805 9.55553 23.9773 1.66992 14.8376C-1.11321 11.6431 1.76272 9.24724 4.26754 12.353C5.95372 14.6022 7.5025 16.9428 8.90612 19.3631C11.5965 10.3121 24.9556 2.41461 34.0473 1.17232ZM31.0789 17.4994C35.1607 15.1035 47.5922 2.23687 35.9957 3.39043C29.3163 4.10031 21.2452 10.0456 17.9053 13.8612C22.5438 13.3288 27.2752 15.281 31.0789 17.4994ZM17.8124 16.7011C20.9666 16.4349 24.3993 18.0321 26.9968 19.6294C24.4919 20.783 21.7088 21.4927 18.8329 21.6703C14.5654 21.6703 13.7305 17.056 17.8124 16.7011ZM19.5744 27.4376C23.2853 31.4307 28.3877 35.3351 33.8613 36.755C37.0155 37.5536 40.5408 37.1986 39.242 32.8506C37.9431 28.8575 34.6034 25.3081 31.3564 22.646C30.4286 23.2672 29.4082 23.8882 28.3877 24.3321C25.6046 25.8404 22.6359 26.9053 19.5744 27.4376Z" fill="white"/>
</svg>
