<svg width="110" height="47" viewBox="0 0 110 47" fill="none" xmlns="http://www.w3.org/2000/svg">
<mask id="mask0_180_1497" style="mask-type:luminance" maskUnits="userSpaceOnUse" x="0" y="0" width="110" height="47">
<path d="M0.123047 0.818359H109.09V46.0179H0.123047V0.818359Z" fill="white"/>
</mask>
<g mask="url(#mask0_180_1497)">
<path fill-rule="evenodd" clip-rule="evenodd" d="M11.4987 21.1502C9.15035 20.2816 7.86337 19.606 7.86337 18.5444C7.86337 17.6435 8.60337 17.1288 9.92245 17.1288C12.3352 17.1288 14.8122 18.0619 16.5173 18.8981L17.4824 12.9467C16.1313 12.3032 13.3645 11.2416 9.5364 11.2416C6.83407 11.2416 4.58198 11.9493 2.97361 13.2684C1.30058 14.6516 0.431976 16.6463 0.431976 19.0591C0.431976 23.4342 3.10221 25.3002 7.44523 26.8765C10.2441 27.8737 11.1771 28.5816 11.1771 29.6754C11.1771 30.737 10.2762 31.3481 8.63546 31.3481C6.60872 31.3481 3.26314 30.3509 1.07547 29.0642L0.110352 35.08C1.97616 36.1416 5.45058 37.2354 9.05384 37.2354C11.9169 37.2354 14.2976 36.5598 15.9062 35.273C17.7076 33.8574 18.6406 31.7665 18.6406 29.0642C18.6406 24.5923 15.9062 22.7265 11.4987 21.1502ZM34.352 17.6435L35.3171 11.7242H30.222V4.5384L23.3716 5.66566L22.3823 11.7242L19.9729 12.1151L19.071 17.6435H22.3724V29.2572C22.3724 32.2812 23.1445 34.3723 24.7208 35.6591C26.0399 36.7207 27.9378 37.2354 30.608 37.2354C32.6669 37.2354 33.9215 36.8816 34.7901 36.6563V30.383C34.3076 30.5119 33.2138 30.737 32.4738 30.737C30.8976 30.737 30.222 29.9328 30.222 28.0991V17.6435H34.352ZM49.6529 11.3784C47.401 11.3784 45.5994 12.5607 44.8917 14.684L44.4092 11.7242H37.4283V36.7528H45.4064V20.5067C46.4038 19.2842 47.8192 18.8422 49.7494 18.8422C50.1678 18.8422 50.618 18.8422 51.165 18.9387V11.5714C50.618 11.4428 50.1355 11.3784 49.6529 11.3784ZM57.1166 9.24696C59.4329 9.24696 61.2987 7.34906 61.2987 5.03278C61.2987 2.68417 59.4329 0.818359 57.1166 0.818359C54.768 0.818359 52.9022 2.68417 52.9022 5.03278C52.9022 7.34906 54.768 9.24696 57.1166 9.24696ZM53.0952 11.7242H61.1057V36.7528H53.0952V11.7242ZM83.8059 13.976C82.3904 12.1423 80.428 11.2416 77.9187 11.2416C75.6025 11.2416 73.5757 12.2067 71.6776 14.2335L71.2594 11.7242H64.2462V46.0179L72.2246 44.6991V36.6563C73.4469 37.0423 74.7015 37.2354 75.8276 37.2354C77.8222 37.2354 80.7176 36.7207 82.9694 34.2758C85.1248 31.9272 86.2187 28.2921 86.2187 23.4986C86.2187 19.2521 85.4143 16.0351 83.8059 13.976ZM77.1787 29.4179C76.5352 30.6405 75.538 31.284 74.3799 31.284C73.5757 31.284 72.8678 31.123 72.2246 30.8014V18.8981C73.5757 17.4828 74.798 17.3219 75.2485 17.3219C77.2752 17.3219 78.2725 19.5095 78.2725 23.7881C78.2725 26.233 77.9187 28.1312 77.1787 29.4179ZM109.092 24.0133C109.092 20.0242 108.223 16.8714 106.518 14.6516C104.781 12.3998 102.175 11.2416 98.8618 11.2416C92.0736 11.2416 87.8594 16.2602 87.8594 24.3028C87.8594 28.8067 88.9852 32.1847 91.205 34.34C93.1997 36.2702 96.0629 37.2354 99.7625 37.2354C103.172 37.2354 106.325 36.4312 108.32 35.1121L107.451 29.6433C105.489 30.7049 103.205 31.284 100.631 31.284C99.0869 31.284 98.0252 30.9621 97.2532 30.2865C96.4166 29.5788 95.9341 28.4207 95.7734 26.78H108.995C109.028 26.394 109.092 24.5923 109.092 24.0133ZM95.709 21.89C95.9341 18.3191 96.8992 16.6463 98.7329 16.6463C100.535 16.6463 101.468 18.3514 101.596 21.89H95.709Z" fill="white"/>
</g>
</svg>
