<svg width="36" height="35" viewBox="0 0 36 35" fill="none" xmlns="http://www.w3.org/2000/svg">
<path d="M26.3235 8.75366C26.3235 3.91912 22.3954 0.000107253 17.5473 0.000107253C12.6991 0.000107253 8.76953 3.91912 8.76953 8.75366H26.3235Z" fill="#563AEF"/>
<path d="M8.5 26.2467C8.5 31.082 12.4288 35.0002 17.277 35.0002C22.1236 35.0002 26.0532 31.082 26.0532 26.2467H8.5Z" fill="#563AEF"/>
<path d="M26.0461 26.2C30.8935 26.2 35.3625 22.281 35.3625 17.4464C35.3625 12.6119 30.8935 8.69361 26.0461 8.69361H8.77697C3.92958 8.69361 0 12.6119 0 17.4464C0 22.281 3.92958 26.2 8.77697 26.2H26.0461Z" fill="#563AEF"/>
<path d="M8.76953 8.70055C8.76953 13.5343 12.6991 17.4541 17.5473 17.4541C22.3954 17.4541 26.3235 13.5343 26.3235 8.70055H8.76953Z" fill="white"/>
<path d="M26.0532 26.1934C26.0532 21.3588 22.1236 17.4391 17.277 17.4391C12.4288 17.4391 8.5 21.3588 8.5 26.1934H26.0532Z" fill="white"/>
</svg>
