<svg width="43" height="43" viewBox="0 0 43 43" fill="none" xmlns="http://www.w3.org/2000/svg">
<path d="M31.8287 10.584C31.8287 4.73835 27.0791 -0.000270911 21.217 -0.000270911C15.3549 -0.000270911 10.6035 4.73835 10.6035 10.584H31.8287Z" fill="#FC5D19"/>
<path d="M10.2773 31.7351C10.2773 37.5816 15.0278 42.3193 20.8899 42.3193C26.7502 42.3193 31.5016 37.5816 31.5016 31.7351H10.2773Z" fill="#FC5D19"/>
<path d="M31.4934 31.6787C37.3545 31.6787 42.7581 26.9401 42.7581 21.0945C42.7581 15.2488 37.3545 10.5111 31.4934 10.5111H10.6126C4.75141 10.5111 0 15.2488 0 21.0945C0 26.9401 4.75141 31.6787 10.6126 31.6787H31.4934Z" fill="#FC5D19"/>
<path d="M10.6035 10.5193C10.6035 16.364 15.3549 21.1035 21.217 21.1035C27.0791 21.1035 31.8287 16.364 31.8287 10.5193H10.6035Z" fill="#F9F8F4"/>
<path d="M31.5016 31.6699C31.5016 25.8243 26.7502 21.0848 20.8899 21.0848C15.0278 21.0848 10.2773 25.8243 10.2773 31.6699H31.5016Z" fill="#F9F8F4"/>
</svg>
