<svg width="110" height="73" viewBox="0 0 110 73" fill="none" xmlns="http://www.w3.org/2000/svg">
<path d="M107.625 71.1542L98.4641 52.1052C97.3599 49.8091 94.7059 48.7105 92.302 49.5543L77.1592 54.8699C74.5788 55.7757 71.7495 54.4404 70.8085 51.8727L65.1813 36.5186C64.2971 34.1059 61.728 32.7562 59.2395 33.3972L44.0138 37.3188C41.4999 37.9663 38.9087 36.5823 38.0489 34.1329L33.6865 21.7054C32.7893 19.1495 30.0199 17.7729 27.4407 18.6007L11.7249 23.6448C9.17101 24.4645 6.42525 23.123 5.50227 20.6045L-0.227375 4.97079C-1.08722 2.62463 -3.54712 1.27346 -5.98839 1.80637L-27.1345 6.42247" stroke="#FC5D19" stroke-opacity="0.32" stroke-width="3" stroke-linecap="round"/>
</svg>
