<svg width="168" height="169" viewBox="0 0 168 169" fill="none" xmlns="http://www.w3.org/2000/svg">
<path d="M165.735 30.83C143.233 8.28011 118.184 -3.20751 109.788 5.17145C101.391 13.5504 112.826 38.6231 135.329 61.173C147.94 73.8105 161.044 81.18 164.599 77.6331C168.153 74.0861 160.811 60.9659 148.2 48.3284C125.698 25.7785 100.649 14.2909 92.2526 22.6698C83.856 31.0488 95.2907 56.1216 117.793 78.6715C130.404 91.3091 143.509 98.6785 147.064 95.1314C150.618 91.5845 143.276 78.4643 130.665 65.8268C108.162 43.2768 83.0722 31.831 74.6241 40.2613C66.1761 48.6916 77.569 73.8061 100.072 96.356C112.683 108.994 125.787 116.363 129.342 112.816C132.896 109.269 125.554 96.1491 112.943 83.5115C90.4405 60.9616 65.3923 49.4737 56.9956 57.8527C48.599 66.2318 60.0341 91.3041 82.5367 113.854C95.1477 126.492 108.252 133.861 111.806 130.314C115.361 126.767 108.019 113.647 95.4082 101.01C72.9057 78.4596 47.8569 66.9723 39.4602 75.3513C31.0636 83.7303 42.4988 108.803 65.0013 131.353C77.6123 143.99 90.7171 151.359 94.2711 147.813C97.8256 144.266 90.4838 131.146 77.8728 118.508C55.3703 95.9581 30.3215 84.4708 21.9254 92.8493C13.5288 101.228 24.9634 126.301 47.466 148.851C60.0769 161.489 73.1818 168.858 76.7363 165.311C80.2903 161.764 72.9485 148.644 60.3375 136.007C37.8349 113.457 12.7449 102.01 4.29689 110.441C-4.15116 118.871 7.24172 143.986 29.7443 166.536" stroke="#F34141" stroke-opacity="0.1" stroke-width="3" stroke-linecap="round"/>
</svg>
