<svg width="75" height="79" viewBox="0 0 75 79" fill="none" xmlns="http://www.w3.org/2000/svg">
<path d="M39.7129 41.6662C39.7848 42.4736 38.2792 42.9158 37.4988 41.6662C36.6553 40.5624 37.2755 37.9991 39.7129 37.259C42.0086 36.3829 45.6411 38.0647 46.355 41.6662C47.2647 45.1292 44.5178 49.801 39.7129 50.4811C35.0572 51.4171 29.288 47.6266 28.6426 41.6662C27.6644 35.8513 32.5479 29.0571 39.7129 28.4441C46.7389 27.441 54.6265 33.3524 55.2112 41.6662C56.2517 49.8345 49.2481 58.7501 39.7129 59.2957C30.3184 60.366 20.3052 52.3322 19.7865 41.6662C18.6816 31.139 27.8091 20.1135 39.7129 19.6295C51.4664 18.4989 63.6178 28.6413 64.0674 41.6662C65.2398 54.5456 53.98 67.6936 39.7129 68.1103C25.5893 69.3082 11.3183 57.0445 10.9303 41.6662C9.69747 26.4336 23.0761 11.1659 39.7129 10.8147C56.201 9.54989 72.6032 23.9361 72.9236 41.6662C74.2253 59.2579 58.713 76.6355 39.7129 76.9252C20.8619 78.2516 2.32714 61.7553 2.07412 41.6662C0.710554 21.7226 18.3456 2.22246 39.7129 2" stroke="#143134" stroke-opacity="0.05" stroke-width="3" stroke-linecap="round"/>
</svg>
