<svg width="94" height="98" viewBox="0 0 94 98" fill="none" xmlns="http://www.w3.org/2000/svg">
<path d="M33.7939 1.84371C33.7939 2.91921 33.0257 3.68742 31.9502 3.68742C30.8747 3.68742 30.1064 2.91921 30.1064 1.84371C30.1064 0.768214 30.8747 0 31.9502 0C33.0257 0 33.7939 0.768214 33.7939 1.84371Z" fill="white"/>
<path d="M47.0576 3.68742C48.0758 3.68742 48.9013 2.86197 48.9013 1.84371C48.9013 0.825458 48.0758 0 47.0576 0C46.0393 0 45.2139 0.825458 45.2139 1.84371C45.2139 2.86197 46.0393 3.68742 47.0576 3.68742Z" fill="white"/>
<path d="M62.0507 3.68742C63.069 3.68742 63.8945 2.86197 63.8945 1.84371C63.8945 0.825458 63.069 0 62.0507 0C61.0325 0 60.207 0.825458 60.207 1.84371C60.207 2.86197 61.0325 3.68742 62.0507 3.68742Z" fill="white"/>
<path d="M18.7978 15.1972C18.7978 16.2727 18.0296 17.0409 16.9541 17.0409C15.8786 17.0409 15.1104 16.2727 15.1104 15.1972C15.1104 14.1217 15.8786 13.3535 16.9541 13.3535C17.8759 13.3535 18.7978 14.2754 18.7978 15.1972Z" fill="white"/>
<path d="M33.7939 15.1972C33.7939 16.2727 33.0257 17.0409 31.9502 17.0409C30.8747 17.0409 30.1064 16.2727 30.1064 15.1972C30.1064 14.1217 30.8747 13.3535 31.9502 13.3535C33.0257 13.3535 33.7939 14.2754 33.7939 15.1972Z" fill="white"/>
<path d="M48.9013 15.1972C48.9013 16.2727 48.1331 17.0409 47.0576 17.0409C45.9821 17.0409 45.2139 16.2727 45.2139 15.1972C45.2139 14.1217 45.9821 13.3535 47.0576 13.3535C47.9794 13.3535 48.9013 14.2754 48.9013 15.1972Z" fill="white"/>
<path d="M63.8945 15.1972C63.8945 16.2727 63.1262 17.0409 62.0507 17.0409C60.9752 17.0409 60.207 16.2727 60.207 15.1972C60.207 14.1217 60.9752 13.3535 62.0507 13.3535C63.1262 13.3535 63.8945 14.2754 63.8945 15.1972Z" fill="white"/>
<path d="M79.0019 15.1972C79.0019 16.2727 78.2337 17.0409 77.1582 17.0409C76.0827 17.0409 75.3145 16.2727 75.3145 15.1972C75.3145 14.1217 76.0827 13.3535 77.1582 13.3535C78.08 13.3535 79.0019 14.2754 79.0019 15.1972Z" fill="white"/>
<path d="M18.7978 28.5581C18.7978 29.6288 18.0296 30.3935 16.9541 30.3935C15.8786 30.3935 15.1104 29.6288 15.1104 28.5581C15.1104 27.4875 15.8786 26.7228 16.9541 26.7228C17.8759 26.5698 18.7978 27.4875 18.7978 28.5581Z" fill="white"/>
<path d="M33.7939 28.5581C33.7939 29.6288 33.0257 30.3935 31.9502 30.3935C30.8747 30.3935 30.1064 29.6288 30.1064 28.5581C30.1064 27.4875 30.8747 26.7228 31.9502 26.7228C33.0257 26.5698 33.7939 27.4875 33.7939 28.5581Z" fill="white"/>
<path d="M47.0576 30.4062C48.0758 30.4062 48.9013 29.5807 48.9013 28.5625C48.9013 27.5442 48.0758 26.7188 47.0576 26.7188C46.0393 26.7188 45.2139 27.5442 45.2139 28.5625C45.2139 29.5807 46.0393 30.4062 47.0576 30.4062Z" fill="white"/>
<path d="M62.0507 30.4062C63.069 30.4062 63.8945 29.5807 63.8945 28.5625C63.8945 27.5442 63.069 26.7188 62.0507 26.7188C61.0325 26.7188 60.207 27.5442 60.207 28.5625C60.207 29.5807 61.0325 30.4062 62.0507 30.4062Z" fill="white"/>
<path d="M79.0019 28.5581C79.0019 29.6288 78.2337 30.3935 77.1582 30.3935C76.0827 30.3935 75.3145 29.6288 75.3145 28.5581C75.3145 27.4875 76.0827 26.7228 77.1582 26.7228C78.08 26.5698 79.0019 27.4875 79.0019 28.5581Z" fill="white"/>
<path d="M3.68743 41.917C3.68743 42.9925 2.91922 43.7607 1.84371 43.7607C0.768215 43.7607 0 42.9925 0 41.917C0 40.8415 0.768215 40.0732 1.84371 40.0732C2.91922 40.0732 3.68743 40.8415 3.68743 41.917Z" fill="white"/>
<path d="M18.7978 41.917C18.7978 42.9925 18.0296 43.7607 16.9541 43.7607C15.8786 43.7607 15.1104 42.9925 15.1104 41.917C15.1104 40.8415 15.8786 40.0732 16.9541 40.0732C17.8759 40.0732 18.7978 40.8415 18.7978 41.917Z" fill="white"/>
<path d="M33.7939 41.917C33.7939 42.9925 33.0257 43.7607 31.9502 43.7607C30.8747 43.7607 30.1064 42.9925 30.1064 41.917C30.1064 40.8415 30.8747 40.0732 31.9502 40.0732C33.0257 40.0732 33.7939 40.8415 33.7939 41.917Z" fill="white"/>
<path d="M48.9013 41.917C48.9013 42.9925 48.1331 43.7607 47.0576 43.7607C45.9821 43.7607 45.2139 42.9925 45.2139 41.917C45.2139 40.8415 45.9821 40.0732 47.0576 40.0732C47.9794 40.0732 48.9013 40.8415 48.9013 41.917Z" fill="white"/>
<path d="M63.8945 41.917C63.8945 42.9925 63.1262 43.7607 62.0507 43.7607C60.9752 43.7607 60.207 42.9925 60.207 41.917C60.207 40.8415 60.9752 40.0732 62.0507 40.0732C63.1262 40.0732 63.8945 40.8415 63.8945 41.917Z" fill="white"/>
<path d="M79.0019 41.917C79.0019 42.9925 78.2337 43.7607 77.1582 43.7607C76.0827 43.7607 75.3145 42.9925 75.3145 41.917C75.3145 40.8415 76.0827 40.0732 77.1582 40.0732C78.08 40.0732 79.0019 40.8415 79.0019 41.917Z" fill="white"/>
<path d="M93.998 41.917C93.998 42.9925 93.2298 43.7607 92.1543 43.7607C91.0788 43.7607 90.3105 42.9925 90.3105 41.917C90.3105 40.8415 91.0788 40.0732 92.1543 40.0732C93.2298 40.0732 93.998 40.8415 93.998 41.917Z" fill="white"/>
<path d="M1.84371 57.1142C2.86197 57.1142 3.68743 56.2887 3.68743 55.2705C3.68743 54.2522 2.86197 53.4268 1.84371 53.4268C0.825459 53.4268 0 54.2522 0 55.2705C0 56.2887 0.825459 57.1142 1.84371 57.1142Z" fill="white"/>
<path d="M18.7978 55.2705C18.7978 56.346 18.0296 57.1142 16.9541 57.1142C15.8786 57.1142 15.1104 56.346 15.1104 55.2705C15.1104 54.195 15.8786 53.4268 16.9541 53.4268C17.8759 53.4268 18.7978 54.195 18.7978 55.2705Z" fill="white"/>
<path d="M33.7939 55.2705C33.7939 56.346 33.0257 57.1142 31.9502 57.1142C30.8747 57.1142 30.1064 56.346 30.1064 55.2705C30.1064 54.195 30.8747 53.4268 31.9502 53.4268C33.0257 53.4268 33.7939 54.195 33.7939 55.2705Z" fill="white"/>
<path d="M47.0576 57.1142C48.0758 57.1142 48.9013 56.2887 48.9013 55.2705C48.9013 54.2522 48.0758 53.4268 47.0576 53.4268C46.0393 53.4268 45.2139 54.2522 45.2139 55.2705C45.2139 56.2887 46.0393 57.1142 47.0576 57.1142Z" fill="white"/>
<path d="M62.0507 57.1142C63.069 57.1142 63.8945 56.2887 63.8945 55.2705C63.8945 54.2522 63.069 53.4268 62.0507 53.4268C61.0325 53.4268 60.207 54.2522 60.207 55.2705C60.207 56.2887 61.0325 57.1142 62.0507 57.1142Z" fill="white"/>
<path d="M79.0019 55.2705C79.0019 56.346 78.2337 57.1142 77.1582 57.1142C76.0827 57.1142 75.3145 56.346 75.3145 55.2705C75.3145 54.195 76.0827 53.4268 77.1582 53.4268C78.08 53.4268 79.0019 54.195 79.0019 55.2705Z" fill="white"/>
<path d="M92.1543 57.1142C93.1725 57.1142 93.998 56.2887 93.998 55.2705C93.998 54.2522 93.1725 53.4268 92.1543 53.4268C91.136 53.4268 90.3105 54.2522 90.3105 55.2705C90.3105 56.2887 91.136 57.1142 92.1543 57.1142Z" fill="white"/>
<path d="M18.7978 68.622C18.7978 69.6975 18.0296 70.4657 16.9541 70.4657C15.8786 70.4657 15.1104 69.6975 15.1104 68.622C15.1104 67.5465 15.8786 66.7783 16.9541 66.7783C17.8759 66.7783 18.7978 67.5465 18.7978 68.622Z" fill="white"/>
<path d="M33.7939 68.622C33.7939 69.6975 33.0257 70.4657 31.9502 70.4657C30.8747 70.4657 30.1064 69.6975 30.1064 68.622C30.1064 67.5465 30.8747 66.7783 31.9502 66.7783C33.0257 66.7783 33.7939 67.5465 33.7939 68.622Z" fill="white"/>
<path d="M47.0576 70.4657C48.0758 70.4657 48.9013 69.6403 48.9013 68.622C48.9013 67.6038 48.0758 66.7783 47.0576 66.7783C46.0393 66.7783 45.2139 67.6038 45.2139 68.622C45.2139 69.6403 46.0393 70.4657 47.0576 70.4657Z" fill="white"/>
<path d="M62.0507 70.4657C63.069 70.4657 63.8944 69.6403 63.8944 68.622C63.8944 67.6038 63.069 66.7783 62.0507 66.7783C61.0325 66.7783 60.207 67.6038 60.207 68.622C60.207 69.6403 61.0325 70.4657 62.0507 70.4657Z" fill="white"/>
<path d="M79.0019 68.622C79.0019 69.6975 78.2337 70.4657 77.1582 70.4657C76.0827 70.4657 75.3145 69.6975 75.3145 68.622C75.3145 67.5465 76.0827 66.7783 77.1582 66.7783C78.08 66.7783 79.0019 67.5465 79.0019 68.622Z" fill="white"/>
<path d="M18.7978 81.9755C18.7978 83.051 18.0296 83.8193 16.9541 83.8193C15.8786 83.8193 15.1104 83.051 15.1104 81.9755C15.1104 80.9 15.8786 80.1318 16.9541 80.1318C17.8759 80.1318 18.7978 81.0537 18.7978 81.9755Z" fill="white"/>
<path d="M33.7939 81.9755C33.7939 83.051 33.0257 83.8193 31.9502 83.8193C30.8747 83.8193 30.1064 83.051 30.1064 81.9755C30.1064 80.9 30.8747 80.1318 31.9502 80.1318C33.0257 80.1318 33.7939 81.0537 33.7939 81.9755Z" fill="white"/>
<path d="M48.9013 81.9755C48.9013 83.051 48.1331 83.8193 47.0576 83.8193C45.9821 83.8193 45.2139 83.051 45.2139 81.9755C45.2139 80.9 45.9821 80.1318 47.0576 80.1318C47.9794 80.1318 48.9013 81.0537 48.9013 81.9755Z" fill="white"/>
<path d="M63.8945 81.9755C63.8945 83.051 63.1262 83.8193 62.0507 83.8193C60.9752 83.8193 60.207 83.051 60.207 81.9755C60.207 80.9 60.9752 80.1318 62.0507 80.1318C63.1262 80.1318 63.8945 81.0537 63.8945 81.9755Z" fill="white"/>
<path d="M79.0019 81.9755C79.0019 83.051 78.2337 83.8193 77.1582 83.8193C76.0827 83.8193 75.3145 83.051 75.3145 81.9755C75.3145 80.9 76.0827 80.1318 77.1582 80.1318C78.08 80.1318 79.0019 81.0537 79.0019 81.9755Z" fill="white"/>
<path d="M33.7939 95.3384C33.7939 96.409 33.0257 97.1738 31.9502 97.1738C30.8747 97.1738 30.1064 96.409 30.1064 95.3384C30.1064 94.2678 30.8747 93.5031 31.9502 93.5031C33.0257 93.3501 33.7939 94.2678 33.7939 95.3384Z" fill="white"/>
<path d="M47.0576 97.1864C48.0758 97.1864 48.9013 96.361 48.9013 95.3427C48.9013 94.3245 48.0758 93.499 47.0576 93.499C46.0393 93.499 45.2139 94.3245 45.2139 95.3427C45.2139 96.361 46.0393 97.1864 47.0576 97.1864Z" fill="white"/>
<path d="M62.0507 97.1864C63.069 97.1864 63.8944 96.361 63.8944 95.3427C63.8944 94.3245 63.069 93.499 62.0507 93.499C61.0325 93.499 60.207 94.3245 60.207 95.3427C60.207 96.361 61.0325 97.1864 62.0507 97.1864Z" fill="white"/>
</svg>
