<svg width="247" height="282" viewBox="0 0 247 282" fill="none" xmlns="http://www.w3.org/2000/svg">
<path d="M99.6388 100.864C61.8438 64.0904 87.8782 0 140.611 0C193.344 0 219.378 64.0904 181.583 100.864L140.611 140.729L99.6388 100.864Z" fill="url(#paint0_linear_160_7120)" fill-opacity="0.15"/>
<path d="M99.8732 180.594C62.0782 217.367 88.1126 281.458 140.845 281.458C193.578 281.458 219.613 217.367 181.818 180.594L140.845 140.729L99.8732 180.594Z" fill="url(#paint1_linear_160_7120)" fill-opacity="0.15"/>
<path d="M100.864 181.819C64.0904 219.614 0 193.579 0 140.846C0 88.1136 64.0904 62.0793 100.864 99.8743L140.729 140.846L100.864 181.819Z" fill="url(#paint2_linear_160_7120)" fill-opacity="0.15"/>
<path d="M180.593 181.584C217.367 219.379 281.457 193.344 281.457 140.612C281.457 87.8788 217.367 61.8444 180.593 99.6394L140.728 140.612L180.593 181.584Z" fill="url(#paint3_linear_160_7120)" fill-opacity="0.15"/>
<defs>
<linearGradient id="paint0_linear_160_7120" x1="119.111" y1="-6.11916e-07" x2="140.611" y2="140.729" gradientUnits="userSpaceOnUse">
<stop stop-color="white"/>
<stop offset="0.917117" stop-color="#5356FF"/>
</linearGradient>
<linearGradient id="paint1_linear_160_7120" x1="119.345" y1="281.458" x2="140.845" y2="140.729" gradientUnits="userSpaceOnUse">
<stop stop-color="white"/>
<stop offset="0.917117" stop-color="#5356FF"/>
</linearGradient>
<linearGradient id="paint2_linear_160_7120" x1="-6.11916e-07" y1="162.347" x2="140.729" y2="140.846" gradientUnits="userSpaceOnUse">
<stop stop-color="white"/>
<stop offset="0.917117" stop-color="#5356FF"/>
</linearGradient>
<linearGradient id="paint3_linear_160_7120" x1="281.457" y1="162.112" x2="140.728" y2="140.612" gradientUnits="userSpaceOnUse">
<stop stop-color="white"/>
<stop offset="0.917117" stop-color="#5356FF"/>
</linearGradient>
</defs>
</svg>
