<svg width="86" height="86" viewBox="0 0 86 86" fill="none" xmlns="http://www.w3.org/2000/svg">
<path fill-rule="evenodd" clip-rule="evenodd" d="M49.6397 32.2651L40.9524 0L32.2651 32.2651L0 40.9524L32.2651 49.6397L40.9524 81.9048L42.4487 76.3474L42.8758 77.9337L44.1939 77.5788L43.1555 73.7222L49.6397 49.6397L73.7222 43.1555L77.5788 44.1939L77.9337 42.8758L76.3474 42.4487L81.9048 40.9524L49.6397 32.2651ZM76.3474 42.4487L72.5562 41.4279L72.2013 42.746L73.7222 43.1555L76.3474 42.4487ZM43.1555 73.7222L42.746 72.2013L41.4279 72.5562L42.4487 76.3474L43.1555 73.7222ZM45.7716 6.78399L45.7347 6.79392L45.6418 7.1389L45.0476 6.97891L44.4534 7.1389L44.3605 6.79392L44.3237 6.78399L45.0476 4.09524L45.7716 6.78399ZM47.2194 12.1615L48.6673 17.539L47.3492 17.8939L45.9013 12.5164L47.2194 12.1615ZM50.1152 22.9165L51.5631 28.294L50.245 28.6489L48.7971 23.2714L50.1152 22.9165ZM53.011 33.6716L53.7349 36.3603L56.4237 37.0843L56.0688 38.4024L52.6211 37.4741L51.6929 34.0265L53.011 33.6716ZM61.8012 38.5321L67.1787 39.98L66.8238 41.2982L61.4463 39.8503L61.8012 38.5321ZM83.3013 44.3605L83.3112 44.3237L86 45.0476L83.3112 45.7716L83.3013 45.7347L82.9563 45.6418L83.1163 45.0476L82.9563 44.4534L83.3013 44.3605ZM77.9337 47.2194L72.5562 48.6673L72.2013 47.3492L77.5788 45.9013L77.9337 47.2194ZM67.1787 50.1152L61.8012 51.5631L61.4463 50.245L66.8238 48.7971L67.1787 50.1152ZM56.4237 53.011L53.7349 53.7349L53.011 56.4237L51.6929 56.0688L52.6211 52.6211L56.0688 51.6929L56.4237 53.011ZM51.5631 61.8012L50.1152 67.1787L48.7971 66.8238L50.245 61.4463L51.5631 61.8012ZM48.6673 72.5562L47.2194 77.9337L45.9013 77.5788L47.3492 72.2013L48.6673 72.5562ZM45.7347 83.3013L45.7716 83.3112L45.0476 86L44.3237 83.3112L44.3605 83.3013L44.4534 82.9563L45.0476 83.1163L45.6418 82.9563L45.7347 83.3013ZM39.98 67.1787L38.5321 61.8012L39.8503 61.4463L41.2982 66.8238L39.98 67.1787ZM37.0843 56.4237L36.3603 53.7349L33.6716 53.011L34.0265 51.6929L37.4741 52.6211L38.4024 56.0688L37.0843 56.4237ZM28.294 51.5631L22.9165 50.1152L23.2714 48.7971L28.6489 50.245L28.294 51.5631ZM17.539 48.6673L12.1615 47.2194L12.5164 45.9013L17.8939 47.3492L17.539 48.6673ZM6.79392 45.7347L6.78399 45.7716L4.09524 45.0476L6.78399 44.3237L6.79392 44.3605L7.1389 44.4534L6.97891 45.0476L7.1389 45.6418L6.79392 45.7347ZM12.1615 42.8758L17.539 41.4279L17.8939 42.746L12.5164 44.1939L12.1615 42.8758ZM22.9165 39.98L28.294 38.5321L28.6489 39.8503L23.2714 41.2982L22.9165 39.98ZM33.6716 37.0843L36.3603 36.3603L37.0843 33.6716L38.4024 34.0265L37.4741 37.4741L34.0265 38.4024L33.6716 37.0843ZM38.5321 28.294L39.98 22.9165L41.2982 23.2714L39.8503 28.6489L38.5321 28.294ZM41.4279 17.539L42.8758 12.1615L44.1939 12.5164L42.746 17.8939L41.4279 17.539Z" fill="#563AEF" fill-opacity="0.3"/>
</svg>
