<svg width="159" height="159" viewBox="0 0 159 159" fill="none" xmlns="http://www.w3.org/2000/svg">
<path fill-rule="evenodd" clip-rule="evenodd" d="M158.994 79.4941C158.994 79.4941 159.937 42.9639 137.986 21.0135C116.036 -0.936548 79.5059 0.00589382 79.5059 0.00589382C79.5059 0.00589382 79.5007 0.194045 79.5 0.551353C79.5 0.40045 79.4985 0.279727 79.4978 0.190584C79.4963 0.0686843 79.4941 0.00589382 79.4941 0.00589382C79.4941 0.00589382 42.9639 -0.936548 21.0135 21.0135C-0.936548 42.9639 0.00589382 79.4941 0.00589382 79.4941C0.00589382 79.4941 36.5365 80.4363 58.4862 58.4862C78.5497 38.4236 79.4875 6.17973 79.5 0.783522C79.5132 6.17973 80.451 38.4236 100.514 58.4862C122.464 80.4363 158.994 79.4941 158.994 79.4941ZM21.0135 137.986C-0.936548 116.036 0.00589382 79.5059 0.00589382 79.5059C0.00589382 79.5059 36.5365 78.5637 58.4862 100.514C78.5497 120.576 79.4875 152.82 79.5 158.217C79.5132 152.82 80.451 120.576 100.514 100.514C122.464 78.5637 158.994 79.5059 158.994 79.5059C158.994 79.5059 159.937 116.036 137.986 137.986C116.036 159.936 79.5059 158.994 79.5059 158.994C79.5059 158.994 79.5007 158.806 79.5 158.449C79.4993 158.806 79.4941 158.994 79.4941 158.994C79.4941 158.994 42.9639 159.936 21.0135 137.986Z" fill="white" fill-opacity="0.06"/>
</svg>
