<svg width="776" height="776" viewBox="0 0 776 776" fill="none" xmlns="http://www.w3.org/2000/svg">
<g clip-path="url(#clip0_247_627)">
<path d="M472.709 548.163C511.578 619.146 516.387 619.961 510.375 621.314C475.269 629.225 476.617 630.775 474.448 626.691C469.164 616.739 438.976 559.697 432.647 550.38C430.228 546.818 431.627 548.343 464.959 539.519C468.144 538.676 467.97 539.51 472.709 548.163Z" fill="#38A1FF" fill-opacity="0.06"/>
<path d="M469.519 627.965C471.545 631.66 471.774 630.208 439.449 637.816C437.961 638.167 436.901 638.127 436.089 636.547C428.003 620.819 418.894 605.669 410.155 590.305C391.85 558.133 389.63 558.354 394.428 557.229C404.919 554.758 415.385 552.184 425.824 549.507C429.496 548.571 426.334 549.218 469.522 627.964L469.519 627.965Z" fill="#38A1FF" fill-opacity="0.06"/>
<path d="M508.955 496.713C502.741 502.394 494.28 501.359 473.023 508.901C466.864 511.086 482.035 498.936 490.221 488.31C490.935 487.384 491.965 487.136 492.914 486.82C549.909 467.79 542.06 466.456 508.955 496.713Z" fill="#38A1FF" fill-opacity="0.06"/>
<path d="M463.977 516.14C466.622 513.363 498.45 505.87 498.508 505.857C465.995 535.124 467.241 534.403 465.707 534.8C457.222 536.994 448.717 539.114 440.22 541.253C439.441 540.099 440.145 541.178 463.978 516.143L463.977 516.14Z" fill="#38A1FF" fill-opacity="0.06"/>
<path fill-rule="evenodd" clip-rule="evenodd" d="M516.492 618.424C518.303 619.223 522.877 613.758 549.485 589.548C550.772 588.376 551.699 587.578 552.09 586.571C553.831 582.08 544.903 573.453 509.845 509.089C509.532 508.514 509.257 507.973 509.006 507.478C507.579 504.661 506.905 503.33 504.243 505.986C501.903 508.322 499.416 510.509 496.931 512.695C496.122 513.407 495.31 514.12 494.504 514.838C474.562 532.601 470.562 535.101 470.802 537.085C470.86 537.533 471.129 537.955 471.48 538.522C471.979 539.321 503.13 593.461 515.291 616.73C515.732 617.576 516.019 618.214 516.492 618.424ZM522.158 604.789L535.744 591.979C538.004 589.848 537.149 588.381 532.036 579.624C530.799 577.509 529.319 574.971 527.572 571.894C526.393 569.819 523.58 569.398 521.844 571.034L508.258 583.844C505.997 585.975 506.853 587.442 511.966 596.199C513.202 598.314 514.683 600.852 516.43 603.929C517.608 606.005 520.421 606.425 522.158 604.789Z" fill="#38A1FF" fill-opacity="0.06"/>
<path fill-rule="evenodd" clip-rule="evenodd" d="M556.358 582.227C558.44 582.978 562.926 577.082 587.052 555.852L587.056 555.853C590.779 552.577 590.263 551.703 580.052 534.397C573.888 523.95 564.188 507.516 549.757 480.952C549.1 479.757 548.424 478.571 547.729 477.397C546.86 475.912 546.042 474.518 545.323 473.072C544.922 472.269 544.667 471.675 544.231 471.484C542.53 470.729 538.104 476.137 511.709 499.3C511.539 499.449 511.389 499.577 511.28 499.737C510.089 501.469 514.003 506.711 554.614 579.887C555.304 581.131 555.717 581.996 556.358 582.227ZM544.57 514.494L554.302 503.872C555.928 502.099 554.863 500.263 549.87 491.659C548.661 489.575 547.221 487.096 545.534 484.125C544.356 482.05 542.015 481.361 540.771 482.718L531.039 493.34C529.412 495.113 530.477 496.949 535.47 505.553C536.68 507.637 538.12 510.116 539.807 513.087C540.985 515.162 543.326 515.851 544.57 514.494Z" fill="#38A1FF" fill-opacity="0.06"/>
<path fill-rule="evenodd" clip-rule="evenodd" d="M434.883 518.146C418.662 532.791 399.021 550.893 397.877 552.393C428.72 545.234 431.197 543.946 436.583 538.072C445.591 528.244 454.781 518.754 462.472 510.868C462.173 510.949 461.87 511.016 461.565 511.069C460.802 511.239 460.017 511.295 459.237 511.236C458.393 512.896 456.348 514.358 454.805 514.959C453.505 519.894 449.021 522.394 444.21 520.949L434.883 518.146ZM467.317 505.91C467.812 503.849 467.707 501.364 467.46 498.753C467.282 496.859 467.116 495.848 467.069 495.269L467.616 495.103C471.619 493.864 476.339 492.401 481.312 490.565C481.747 491.09 475.99 497.028 467.317 505.91Z" fill="#38A1FF" fill-opacity="0.06"/>
<path fill-rule="evenodd" clip-rule="evenodd" d="M216.233 293.067C275.279 188.859 421.773 176.678 482.77 263.512L482.765 263.515L482.997 263.831C484.752 266.184 485.31 266.931 478.925 343.409C477.844 356.484 476.837 369.565 475.904 382.651C474.32 381.816 472.553 381.389 470.762 381.407C473.122 350.17 475.438 318.931 477.711 287.688C465.991 299.831 449.247 306.612 434.159 298.91C440.836 339.868 447.156 387.819 452.839 431.167C455.231 449.415 457.094 463.152 458.496 473.497L458.494 473.501L458.496 473.503C462.166 500.57 462.689 504.44 461.355 505.253C461.13 505.387 460.858 505.437 460.536 505.499L460.532 505.498L460.409 505.522C460.128 505.597 459.835 505.616 459.547 505.576C457.957 505.22 457.327 500.589 452.766 467.12C451.671 459.074 450.348 449.358 448.729 437.635C440.105 375.17 436.02 342.661 433.875 325.597C431.719 308.439 431.526 306.9 430.657 306.229C430.565 306.159 430.469 306.095 430.37 306.035C423.333 330.333 397.818 339.783 376.675 332.439C376.714 333.578 376.75 333.653 382.257 344.99L382.26 344.995C388.681 358.211 402.532 386.726 432.484 450.058C437.799 461.298 441.818 469.65 444.813 475.875C452.033 490.874 453.32 493.549 452.513 494.576C452.337 494.797 452.063 494.943 451.729 495.119L451.706 495.132C449.115 496.502 414.024 421.588 392.147 374.887C383.11 355.594 376.328 341.114 375.025 338.819C368.234 364.616 351.651 376.71 324.678 375.296C366.401 417.932 394.851 446.853 414.183 466.506C451.089 504.029 454.769 507.769 454.167 508.683C454.099 508.784 453.981 508.851 453.847 508.927C453.72 508.99 453.601 509.071 453.495 509.166C452.142 510.451 451.195 509.412 450.33 508.464C450.192 508.311 450.051 508.161 449.907 508.014C335.055 392.18 319.922 376.276 317.841 374.092C317.518 373.752 317.512 373.742 317.493 373.743C314.3 400.906 297.078 413.228 271.327 417.411C308.269 436.259 345.24 455.05 382.238 473.786C435.918 500.986 440.556 503.337 440.319 504.976C440.288 505.138 440.234 505.296 440.159 505.443L440.156 505.448C440.088 505.615 440.043 505.789 440.019 505.968C440.006 506.14 439.952 506.307 439.86 506.454C439.016 507.502 433.125 504.484 375.918 475.19C350.232 462.039 314.213 443.592 263.658 417.84C262.392 432.958 255.337 444.019 240.361 450.297C284.022 463.246 327.694 476.158 371.377 489.033L371.383 489.033L371.385 489.035C443.602 510.331 449.454 512.055 449.363 513.363C449.344 513.485 449.303 513.603 449.242 513.71C449.202 513.795 449.157 513.882 449.127 513.978C448.631 515.49 447.4 515.989 445.845 515.521C378.594 495.321 332.678 481.9 301.088 472.664C240.437 454.935 232.587 452.637 227.944 447.466C227.231 446.644 226.556 445.791 225.922 444.907L225.133 443.851C196.844 406.505 192.824 361.827 203.362 324.171C205.783 325.508 208.218 326.821 210.665 328.11C209.826 330.435 209.321 331.942 209.206 332.39C198.473 374.905 210.506 416.781 234.285 443.529C235.562 444.966 236.525 445.181 238.287 444.494C247.66 440.844 252.934 433.68 255.838 424.432C256.426 422.533 256.973 420.62 257.478 418.696C259.15 412.464 259.756 410.207 265.298 410.462C291.443 411.656 309.711 391.739 309.879 372.12C309.935 365.582 312.749 364.259 316.305 365.688C342.231 376.105 367.722 356.68 367.134 331.932C366.928 323.228 370.481 324.56 375.682 326.507C377.743 327.28 380.062 328.148 382.508 328.529C399.56 331.179 419.487 323.444 424.879 300.495C427.313 290.141 427.852 288.723 433.135 291.968C446.698 300.301 462.731 292.971 470.327 283.628L470.329 283.627C479.601 272.223 476.426 268.308 469.804 260.452C436.393 220.824 372.378 199.623 304.599 225.993C302.456 226.827 297.571 229.234 296.465 229.901L297.059 230.359C370.579 249.44 408.201 300.102 396.362 291.349L392.55 288.529C361.302 265.397 340.211 249.784 294.968 235.164C290.25 233.639 286.639 233.894 282.778 236.655C279.543 238.966 277.111 240.386 275.392 241.391C272.143 243.285 271.461 243.685 272.768 245.786C275.371 249.967 277.863 253.952 280.243 257.753C277.827 256.563 275.62 256.478 273.712 257.519C271.267 253.386 269.355 250.046 268.587 248.48C267.552 246.369 267.353 246.538 260.423 252.445C258.826 253.809 256.866 255.478 254.455 257.495C252.784 258.895 252.055 260.617 251.782 262.879C243.58 330.53 258.123 368.069 264.079 383.456C265.996 388.399 267.025 391.053 266.128 391.687C262.592 394.185 243.562 360.956 242.999 302.877C242.846 287.221 244.729 276.578 245.807 270.491C246.102 268.828 246.337 267.507 246.453 266.513C243.696 266.468 228.769 284.377 222.998 297.509C221.999 299.783 221.035 302.015 220.119 304.18C218.047 303.538 216.388 302.949 215.014 302.464C213.77 302.025 212.759 301.667 211.881 301.423C213.233 298.588 214.685 295.801 216.233 293.067ZM469.015 404.445L467.876 419.382C463.103 482.009 462.646 488.008 464.559 488.895C464.778 488.984 465.009 489.041 465.244 489.065L465.256 489.068C468.403 489.571 470.925 453.483 474.101 408.119L474.416 403.661C473.061 404.139 471.124 404.621 469.015 404.445ZM294.547 285.961C295.199 285.022 295.812 284.138 296.384 283.302C306.62 299.354 314.066 310.742 319.7 319.357L319.702 319.36C327.468 331.23 331.796 337.849 335.242 344.178C340.049 353.015 322.344 336.919 293.367 289.85L292.342 288.188C293.21 287.591 293.958 286.835 294.547 285.961Z" fill="white" fill-opacity="0.06"/>
<path d="M528.767 246.33C528.58 258.359 502.092 259.562 500.778 242.759C500.499 239.202 493.844 242.349 489.274 230.152C488.943 229.271 488.68 228.772 487.678 228.569C479.157 226.839 476.242 218.888 476.181 212.328C476.049 197.883 484.091 199.898 481.472 203.495C477.813 208.52 480.133 220.394 485.334 223.617C487.195 224.768 488.585 225.251 488.592 222.114C488.609 215.673 494.568 210.148 499.049 212.48C503.53 214.813 501.509 223.945 494.721 227.187C489.747 229.563 495.745 235.189 498.627 236.879C502.801 239.327 500.049 229.935 508.081 227.455C515.07 225.299 515.186 235.642 506.997 240.059C504.183 241.578 503.807 242.528 505.429 245.368C509.455 252.424 523.555 253.967 526.831 246.105C528.238 242.725 528.775 245.998 528.771 246.331L528.767 246.33ZM498.038 215.959C496.921 214.487 494.342 216.108 493.27 217.597C491.885 219.518 491.257 224.215 492.292 224.246C495.445 224.343 498.377 219.453 498.038 215.959ZM509.603 232.071C510.235 229.216 507.193 229.33 504.596 235.57C503.25 238.804 508.651 236.363 509.603 232.071Z" fill="#38A1FF" fill-opacity="0.06"/>
<path d="M221.17 178.226C215.648 186.009 217.331 201.1 221.93 199.977C222.859 199.751 222.076 191.165 228.594 187.765C236.207 183.792 239.462 195.424 228.99 202.069C228.218 202.56 226.616 202.792 227.286 204.224C228.16 206.093 229.697 207.382 231.839 207.687C233.455 207.918 233.356 206.476 233.623 205.604C234.729 202.01 237.122 199.438 240.078 197.351C243.747 194.757 247.418 197.063 246.245 201.438C242.889 213.951 233.824 207.905 236.936 214.936C239.664 221.107 247.885 222.468 253.451 217.672C254.318 216.925 255.03 216.013 256.25 215.723C255.858 225.572 236.705 229.721 232.894 213.976C231.602 208.636 205.151 204.264 217.574 180.045C218.095 179.032 219.135 178.409 221.175 178.223L221.17 178.226ZM226.649 198.587C228.597 197.115 230.495 195.635 231.334 193.3C231.602 192.556 232.502 191.463 231.295 190.84C229.457 189.895 226.287 194.393 226.652 198.585L226.649 198.587ZM242.967 199.426C239.04 200.88 236.263 206.003 237.178 206.864C238.191 207.819 242.781 204.301 242.967 199.426Z" fill="#38A1FF" fill-opacity="0.06"/>
<path d="M415.857 160.461C408.862 162.666 395.55 166.331 396.942 159.133C401.481 135.672 394.444 131.094 402.513 130.726C417.507 130.04 413.569 129.78 418.578 155.691C419.067 158.217 417.726 159.357 415.857 160.461ZM403.772 136.019C401.915 136.799 403.934 140.637 402.517 155.108C402.245 157.889 403.304 156.81 411.04 156.219C414.446 155.96 413.25 154.631 410.602 139.063C410.074 135.948 406.582 134.385 403.772 136.019Z" fill="#38A1FF" fill-opacity="0.06"/>
<path d="M292.222 284.348C290.784 286.417 288.946 286.983 286.495 285.984C257.832 274.301 260.553 280.01 273.254 261.77C274.86 259.465 276.572 259.065 279.105 260.352C303.495 272.759 303.661 267.89 292.223 284.35L292.222 284.348ZM293.515 272.931C291.063 271.539 288.046 270.119 285.487 268.942C275.114 264.171 278.628 263.429 271.449 272.434C269.485 274.897 269.529 274.146 287.252 281.154C288.488 281.643 288.887 280.645 289.374 279.838C290.75 277.566 292.683 275.608 293.515 272.931Z" fill="#38A1FF" fill-opacity="0.06"/>
<path d="M204.026 321.302C198.169 318.089 202.255 317.208 206.299 307.255C207.586 304.084 209.325 303.159 212.435 304.546C220.985 308.366 238.084 309.989 234.252 316.564C224.448 333.385 226.892 333.836 204.029 321.3L204.026 321.302ZM210.521 309.08C206.944 316.273 205.43 317.489 208.721 318.768C223.963 324.679 222.77 327.659 228.918 316.589C231.334 312.238 219.568 312.259 212.163 309.189C211.709 309.001 211.144 309.116 210.525 309.082L210.521 309.08Z" fill="#38A1FF" fill-opacity="0.06"/>
<path d="M188.105 254.171C189.723 257.799 189.184 259.469 185.773 261.448C167.632 271.967 174.956 265.319 165.089 244.224C161.681 236.936 164.472 238.488 173.925 233.258C176.028 232.093 176.544 232.553 178.596 236.258C189.741 256.389 186.88 251.432 188.104 254.175L188.105 254.171ZM183.023 258.152C183.856 257.731 184.417 257.099 183.789 255.666C181.406 250.219 178.604 244.954 175.863 239.671C174.877 237.774 173.234 237.726 171.655 238.989C170.292 240.08 167.289 239.826 168.813 243.281C170.783 247.749 173.213 252.028 174.46 256.835C175.347 260.247 175.706 261.299 177.52 260.76C178.301 260.529 178.951 260.199 183.023 258.152Z" fill="#38A1FF" fill-opacity="0.06"/>
<path d="M302.543 499.425C306.368 499.098 305.733 500.502 313.253 522.194C314.697 526.356 310.755 526.396 296.898 529.498C293.258 530.311 294.291 529.371 289.379 502.935C288.483 498.119 296.546 499.935 302.541 499.426L302.543 499.425ZM303.154 504.083C301.472 502.326 298.817 504.154 296.56 503.571C291.708 502.319 294.591 507.322 296.942 522.466C297.509 526.115 298.546 524.244 306.366 522.866C309.66 522.284 308.547 521.562 303.155 504.085L303.154 504.083Z" fill="#38A1FF" fill-opacity="0.06"/>
<path d="M298.078 185.293C299.271 186.179 300.009 187.572 298.783 189.128C294.353 194.748 291.568 201.919 286.527 198.265C274.895 189.83 271.046 186.807 275.316 181.907C280.139 176.372 278.03 170.423 298.078 185.293ZM290.176 194.316C295.72 187.224 296.982 188.45 286.471 182.312C281.705 179.529 280.797 179.865 278.385 184.927C277.355 187.088 277.849 186.707 287.786 194.152C288.533 194.712 289.264 194.928 290.172 194.315L290.176 194.316Z" fill="#38A1FF" fill-opacity="0.06"/>
<path d="M507.052 343.382C505.75 343.203 505.624 341.828 505.628 340.586C505.68 324.961 505.377 324.646 505.725 323.98C507.907 319.792 512.086 322.083 515.277 321.171C519.215 320.047 519.033 325.171 521.498 339.691C522.297 344.406 510.182 343.813 507.055 343.381L507.052 343.382ZM515.671 339.401C517.935 338.865 516.694 338.386 515.105 327.084C514.744 324.518 512.937 325.846 511.735 325.74C510.416 325.622 509.308 325.907 509.397 327.764C510.06 341.639 507.466 339.883 515.671 339.401Z" fill="#38A1FF" fill-opacity="0.06"/>
<path d="M155.175 352.655C166.4 346.638 174.902 361.211 164.187 367.082C153.359 373.013 144.251 358.51 155.175 352.655ZM162.364 363.501C164.351 362.445 165.329 359.731 164.41 357.842C163.311 355.578 159.548 354.768 156.875 356.213C151.554 359.09 156.345 366.703 162.364 363.501Z" fill="#38A1FF" fill-opacity="0.06"/>
<path d="M474.816 400.468C464.493 406.153 455.517 391.721 465.692 385.774C476.424 379.501 485.285 394.704 474.816 400.468ZM474.47 390.894C471.606 385.89 463.174 390.367 466.056 395.246C467.087 396.993 470.791 397.745 472.847 396.624C474.652 395.638 475.491 392.68 474.469 390.891L474.47 390.894Z" fill="#38A1FF" fill-opacity="0.06"/>
<path d="M295.526 140.949C290.274 131.469 305.151 125.433 310.165 134.816C314.702 143.309 301.234 151.257 295.526 140.949ZM306.194 137.051C303.807 132.525 296.795 134.825 299.025 139.179C300.824 142.694 307.595 141.679 306.194 137.051Z" fill="#38A1FF" fill-opacity="0.06"/>
<path d="M237.667 482.553C228.823 487.516 221.253 474.586 229.756 469.673C238.414 464.673 246.389 477.66 237.667 482.553ZM231.959 473.463C227.765 475.765 231.488 480.255 235.061 478.695C238.258 477.298 235.794 471.904 231.959 473.463Z" fill="#38A1FF" fill-opacity="0.06"/>
<path d="M416.097 266.296C421.209 275.185 407.64 282.068 402.775 273.683C397.994 265.446 410.9 257.258 416.097 266.296ZM412.724 268.335C410.513 264.233 403.961 268.011 406.071 271.579C408.182 275.146 414.666 271.939 412.724 268.335Z" fill="#38A1FF" fill-opacity="0.06"/>
<path d="M119.601 257.252C115.117 249.445 126.399 243.668 130.279 250.329C134.662 257.853 123.797 264.555 119.601 257.252ZM126.342 252.636C124.789 250.944 121.582 253.252 122.786 255.136C124.118 257.216 127.527 255.3 126.342 252.636Z" fill="#38A1FF" fill-opacity="0.06"/>
<path d="M283.573 359.403C281.319 360.636 279.611 360.278 278.308 358.005C277.016 355.753 277.6 353.936 279.635 352.617C283.72 349.971 288.612 356.646 283.573 359.403Z" fill="#38A1FF" fill-opacity="0.06"/>
<path d="M212.863 250.657C215.04 254.445 208.64 258.049 206.496 253.759C204.3 249.366 210.492 246.527 212.863 250.657Z" fill="#38A1FF" fill-opacity="0.06"/>
<path d="M159.233 297.31C155.237 299.696 151.405 293.858 155.558 291.333C159.789 288.761 163.117 294.99 159.233 297.31Z" fill="#38A1FF" fill-opacity="0.06"/>
<path d="M285.383 456.836C281.041 459.259 278.394 452.414 282.069 450.459C285.744 448.503 289.582 454.495 285.383 456.836Z" fill="#38A1FF" fill-opacity="0.06"/>
<path d="M348.359 183.139C350.188 187.334 344.708 190.34 342.291 186.388C339.874 182.435 345.791 178.847 348.359 183.139Z" fill="#38A1FF" fill-opacity="0.06"/>
<path d="M497.615 263.791C493.999 265.746 490.472 260.127 494.609 257.863C498.747 255.599 501.794 261.53 497.615 263.791Z" fill="#38A1FF" fill-opacity="0.06"/>
<path d="M343.49 146.024C339.09 148.552 336.44 142.582 340.12 140.538C344.05 138.356 346.698 144.179 343.49 146.024Z" fill="#38A1FF" fill-opacity="0.06"/>
<path d="M192.704 202.931C191.116 203.532 189.52 203.918 188.468 201.922C187.444 199.975 187.651 198.241 189.673 197.142C193.096 195.284 196.855 200.333 192.704 202.931Z" fill="#38A1FF" fill-opacity="0.06"/>
<path d="M435.593 187.787C433.453 183.546 438.647 180.446 441.087 184.524C443.125 187.93 438.646 191.66 435.593 187.787Z" fill="#38A1FF" fill-opacity="0.06"/>
<path d="M327.815 522.09C326.745 519.861 326.714 518.244 328.746 517.417C330.452 516.723 332.103 516.911 333.052 518.767C334.942 522.459 329.966 525.147 327.816 522.093L327.815 522.09Z" fill="#38A1FF" fill-opacity="0.06"/>
<path d="M383.886 452.493C384.962 455.147 381.377 457.764 379.657 454.94C377.838 451.956 382.002 449.163 383.886 452.493Z" fill="#38A1FF" fill-opacity="0.06"/>
</g>
<defs>
<clipPath id="clip0_247_627">
<rect width="568.888" height="568.888" fill="white" transform="translate(0 280.877) rotate(-29.5861)"/>
</clipPath>
</defs>
</svg>
