<svg width="105" height="105" viewBox="0 0 105 105" fill="none" xmlns="http://www.w3.org/2000/svg">
<path fill-rule="evenodd" clip-rule="evenodd" d="M86.7333 0H81.2663L105 23.7338V18.2664L86.7333 0ZM105 5.06716L99.9329 0H105V5.06716ZM105 36.9329L68.0666 0H62.5996L105 42.4004V36.9329ZM105 55.5996L49.3999 0H43.9329L105 61.0671V55.5996ZM105 74.2663L30.7333 0H25.2661L105 79.7337V74.2663ZM105 92.9329L12.0668 0H6.59941L105 98.4004V92.9329ZM98.3999 105L0 6.59974V12.0672L92.9329 105H98.3999ZM79.7333 105L0 25.2664V30.7337L74.2663 105H79.7333ZM61.0666 105L0 43.9329V49.4004L55.5996 105H61.0666ZM42.3999 105L0 62.5996V68.0671L36.9329 105H42.3999ZM23.7335 105L0 81.2663V86.7337L18.2661 105H23.7335ZM5.06679 105L0 99.9329V105H5.06679Z" fill="white" fill-opacity="0.2"/>
</svg>
