<svg width="538" height="575" viewBox="0 0 538 575" fill="none" xmlns="http://www.w3.org/2000/svg">
<mask id="mask0_244_7398" style="mask-type:alpha" maskUnits="userSpaceOnUse" x="0" y="0" width="538" height="575">
<rect width="538" height="575" rx="30" fill="white"/>
</mask>
<g mask="url(#mask0_244_7398)">
<path d="M389.453 662.029C347.678 624.321 333.441 511.871 419.677 439.814C469.856 397.886 527.936 388.519 570.759 436.928C618.944 491.401 572.71 602.408 531.323 647.55C489.189 693.507 436.067 704.106 389.453 662.029Z" fill="#EF5DA8"/>
<path d="M152.663 670.029C194.438 632.321 208.675 519.871 122.439 447.814C72.26 405.886 14.1799 396.519 -28.6424 444.928C-76.8283 499.401 -30.5941 610.408 10.7927 655.55C52.927 701.507 106.049 712.106 152.663 670.029Z" fill="#EF5DA8"/>
</g>
</svg>
