<svg width="189" height="195" viewBox="0 0 189 195" fill="none" xmlns="http://www.w3.org/2000/svg">
<path d="M67.6085 3.68853C67.6085 5.84018 66.0716 7.37707 63.92 7.37707C61.7683 7.37707 60.2314 5.84018 60.2314 3.68853C60.2314 1.53689 61.7683 0 63.92 0C66.0716 0 67.6085 1.53689 67.6085 3.68853Z" fill="#0A5373"/>
<path d="M94.1426 7.37707C96.1798 7.37707 97.8312 5.72566 97.8312 3.68853C97.8312 1.65141 96.1798 0 94.1426 0C92.1055 0 90.4541 1.65141 90.4541 3.68853C90.4541 5.72566 92.1055 7.37707 94.1426 7.37707Z" fill="#0A5373"/>
<path d="M124.139 7.37707C126.176 7.37707 127.827 5.72566 127.827 3.68853C127.827 1.65141 126.176 0 124.139 0C122.102 0 120.45 1.65141 120.45 3.68853C120.45 5.72566 122.102 7.37707 124.139 7.37707Z" fill="#0A5373"/>
<path d="M37.6066 30.4034C37.6066 32.555 36.0697 34.0919 33.918 34.0919C31.7664 34.0919 30.2295 32.555 30.2295 30.4034C30.2295 28.2517 31.7664 26.7148 33.918 26.7148C35.7623 26.7148 37.6066 28.5591 37.6066 30.4034Z" fill="#0A5373"/>
<path d="M67.6085 30.4034C67.6085 32.555 66.0716 34.0919 63.92 34.0919C61.7683 34.0919 60.2314 32.555 60.2314 30.4034C60.2314 28.2517 61.7683 26.7148 63.92 26.7148C66.0716 26.7148 67.6085 28.5591 67.6085 30.4034Z" fill="#0A5373"/>
<path d="M97.8312 30.4034C97.8312 32.555 96.2943 34.0919 94.1426 34.0919C91.991 34.0919 90.4541 32.555 90.4541 30.4034C90.4541 28.2517 91.991 26.7148 94.1426 26.7148C95.9869 26.7148 97.8312 28.5591 97.8312 30.4034Z" fill="#0A5373"/>
<path d="M127.827 30.4034C127.827 32.555 126.29 34.0919 124.139 34.0919C121.987 34.0919 120.45 32.555 120.45 30.4034C120.45 28.2517 121.987 26.7148 124.139 26.7148C126.29 26.7148 127.827 28.5591 127.827 30.4034Z" fill="#0A5373"/>
<path d="M158.051 30.4034C158.051 32.555 156.514 34.0919 154.362 34.0919C152.211 34.0919 150.674 32.555 150.674 30.4034C150.674 28.2517 152.211 26.7148 154.362 26.7148C156.207 26.7148 158.051 28.5591 158.051 30.4034Z" fill="#0A5373"/>
<path d="M37.6066 57.133C37.6066 59.2749 36.0697 60.8048 33.918 60.8048C31.7664 60.8048 30.2295 59.2749 30.2295 57.133C30.2295 54.9911 31.7664 53.4612 33.918 53.4612C35.7623 53.1552 37.6066 54.9911 37.6066 57.133Z" fill="#0A5373"/>
<path d="M67.6085 57.133C67.6085 59.2749 66.0716 60.8048 63.92 60.8048C61.7683 60.8048 60.2314 59.2749 60.2314 57.133C60.2314 54.9911 61.7683 53.4612 63.92 53.4612C66.0716 53.1552 67.6085 54.9911 67.6085 57.133Z" fill="#0A5373"/>
<path d="M94.1426 60.8302C96.1798 60.8302 97.8312 59.1788 97.8312 57.1417C97.8312 55.1045 96.1798 53.4531 94.1426 53.4531C92.1055 53.4531 90.4541 55.1045 90.4541 57.1417C90.4541 59.1788 92.1055 60.8302 94.1426 60.8302Z" fill="#0A5373"/>
<path d="M124.139 60.8302C126.176 60.8302 127.827 59.1788 127.827 57.1417C127.827 55.1045 126.176 53.4531 124.139 53.4531C122.102 53.4531 120.45 55.1045 120.45 57.1417C120.45 59.1788 122.102 60.8302 124.139 60.8302Z" fill="#0A5373"/>
<path d="M158.051 57.133C158.051 59.2749 156.514 60.8048 154.362 60.8048C152.211 60.8048 150.674 59.2749 150.674 57.133C150.674 54.9911 152.211 53.4612 154.362 53.4612C156.207 53.1552 158.051 54.9911 158.051 57.133Z" fill="#0A5373"/>
<path d="M7.37708 83.8585C7.37708 86.0101 5.84019 87.547 3.68854 87.547C1.53689 87.547 0 86.0101 0 83.8585C0 81.7068 1.53689 80.1699 3.68854 80.1699C5.84019 80.1699 7.37708 81.7068 7.37708 83.8585Z" fill="#0A5373"/>
<path d="M37.6066 83.8585C37.6066 86.0101 36.0697 87.547 33.918 87.547C31.7664 87.547 30.2295 86.0101 30.2295 83.8585C30.2295 81.7068 31.7664 80.1699 33.918 80.1699C35.7623 80.1699 37.6066 81.7068 37.6066 83.8585Z" fill="#0A5373"/>
<path d="M67.6085 83.8585C67.6085 86.0101 66.0716 87.547 63.92 87.547C61.7683 87.547 60.2314 86.0101 60.2314 83.8585C60.2314 81.7068 61.7683 80.1699 63.92 80.1699C66.0716 80.1699 67.6085 81.7068 67.6085 83.8585Z" fill="#0A5373"/>
<path d="M97.8312 83.8585C97.8312 86.0101 96.2943 87.547 94.1426 87.547C91.991 87.547 90.4541 86.0101 90.4541 83.8585C90.4541 81.7068 91.991 80.1699 94.1426 80.1699C95.9869 80.1699 97.8312 81.7068 97.8312 83.8585Z" fill="#0A5373"/>
<path d="M127.827 83.8585C127.827 86.0101 126.29 87.547 124.139 87.547C121.987 87.547 120.45 86.0101 120.45 83.8585C120.45 81.7068 121.987 80.1699 124.139 80.1699C126.29 80.1699 127.827 81.7068 127.827 83.8585Z" fill="#0A5373"/>
<path d="M158.051 83.8585C158.051 86.0101 156.514 87.547 154.362 87.547C152.211 87.547 150.674 86.0101 150.674 83.8585C150.674 81.7068 152.211 80.1699 154.362 80.1699C156.207 80.1699 158.051 81.7068 158.051 83.8585Z" fill="#0A5373"/>
<path d="M188.053 83.8585C188.053 86.0101 186.516 87.547 184.364 87.547C182.213 87.547 180.676 86.0101 180.676 83.8585C180.676 81.7068 182.213 80.1699 184.364 80.1699C186.516 80.1699 188.053 81.7068 188.053 83.8585Z" fill="#0A5373"/>
<path d="M3.68854 114.262C5.72566 114.262 7.37708 112.61 7.37708 110.573C7.37708 108.536 5.72566 106.885 3.68854 106.885C1.65142 106.885 0 108.536 0 110.573C0 112.61 1.65142 114.262 3.68854 114.262Z" fill="#0A5373"/>
<path d="M37.6066 110.573C37.6066 112.725 36.0697 114.262 33.918 114.262C31.7664 114.262 30.2295 112.725 30.2295 110.573C30.2295 108.422 31.7664 106.885 33.918 106.885C35.7623 106.885 37.6066 108.422 37.6066 110.573Z" fill="#0A5373"/>
<path d="M67.6085 110.573C67.6085 112.725 66.0716 114.262 63.92 114.262C61.7683 114.262 60.2314 112.725 60.2314 110.573C60.2314 108.422 61.7683 106.885 63.92 106.885C66.0716 106.885 67.6085 108.422 67.6085 110.573Z" fill="#0A5373"/>
<path d="M94.1426 114.262C96.1798 114.262 97.8312 112.61 97.8312 110.573C97.8312 108.536 96.1798 106.885 94.1426 106.885C92.1055 106.885 90.4541 108.536 90.4541 110.573C90.4541 112.61 92.1055 114.262 94.1426 114.262Z" fill="#0A5373"/>
<path d="M124.139 114.262C126.176 114.262 127.827 112.61 127.827 110.573C127.827 108.536 126.176 106.885 124.139 106.885C122.102 106.885 120.45 108.536 120.45 110.573C120.45 112.61 122.102 114.262 124.139 114.262Z" fill="#0A5373"/>
<path d="M158.051 110.573C158.051 112.725 156.514 114.262 154.362 114.262C152.211 114.262 150.674 112.725 150.674 110.573C150.674 108.422 152.211 106.885 154.362 106.885C156.207 106.885 158.051 108.422 158.051 110.573Z" fill="#0A5373"/>
<path d="M184.364 114.262C186.401 114.262 188.053 112.61 188.053 110.573C188.053 108.536 186.401 106.885 184.364 106.885C182.327 106.885 180.676 108.536 180.676 110.573C180.676 112.61 182.327 114.262 184.364 114.262Z" fill="#0A5373"/>
<path d="M37.6066 137.286C37.6066 139.438 36.0697 140.975 33.918 140.975C31.7664 140.975 30.2295 139.438 30.2295 137.286C30.2295 135.135 31.7664 133.598 33.918 133.598C35.7623 133.598 37.6066 135.135 37.6066 137.286Z" fill="#0A5373"/>
<path d="M67.6085 137.286C67.6085 139.438 66.0716 140.975 63.92 140.975C61.7683 140.975 60.2314 139.438 60.2314 137.286C60.2314 135.135 61.7683 133.598 63.92 133.598C66.0716 133.598 67.6085 135.135 67.6085 137.286Z" fill="#0A5373"/>
<path d="M94.1426 140.975C96.1798 140.975 97.8312 139.323 97.8312 137.286C97.8312 135.249 96.1798 133.598 94.1426 133.598C92.1055 133.598 90.4541 135.249 90.4541 137.286C90.4541 139.323 92.1055 140.975 94.1426 140.975Z" fill="#0A5373"/>
<path d="M124.139 140.975C126.176 140.975 127.827 139.323 127.827 137.286C127.827 135.249 126.176 133.598 124.139 133.598C122.102 133.598 120.45 135.249 120.45 137.286C120.45 139.323 122.102 140.975 124.139 140.975Z" fill="#0A5373"/>
<path d="M158.051 137.286C158.051 139.438 156.514 140.975 154.362 140.975C152.211 140.975 150.674 139.438 150.674 137.286C150.674 135.135 152.211 133.598 154.362 133.598C156.207 133.598 158.051 135.135 158.051 137.286Z" fill="#0A5373"/>
<path d="M37.6066 164.001C37.6066 166.153 36.0697 167.69 33.918 167.69C31.7664 167.69 30.2295 166.153 30.2295 164.001C30.2295 161.849 31.7664 160.312 33.918 160.312C35.7623 160.312 37.6066 162.157 37.6066 164.001Z" fill="#0A5373"/>
<path d="M67.6085 164.001C67.6085 166.153 66.0716 167.69 63.92 167.69C61.7683 167.69 60.2314 166.153 60.2314 164.001C60.2314 161.849 61.7683 160.312 63.92 160.312C66.0716 160.312 67.6085 162.157 67.6085 164.001Z" fill="#0A5373"/>
<path d="M97.8312 164.001C97.8312 166.153 96.2943 167.69 94.1426 167.69C91.991 167.69 90.4541 166.153 90.4541 164.001C90.4541 161.849 91.991 160.312 94.1426 160.312C95.9869 160.312 97.8312 162.157 97.8312 164.001Z" fill="#0A5373"/>
<path d="M127.827 164.001C127.827 166.153 126.29 167.69 124.139 167.69C121.987 167.69 120.45 166.153 120.45 164.001C120.45 161.849 121.987 160.312 124.139 160.312C126.29 160.312 127.827 162.157 127.827 164.001Z" fill="#0A5373"/>
<path d="M158.051 164.001C158.051 166.153 156.514 167.69 154.362 167.69C152.211 167.69 150.674 166.153 150.674 164.001C150.674 161.849 152.211 160.312 154.362 160.312C156.207 160.312 158.051 162.157 158.051 164.001Z" fill="#0A5373"/>
<path d="M67.6085 190.734C67.6085 192.875 66.0716 194.405 63.92 194.405C61.7683 194.405 60.2314 192.875 60.2314 190.734C60.2314 188.592 61.7683 187.062 63.92 187.062C66.0716 186.756 67.6085 188.592 67.6085 190.734Z" fill="#0A5373"/>
<path d="M94.1426 194.431C96.1798 194.431 97.8312 192.779 97.8312 190.742C97.8312 188.705 96.1798 187.054 94.1426 187.054C92.1055 187.054 90.4541 188.705 90.4541 190.742C90.4541 192.779 92.1055 194.431 94.1426 194.431Z" fill="#0A5373"/>
<path d="M124.139 194.431C126.176 194.431 127.827 192.779 127.827 190.742C127.827 188.705 126.176 187.054 124.139 187.054C122.102 187.054 120.45 188.705 120.45 190.742C120.45 192.779 122.102 194.431 124.139 194.431Z" fill="#0A5373"/>
</svg>
