<svg width="139" height="73" viewBox="0 0 139 73" fill="none" xmlns="http://www.w3.org/2000/svg">
<path d="M136.624 71.1542L127.463 52.1052C126.359 49.8091 123.705 48.7105 121.301 49.5543L106.158 54.8699C103.578 55.7757 100.749 54.4404 99.8075 51.8727L94.1803 36.5186C93.2961 34.1059 90.727 32.7562 88.2386 33.3972L73.0128 37.3188C70.499 37.9663 67.9077 36.5823 67.0479 34.1329L62.6855 21.7054C61.7883 19.1495 59.0189 17.7729 56.4397 18.6007L40.724 23.6448C38.17 24.4645 35.4243 23.123 34.5013 20.6045L28.7716 4.97079C27.9118 2.62463 25.4519 1.27346 23.0106 1.80637L1.86457 6.42247" stroke="#FC5D19" stroke-opacity="0.32" stroke-width="3" stroke-linecap="round"/>
</svg>
