<svg width="145" height="43" viewBox="0 0 145 43" fill="none" xmlns="http://www.w3.org/2000/svg">
<path d="M31.8287 11.2646C31.8287 5.41901 27.0791 0.680393 21.217 0.680393C15.3549 0.680393 10.6035 5.41901 10.6035 11.2646H31.8287Z" fill="#FC5D19"/>
<path d="M10.2773 32.4157C10.2773 38.2623 15.0278 43 20.8899 43C26.7502 43 31.5016 38.2623 31.5016 32.4157H10.2773Z" fill="#FC5D19"/>
<path d="M31.4934 32.3594C37.3545 32.3594 42.7581 27.6208 42.7581 21.7751C42.7581 15.9295 37.3545 11.1918 31.4934 11.1918H10.6126C4.75141 11.1918 0 15.9295 0 21.7751C0 27.6208 4.75141 32.3594 10.6126 32.3594H31.4934Z" fill="#FC5D19"/>
<path d="M10.6035 11.1999C10.6035 17.0446 15.3549 21.7842 21.217 21.7842C27.0791 21.7842 31.8287 17.0446 31.8287 11.1999H10.6035Z" fill="#F9F8F4"/>
<path d="M31.5016 32.3506C31.5016 26.505 26.7502 21.7654 20.8899 21.7654C15.0278 21.7654 10.2773 26.505 10.2773 32.3506H31.5016Z" fill="#F9F8F4"/>
<path d="M52.6445 32.4776V11.3091L59.6328 11.3009L63.7394 21.4184L68.3099 11.3319H75.0479V32.4776H70.155V18.5997L63.5202 32.5918L57.4279 17.9494V32.4776H52.6445Z" fill="#122325"/>
<path d="M77.1152 32.4766V11.3629H89.7308V14.9433H82.01V19.8244H89.4011V23.7291H82.01V28.6102H89.624V32.4766H77.1152Z" fill="#122325"/>
<path d="M91.666 32.4663V11.349C91.666 11.349 99.9586 11.275 101.368 11.349C103.433 11.4577 107.075 13.7895 107.075 17.3691C107.075 20.7321 105.173 23.2805 103.326 23.2805L109.565 32.4736H104.131L96.148 20.7878L99.3037 20.6764C101.043 20.5705 102.131 19.1593 102.131 17.8568C102.131 16.5543 101.151 14.8427 99.3037 14.8427C97.4514 14.8427 96.474 14.8427 96.474 14.8427V32.4663H91.666Z" fill="#122325"/>
<path d="M124.532 17.5457C123.199 16.5272 123.008 15.5928 119.205 15.5928C115.398 15.5928 112.353 18.4134 112.353 22.4268C112.353 26.4411 116.104 29.4224 119.041 29.4224C121.975 29.4224 123.447 28.393 124.532 27.3088V32.189C121.64 33.5161 120.401 33.3206 119.094 33.2741C116.051 33.1645 107.483 31.3249 107.457 21.9938C107.438 14.8366 114.852 11.0387 119.205 11.1456C122.791 11.236 124.317 12.3394 124.642 12.6655L124.532 17.5457Z" fill="#122325"/>
<path d="M126.709 11.3342H131.493V32.4854H126.709V11.3342Z" fill="#122325"/>
<path d="M138.404 11.3854H144.058L137.043 21.0955L144.501 32.4434H138.85L131.168 20.9877L138.404 11.3854Z" fill="#122325"/>
</svg>
