<svg width="120" height="35" viewBox="0 0 120 35" fill="none" xmlns="http://www.w3.org/2000/svg">
<path d="M26.323 8.75336C26.323 3.91881 22.3949 -0.000198364 17.5468 -0.000198364C12.6986 -0.000198364 8.76904 3.91881 8.76904 8.75336H26.323Z" fill="#563AEF"/>
<path d="M8.5 26.2464C8.5 31.0817 12.4288 35 17.277 35C22.1236 35 26.0532 31.0817 26.0532 26.2464H8.5Z" fill="#563AEF"/>
<path d="M26.0461 26.1998C30.8935 26.1998 35.3625 22.2808 35.3625 17.4463C35.3625 12.6117 30.8935 8.69349 26.0461 8.69349H8.77697C3.92958 8.69349 0 12.6117 0 17.4463C0 22.2808 3.92958 26.1998 8.77697 26.1998H26.0461Z" fill="#563AEF"/>
<path d="M8.76904 8.70036C8.76904 13.5342 12.6986 17.4539 17.5468 17.4539C22.3949 17.4539 26.323 13.5342 26.323 8.70036H8.76904Z" fill="white"/>
<path d="M26.0532 26.1931C26.0532 21.3585 22.1236 17.4388 17.277 17.4388C12.4288 17.4388 8.5 21.3585 8.5 26.1931H26.0532Z" fill="white"/>
<path d="M43.5391 26.2973V8.79025L49.3186 8.78344L52.7149 17.151L56.4949 8.80914H62.0675V26.2973H58.0208V14.8198L52.5336 26.3918L47.4951 14.282V26.2973H43.5391Z" fill="#563AEF"/>
<path d="M63.7773 26.297V8.83523H74.2109V11.7964H67.8255V15.8332H73.9382V19.0626H67.8255V23.0994H74.1225V26.297H63.7773Z" fill="#563AEF"/>
<path d="M75.811 26.2878V8.82299C75.811 8.82299 82.6693 8.7618 83.8349 8.82299C85.5428 8.91288 88.5546 10.8414 88.5546 13.8018C88.5546 16.5832 86.9819 18.6907 85.4544 18.6907L90.6138 26.2938H86.12L79.5178 16.6293L82.1277 16.5371C83.566 16.4495 84.4656 15.2824 84.4656 14.2052C84.4656 13.128 83.6558 11.7124 82.1277 11.7124C80.5957 11.7124 79.7874 11.7124 79.7874 11.7124V26.2878H75.811Z" fill="#563AEF"/>
<path d="M102.993 13.9488C101.89 13.1065 101.733 12.3338 98.5871 12.3338C95.4386 12.3338 92.9201 14.6664 92.9201 17.9857C92.9201 21.3056 96.0225 23.7712 98.4511 23.7712C100.878 23.7712 102.095 22.9199 102.993 22.0232V26.0593C100.601 27.1569 99.5766 26.9953 98.4957 26.9568C95.9787 26.8661 88.8923 25.3447 88.8711 17.6276C88.8553 11.7083 94.9868 8.56734 98.5871 8.65572C101.553 8.73051 102.815 9.64303 103.084 9.9127L102.993 13.9488Z" fill="#563AEF"/>
<path d="M104.794 8.81132H108.751V26.3041H104.794V8.81132Z" fill="#563AEF"/>
<path d="M114.464 8.85327H119.14L113.339 16.8839L119.507 26.269H114.834L108.48 16.7948L114.464 8.85327Z" fill="#563AEF"/>
</svg>
