<svg width="145" height="43" viewBox="0 0 145 43" fill="none" xmlns="http://www.w3.org/2000/svg">
<path d="M31.8296 11.2643C31.8296 5.41865 27.0801 0.680027 21.218 0.680027C15.3559 0.680027 10.6045 5.41865 10.6045 11.2643H31.8296Z" fill="white"/>
<path d="M10.2773 32.4157C10.2773 38.2623 15.0278 43 20.8899 43C26.7502 43 31.5016 38.2623 31.5016 32.4157H10.2773Z" fill="white"/>
<path d="M31.4934 32.3596C37.3545 32.3596 42.7581 27.621 42.7581 21.7754C42.7581 15.9298 37.3545 11.192 31.4934 11.192H10.6126C4.75141 11.192 0 15.9298 0 21.7754C0 27.621 4.75141 32.3596 10.6126 32.3596H31.4934Z" fill="white"/>
<path d="M10.6045 11.2003C10.6045 17.045 15.3559 21.7845 21.218 21.7845C27.0801 21.7845 31.8296 17.045 31.8296 11.2003H10.6045Z" fill="#563AEF"/>
<path d="M31.5016 32.351C31.5016 26.5053 26.7502 21.7658 20.8899 21.7658C15.0278 21.7658 10.2773 26.5053 10.2773 32.351H31.5016Z" fill="#563AEF"/>
<path d="M52.6455 32.4774V11.3089L59.6338 11.3006L63.7403 21.4182L68.3109 11.3317H75.0489V32.4774H70.1559V18.5995L63.5211 32.5916L57.4289 17.9491V32.4774H52.6455Z" fill="white"/>
<path d="M77.1152 32.4769V11.3632H89.7308V14.9437H82.01V19.8248H89.4011V23.7295H82.01V28.6106H89.624V32.4769H77.1152Z" fill="white"/>
<path d="M91.665 32.466V11.3486C91.665 11.3486 99.9576 11.2746 101.367 11.3486C103.432 11.4573 107.074 13.7892 107.074 17.3687C107.074 20.7318 105.172 23.2801 103.325 23.2801L109.564 32.4733H104.13L96.147 20.7875L99.3027 20.6761C101.042 20.5701 102.13 19.1589 102.13 17.8564C102.13 16.554 101.151 14.8423 99.3027 14.8423C97.4504 14.8423 96.4731 14.8423 96.4731 14.8423V32.466H91.665Z" fill="white"/>
<path d="M124.533 17.5459C123.2 16.5275 123.009 15.5931 119.206 15.5931C115.399 15.5931 112.354 18.4136 112.354 22.427C112.354 26.4413 116.105 29.4226 119.042 29.4226C121.976 29.4226 123.448 28.3932 124.533 27.309V32.1892C121.641 33.5164 120.402 33.3209 119.095 33.2743C116.052 33.1647 107.484 31.3252 107.458 21.9941C107.439 14.8368 114.853 11.039 119.206 11.1458C122.792 11.2363 124.318 12.3396 124.643 12.6657L124.533 17.5459Z" fill="white"/>
<path d="M126.709 11.3342H131.493V32.4854H126.709V11.3342Z" fill="white"/>
<path d="M138.404 11.3851H144.058L137.043 21.0953L144.501 32.4431H138.85L131.168 20.9875L138.404 11.3851Z" fill="white"/>
</svg>
