<svg width="132" height="118" viewBox="0 0 132 118" fill="none" xmlns="http://www.w3.org/2000/svg">
<path d="M87.229 59C87.229 75.2665 84.3714 89.9812 79.7613 100.62C77.4561 105.94 74.7176 110.229 71.6894 113.185C68.6624 116.139 65.3588 117.75 61.9124 117.75C58.4659 117.75 55.1623 116.139 52.1353 113.185C49.1071 110.229 46.3686 105.94 44.0634 100.62C39.4533 89.9812 36.5957 75.2665 36.5957 59C36.5957 42.7335 39.4533 28.0188 44.0634 17.3801C46.3686 12.0604 49.1071 7.77114 52.1353 4.81542C55.1623 1.86081 58.4659 0.25 61.9124 0.25C65.3588 0.25 68.6624 1.86081 71.6894 4.81542C74.7176 7.77114 77.4561 12.0604 79.7613 17.3801C84.3714 28.0188 87.229 42.7335 87.229 59Z" stroke="#563AEF" stroke-opacity="0.3" stroke-width="0.5"/>
<path d="M91.1626 59C91.1626 75.2665 88.305 89.9812 83.6949 100.62C81.3897 105.94 78.6512 110.229 75.623 113.185C72.596 116.139 69.2924 117.75 65.846 117.75C62.3995 117.75 59.0959 116.139 56.0689 113.185C53.0407 110.229 50.3022 105.94 47.997 100.62C43.3869 89.9812 40.5293 75.2665 40.5293 59C40.5293 42.7335 43.3869 28.0188 47.997 17.3801C50.3022 12.0604 53.0407 7.77114 56.0689 4.81542C59.0959 1.86081 62.3995 0.25 65.846 0.25C69.2924 0.25 72.596 1.86081 75.623 4.81542C78.6512 7.77114 81.3897 12.0604 83.6949 17.3801C88.305 28.0188 91.1626 42.7335 91.1626 59Z" stroke="#563AEF" stroke-opacity="0.3" stroke-width="0.5"/>
<path d="M95.0962 59C95.0962 75.2665 92.2386 89.9812 87.6285 100.62C85.3233 105.94 82.5848 110.229 79.5566 113.185C76.5296 116.139 73.226 117.75 69.7796 117.75C66.3331 117.75 63.0295 116.139 60.0025 113.185C56.9743 110.229 54.2358 105.94 51.9306 100.62C47.3205 89.9812 44.4629 75.2665 44.4629 59C44.4629 42.7335 47.3205 28.0188 51.9306 17.3801C54.2358 12.0604 56.9743 7.77114 60.0025 4.81542C63.0295 1.86081 66.3331 0.25 69.7796 0.25C73.226 0.25 76.5296 1.86081 79.5566 4.81542C82.5848 7.77114 85.3233 12.0604 87.6285 17.3801C92.2386 28.0188 95.0962 42.7335 95.0962 59Z" stroke="#563AEF" stroke-opacity="0.3" stroke-width="0.5"/>
<path d="M76.5372 40.4816C90.6244 48.6149 101.939 58.4469 108.847 67.7588C112.302 72.415 114.647 76.9312 115.693 81.0316C116.738 85.1304 116.481 88.7967 114.758 91.7815C113.035 94.7662 109.988 96.8218 105.916 97.966C101.842 99.1106 96.7579 99.3376 90.9982 98.6741C79.4798 97.3472 65.3077 92.4646 51.2205 84.3313C37.1333 76.1981 25.8188 66.366 18.9105 57.0542C15.456 52.3979 13.1107 47.8817 12.0651 43.7814C11.0198 39.6826 11.2766 36.0162 12.9998 33.0315C14.7231 30.0467 17.7699 27.9912 21.8421 26.847C25.916 25.7024 30.9998 25.4754 36.7594 26.1389C48.2779 27.4657 62.4499 32.3483 76.5372 40.4816Z" stroke="#563AEF" stroke-opacity="0.3" stroke-width="0.5"/>
<path d="M78.504 37.0752C92.5912 45.2085 103.906 55.0405 110.814 64.3523C114.268 69.0086 116.614 73.5248 117.659 77.6252C118.705 81.7239 118.448 85.3903 116.725 88.3751C115.001 91.3598 111.955 93.4154 107.882 94.5596C103.808 95.7042 98.7247 95.9312 92.965 95.2677C81.4466 93.9408 67.2745 89.0582 53.1873 80.9249C39.1001 72.7917 27.7856 62.9596 20.8773 53.6478C17.4228 48.9915 15.0775 44.4753 14.0319 40.375C12.9866 36.2762 13.2434 32.6098 14.9666 29.6251C16.6899 26.6403 19.7367 24.5848 23.8089 23.4406C27.8828 22.296 32.9666 22.069 38.7262 22.7325C50.2447 24.0593 64.4167 28.9419 78.504 37.0752Z" stroke="#563AEF" stroke-opacity="0.3" stroke-width="0.5"/>
<path d="M80.4708 33.6688C94.558 41.8021 105.872 51.6342 112.781 60.946C116.235 65.6023 118.581 70.1185 119.626 74.2188C120.671 78.3176 120.415 81.984 118.691 84.9687C116.968 87.9534 113.921 90.009 109.849 91.1532C105.775 92.2978 100.691 92.5248 94.9318 91.8613C83.4134 90.5345 69.2413 85.6519 55.1541 77.5186C41.0669 69.3853 29.7524 59.5532 22.844 50.2414C19.3896 45.5852 17.0443 41.069 15.9987 36.9686C14.9534 32.8698 15.2102 29.2034 16.9334 26.2187C18.6567 23.234 21.7035 21.1784 25.7757 20.0342C29.8496 18.8896 34.9334 18.6626 40.693 19.3261C52.2114 20.653 66.3835 25.5356 80.4708 33.6688Z" stroke="#563AEF" stroke-opacity="0.3" stroke-width="0.5"/>
<path d="M55.1542 40.4816C41.067 48.6149 29.7525 58.4469 22.8442 67.7588C19.3898 72.415 17.0445 76.9312 15.9988 81.0316C14.9536 85.1304 15.2104 88.7967 16.9336 91.7815C18.6568 94.7662 21.7036 96.8218 25.7759 97.966C29.8497 99.1106 34.9335 99.3376 40.6932 98.6741C52.2116 97.3472 66.3837 92.4646 80.4709 84.3313C94.5581 76.1981 105.873 66.366 112.781 57.0542C116.235 52.3979 118.581 47.8817 119.626 43.7814C120.672 39.6826 120.415 36.0162 118.692 33.0315C116.968 30.0467 113.922 27.9912 109.849 26.847C105.775 25.7024 100.692 25.4754 94.932 26.1389C83.4136 27.4657 69.2415 32.3483 55.1542 40.4816Z" stroke="#563AEF" stroke-opacity="0.3" stroke-width="0.5"/>
<path d="M53.1874 37.0752C39.1002 45.2085 27.7857 55.0405 20.8774 64.3523C17.423 69.0086 15.0777 73.5248 14.032 77.6252C12.9868 81.7239 13.2436 85.3903 14.9668 88.3751C16.69 91.3598 19.7368 93.4154 23.8091 94.5596C27.8829 95.7042 32.9667 95.9312 38.7264 95.2677C50.2448 93.9408 64.4169 89.0582 78.5041 80.9249C92.5913 72.7917 103.906 62.9596 110.814 53.6478C114.269 48.9915 116.614 44.4753 117.66 40.375C118.705 36.2762 118.448 32.6098 116.725 29.6251C115.002 26.6403 111.955 24.5848 107.882 23.4406C103.809 22.296 98.7248 22.069 92.9652 22.7325C81.4468 24.0593 67.2747 28.9419 53.1874 37.0752Z" stroke="#563AEF" stroke-opacity="0.3" stroke-width="0.5"/>
<path d="M51.2206 33.6688C37.1334 41.8021 25.8189 51.6342 18.9106 60.946C15.4562 65.6023 13.1109 70.1185 12.0652 74.2188C11.02 78.3176 11.2768 81.984 13 84.9687C14.7232 87.9534 17.77 90.009 21.8423 91.1532C25.9161 92.2978 30.9999 92.5248 36.7596 91.8613C48.278 90.5345 62.4501 85.6519 76.5373 77.5186C90.6245 69.3853 101.939 59.5532 108.847 50.2414C112.302 45.5852 114.647 41.069 115.693 36.9686C116.738 32.8698 116.481 29.2034 114.758 26.2187C113.035 23.234 109.988 21.1784 105.916 20.0342C101.842 18.8896 96.758 18.6626 90.9984 19.3261C79.48 20.653 65.3079 25.5356 51.2206 33.6688Z" stroke="#563AEF" stroke-opacity="0.3" stroke-width="0.5"/>
</svg>
