<svg width="550" height="550" viewBox="0 0 550 550" fill="none" xmlns="http://www.w3.org/2000/svg">
<path d="M264.469 260.26C265.474 260.567 266.559 260.484 267.506 260.027C268.453 259.569 269.193 258.772 269.579 257.793C269.964 256.815 269.966 255.727 269.585 254.747C269.203 253.766 268.466 252.966 267.521 252.505C266.67 252.17 265.751 252.045 264.841 252.141C263.932 252.237 263.059 252.55 262.296 253.055C261.718 253.587 261.301 254.271 261.094 255.028C260.886 255.786 260.897 256.587 261.123 257.339C261.35 258.091 261.784 258.764 262.376 259.28C262.967 259.797 263.693 260.137 264.469 260.26ZM262.901 256.025C262.901 253.715 267.494 253.44 267.934 256.025C268.786 259.628 262.764 259.408 262.901 256.025ZM261.251 84.2601C257.016 89.2376 258.034 95.645 264.689 98.78C266.194 98.3918 267.731 98.1341 269.281 98.01C271.048 98.126 272.804 98.3742 274.534 98.7526C276.368 97.6499 277.795 95.9807 278.598 93.9967C279.402 92.0126 279.539 89.8212 278.989 87.7526C278.476 85.9535 277.477 84.3311 276.101 83.0644C274.724 81.7977 273.025 80.9361 271.189 80.5748C269.354 80.2134 267.455 80.3664 265.701 81.0167C263.947 81.667 262.407 82.7895 261.251 84.2601ZM259.711 132C259.679 131.838 259.591 131.692 259.463 131.587C259.335 131.482 259.175 131.425 259.01 131.425C258.844 131.425 258.684 131.482 258.556 131.587C258.428 131.692 258.341 131.838 258.309 132C258.104 133.532 257.985 135.075 257.951 136.62C258.023 136.84 258.163 137.032 258.351 137.168C258.539 137.303 258.764 137.377 258.996 137.377C259.228 137.377 259.453 137.303 259.641 137.168C259.829 137.032 259.969 136.84 260.041 136.62C260.179 136.153 259.711 132.468 259.711 132ZM281.409 132.495C281.376 132.333 281.289 132.187 281.161 132.082C281.033 131.977 280.873 131.92 280.707 131.92C280.542 131.92 280.382 131.977 280.254 132.082C280.126 132.187 280.038 132.333 280.006 132.495C280.006 132.88 279.539 136.593 279.676 137.115C279.748 137.335 279.888 137.527 280.076 137.663C280.264 137.798 280.489 137.872 280.721 137.872C280.953 137.872 281.178 137.798 281.366 137.663C281.554 137.527 281.694 137.335 281.766 137.115C281.904 136.593 281.409 132.908 281.409 132.495ZM259.904 122.953C256.604 122.678 255.091 127.793 255.036 128.013C254.989 128.169 255.005 128.339 255.083 128.483C255.16 128.627 255.292 128.735 255.449 128.783C255.605 128.83 255.775 128.813 255.919 128.736C256.063 128.658 256.171 128.527 256.219 128.37C256.384 127.958 258.144 124.96 260.206 125.07C261.251 125.153 261.774 123.09 259.904 122.953ZM282.234 128.755C282.183 127.786 281.837 126.856 281.242 126.089C280.647 125.322 279.832 124.755 278.906 124.465C278.629 124.392 278.334 124.432 278.087 124.577C277.839 124.721 277.659 124.958 277.586 125.235C277.513 125.512 277.553 125.807 277.698 126.055C277.842 126.302 278.079 126.482 278.356 126.555C279.032 126.795 279.637 127.2 280.117 127.733C280.598 128.266 280.937 128.91 281.106 129.608C281.15 129.757 281.251 129.883 281.388 129.958C281.525 130.033 281.685 130.05 281.835 130.006C281.984 129.963 282.11 129.861 282.185 129.725C282.26 129.588 282.277 129.427 282.234 129.278C282.234 129.278 282.289 128.975 282.234 128.755ZM269.501 143.358C269.611 143.321 269.707 143.251 269.775 143.158C269.843 143.064 269.879 142.951 269.879 142.835C269.879 142.719 269.843 142.606 269.775 142.513C269.707 142.419 269.611 142.349 269.501 142.313C268.236 142.065 266.751 141.983 266.751 140.745C266.896 139.201 267.135 137.668 267.466 136.153C267.481 136.016 267.447 135.878 267.37 135.764C267.293 135.65 267.178 135.568 267.045 135.531C266.913 135.495 266.771 135.507 266.647 135.565C266.522 135.624 266.423 135.725 266.366 135.85C265.682 137.623 265.202 139.468 264.936 141.35C264.991 143 266.751 144.238 269.501 143.358ZM272.939 146.96C272.333 147.615 271.59 148.128 270.763 148.461C269.935 148.794 269.044 148.939 268.154 148.885C267.543 148.783 266.961 148.554 266.445 148.213C265.929 147.872 265.49 147.426 265.156 146.905C265.079 146.763 264.95 146.657 264.795 146.61C264.64 146.564 264.473 146.581 264.331 146.658C264.189 146.734 264.083 146.864 264.036 147.019C263.99 147.174 264.007 147.34 264.084 147.483C264.523 148.436 265.213 149.253 266.078 149.847C266.944 150.441 267.954 150.791 269.002 150.858C270.05 150.926 271.097 150.709 272.031 150.231C272.966 149.753 273.755 149.032 274.314 148.143C274.671 147.235 273.681 146.3 272.939 146.96ZM272.636 310.365C272.705 310.412 272.786 310.438 272.87 310.438C272.953 310.438 273.035 310.412 273.104 310.365C276.046 308.523 298.184 290.923 299.999 289.355C300.059 289.299 300.101 289.226 300.12 289.146C300.139 289.065 300.133 288.981 300.103 288.904C300.074 288.827 300.022 288.761 299.954 288.714C299.886 288.667 299.806 288.641 299.724 288.64C299.724 288.64 254.349 287.76 246.346 287.485C245.879 287.485 245.796 287.98 246.044 288.2C247.501 289.63 265.074 304.563 272.636 310.365ZM368.226 522.198C370.289 517.99 366.439 510.923 364.706 508.063C364.672 507.993 364.62 507.934 364.554 507.893C364.488 507.852 364.412 507.83 364.335 507.83C364.257 507.83 364.181 507.852 364.116 507.893C364.05 507.934 363.997 507.993 363.964 508.063C362.561 510.813 359.619 518.018 362.424 522.17C364.321 525.25 366.741 525.47 368.226 522.198ZM200.751 492.635C200.476 492.8 180.346 504.378 179.576 505.56C178.806 506.743 178.834 507.623 179.879 507.705C188.129 508.228 191.291 508.915 191.621 509.3C192.144 511.143 192.721 518.623 193.821 520.108C193.938 520.291 194.106 520.436 194.304 520.526C194.502 520.616 194.721 520.647 194.936 520.615C195.151 520.583 195.353 520.49 195.516 520.346C195.679 520.202 195.797 520.014 195.856 519.805C197.011 515.46 200.641 501.93 201.356 499.703C202.071 497.475 203.281 491.728 200.751 492.635ZM200.366 495.22C200.091 497.035 198.771 502.288 194.866 515.708C194.543 512.908 193.954 510.145 193.106 507.458C189.815 506.473 186.417 505.892 182.986 505.725C188.651 502.205 194.591 498.823 200.284 495.22H200.366ZM214.969 503.993C215.195 503.971 215.407 503.873 215.569 503.714C215.731 503.555 215.834 503.345 215.859 503.119C215.885 502.894 215.833 502.666 215.711 502.474C215.588 502.283 215.404 502.139 215.189 502.068C214.171 501.77 213.112 501.64 212.054 501.683V497.695C212.054 497.505 211.978 497.324 211.844 497.19C211.71 497.055 211.528 496.98 211.339 496.98C211.149 496.98 210.967 497.055 210.833 497.19C210.699 497.324 210.624 497.505 210.624 497.695C210.624 499.125 210.376 500.445 210.266 501.793C208.974 501.793 207.681 502.04 206.334 502.233C204.986 502.425 205.564 503.965 206.554 503.883C207.717 503.814 208.883 503.814 210.046 503.883C210.046 505.093 209.799 506.385 209.744 507.623C209.787 507.909 209.932 508.17 210.151 508.358C210.371 508.547 210.65 508.651 210.94 508.651C211.229 508.651 211.509 508.547 211.728 508.358C211.948 508.17 212.093 507.909 212.136 507.623V503.965C213.079 504.035 214.025 504.044 214.969 503.993ZM281.216 488.95C280.981 488.258 280.543 487.652 279.96 487.21C279.376 486.769 278.674 486.513 277.944 486.475C275.414 486.475 273.049 489.583 271.041 492.47H270.849C268.896 491.095 268.291 491.095 266.476 493.02C264.056 495.633 265.074 496.1 268.209 498.52C266.091 501.463 260.756 509.053 259.959 510.428C259.161 511.803 256.824 515.68 259.409 517.825C259.939 518.205 260.581 518.398 261.233 518.373C261.885 518.348 262.511 518.107 263.011 517.688C267.005 512.844 270.68 507.746 274.011 502.425C276.761 504.075 276.981 504.405 279.126 502.645C279.437 502.442 279.698 502.17 279.889 501.851C280.079 501.532 280.195 501.173 280.226 500.803C280.226 499.455 278.604 498.52 277.476 497.613C278.439 496.21 279.291 494.863 280.061 493.46C280.572 492.839 280.94 492.113 281.139 491.333C281.339 490.554 281.365 489.741 281.216 488.95ZM272.526 493.488C273.437 492.256 274.41 491.072 275.441 489.94C276.789 488.483 277.779 488.125 278.686 488.758C280.226 489.775 279.374 490.683 276.211 496.43L272.526 493.488ZM260.839 516.423C259.271 516.065 260.289 513.673 261.031 512.243C261.774 510.813 267.356 502.728 269.501 499.455C270.354 500.06 271.784 500.995 272.471 501.408C270.601 504.598 265.294 512.408 264.221 513.618C263.149 514.828 262.159 516.725 260.839 516.423ZM268.676 493.103L269.116 493.268C269.556 493.433 278.521 500.748 278.521 500.913C278.121 501.506 277.595 502.003 276.981 502.37C275.936 501.545 269.446 497.145 267.026 495.248C267.53 494.498 268.081 493.782 268.676 493.103ZM329.341 506.825C329.341 506.825 341.826 520.218 342.926 520.575C344.769 521.07 354.724 509.575 356.044 508.035C357.336 509.135 357.996 509.328 359.454 507.87C360.355 506.927 361.106 505.851 361.681 504.68C361.777 504.499 361.813 504.292 361.783 504.089C361.754 503.886 361.66 503.698 361.516 503.553C347.519 489.363 345.016 486.723 344.439 486.503C342.624 485.733 341.689 487.96 340.616 488.758C339.131 490.188 338.334 490.628 340.781 493.378C329.616 505.478 328.736 505.395 329.341 506.825ZM341.111 490.683C341.844 489.837 342.664 489.072 343.559 488.4C343.559 488.4 351.809 496.65 359.619 504.35C359.119 505.281 358.51 506.149 357.804 506.935C357.501 506.633 341.551 491.15 341.001 490.683H341.111ZM354.861 506.77C342.871 519.475 344.081 518.98 342.816 517.77C342.074 517.138 332.861 507.65 331.459 506.028C332.449 504.928 341.579 495.028 342.184 494.478C342.046 494.588 352.881 505.065 354.751 506.77H354.861Z" fill="#563AEF" fill-opacity="0.5"/>
<path d="M340.341 500.968C337.591 503.883 335.446 504.735 335.748 506.303C337.091 508.293 338.64 510.136 340.368 511.803C340.474 511.889 340.605 511.937 340.741 511.939C340.877 511.941 341.01 511.897 341.118 511.814C341.226 511.732 341.303 511.615 341.337 511.483C341.37 511.351 341.359 511.212 341.303 511.088C341.303 511.088 339.131 507.375 338.196 506.138C338.416 505.863 340.753 502.728 341.386 502.013C341.524 501.874 341.602 501.686 341.602 501.49C341.602 501.294 341.524 501.106 341.386 500.968C341.247 500.829 341.059 500.751 340.863 500.751C340.667 500.751 340.479 500.829 340.341 500.968Z" fill="#563AEF" fill-opacity="0.5"/>
<path d="M380.931 534.71L313.501 534.27C313.501 529.568 311.988 490.518 311.878 487.19C311.878 486.173 310.256 486.173 310.311 487.19C310.311 489.94 311.301 531.685 311.438 534.243H238.041C238.041 529.788 237.326 494.835 237.271 492.443C237.271 492.246 237.193 492.057 237.053 491.918C236.914 491.778 236.725 491.7 236.528 491.7C236.331 491.7 236.143 491.778 236.003 491.918C235.864 492.057 235.786 492.246 235.786 492.443V534.243C230.066 534.243 169.786 534.243 161.536 534.848C161.36 534.881 161.201 534.975 161.087 535.113C160.973 535.251 160.911 535.425 160.911 535.604C160.911 535.783 160.973 535.956 161.087 536.094C161.201 536.232 161.36 536.326 161.536 536.36C168.878 536.69 374.331 537.075 381.068 535.508C381.158 535.473 381.232 535.409 381.279 535.326C381.326 535.243 381.343 535.147 381.327 535.052C381.311 534.958 381.262 534.873 381.19 534.81C381.118 534.748 381.026 534.713 380.931 534.71ZM183.151 38.5001C183.783 39.6001 190.218 39.9576 190.796 39.7376C191.175 39.6044 191.503 39.354 191.731 39.0226C193.912 40.842 196.199 42.5316 198.578 44.0826C198.918 44.3569 199.311 44.5574 199.732 44.671C200.154 44.7847 200.594 44.809 201.026 44.7426C202.181 44.4126 223.878 31.4876 224.208 31.2676C225.638 30.3876 225.666 29.5076 225.473 28.9301C225.061 27.8026 202.896 17.4076 199.348 13.5301C199.246 13.4557 199.129 13.4023 199.006 13.3731C198.882 13.3439 198.754 13.3394 198.629 13.3598C198.504 13.3803 198.384 13.4253 198.276 13.4922C198.168 13.5592 198.075 13.6469 198.001 13.7501C195.251 16.9126 192.803 20.1576 190.301 23.3751C187.781 23.2975 185.263 23.5752 182.821 24.2001C182.551 28.968 182.662 33.7497 183.151 38.5001ZM202.043 30.2501C201.763 31.0181 201.229 31.6679 200.531 32.0926C199.156 32.5601 197.781 31.2676 197.313 30.6901C195.801 28.9301 199.238 25.1901 201.521 28.1326C201.806 28.4304 202.005 28.7999 202.097 29.2017C202.189 29.6036 202.17 30.0229 202.043 30.4151V30.2501ZM200.063 25.1626C199.24 25.018 198.393 25.1049 197.617 25.4136C196.84 25.7223 196.165 26.2407 195.666 26.9109C195.167 27.5811 194.864 28.3768 194.79 29.2092C194.717 30.0416 194.876 30.878 195.251 31.6251C195.812 32.5487 196.633 33.2865 197.611 33.7462C198.59 34.206 199.681 34.3673 200.751 34.2101C201.489 33.9407 202.145 33.4853 202.656 32.8879C203.167 32.2905 203.515 31.5713 203.666 30.8001C206.691 30.8001 217.086 30.8001 221.238 30.6076L200.751 42.5426C199.596 42.0476 192.831 37.0426 192.006 36.3826C192.006 34.8701 192.006 25.8226 191.813 24.3651C194.123 21.6151 196.488 18.6726 198.743 15.7301C202.098 18.4801 217.581 26.7301 222.118 29.1226H203.748C203.629 28.176 203.204 27.294 202.54 26.6095C201.875 25.925 201.006 25.4751 200.063 25.3276V25.1626ZM184.663 25.6576L189.751 25.4651C189.751 26.3176 190.081 36.4651 189.943 37.8951C188.207 38.0096 186.463 37.9265 184.746 37.6476C184.911 35.7501 184.773 27.9676 184.663 25.8226V25.6576ZM98.5608 170.225C98.8493 170.392 99.1765 170.479 99.5096 170.479C99.8427 170.479 100.17 170.392 100.458 170.225C102.631 169.153 106.948 165.385 119.543 157.053C119.913 156.852 120.232 156.569 120.475 156.226C120.718 155.882 120.879 155.488 120.946 155.073C120.946 155.073 121.413 143.33 120.753 142.945C118.636 141.625 112.503 137.445 110.743 137.72C110.523 137.72 87.3133 152.185 87.2583 152.873C87.0285 155.874 86.9826 158.886 87.1208 161.893C90.7485 164.916 94.57 167.7 98.5608 170.225ZM88.7983 154.77C90.9158 156.2 96.8283 160.27 98.4508 161.095V167.365C88.1658 160.49 88.8258 161.645 88.9083 159.61C88.9358 158.483 88.8533 155.843 88.7983 154.77ZM99.5783 158.813C99.4032 158.942 99.1911 159.012 98.9733 159.012C98.7555 159.012 98.5434 158.942 98.3683 158.813C97.9283 158.538 91.7683 154.138 90.1183 152.955C111.733 139.205 110.963 139.04 112.118 139.453C112.668 139.673 115.253 141.323 118.746 143.633C114.621 147.153 99.9908 158.538 99.5783 158.813ZM118.828 155.155C118.251 155.705 103.373 165.578 100.073 167.723V160.848C102.026 159.363 114.923 149.243 118.938 145.805C119.048 154.88 119.213 154.88 118.966 155.155H118.828ZM403.371 171.903C408.507 171.783 413.503 170.209 417.781 167.365C419.915 166.021 421.522 163.984 422.333 161.596C423.144 159.208 423.11 156.613 422.236 154.248C424.051 152.873 429.853 147.95 430.981 146.878C433.318 147.015 436.041 142.863 437.498 140.608C438.103 139.673 438.901 138.71 438.488 137.638C434.776 133.708 430.846 129.99 426.718 126.5C426.442 126.208 426.084 126.007 425.691 125.924C425.298 125.84 424.889 125.878 424.518 126.033C421.78 128.688 419.311 131.608 417.148 134.75C417.053 135.157 417.102 135.585 417.286 135.96C417.286 136.153 413.463 147.235 412.996 148.583C410.938 148.79 409.027 149.744 407.624 151.264C406.22 152.784 405.422 154.764 405.378 156.833C405.048 164.863 411.401 167.448 403.123 170.418C403.009 170.516 402.921 170.643 402.869 170.785C402.818 170.927 402.804 171.081 402.829 171.23C402.854 171.379 402.917 171.519 403.012 171.637C403.106 171.755 403.23 171.847 403.371 171.903ZM419.266 135.245C421.053 132.62 423.159 130.228 425.536 128.123C427.021 129.305 435.601 137.225 436.536 138.518C435.848 139.7 431.998 144.705 431.036 144.815C430.953 144.733 419.623 135.575 419.266 135.245ZM421.246 152.46C419.844 150.405 417.691 148.983 415.251 148.5C415.801 146.658 417.808 139.92 418.496 137.198C420.586 138.985 425.756 143.33 428.918 145.833C427.681 147.07 423.006 151.058 421.246 152.46ZM407.771 169.73C409.916 167.778 409.393 165.22 408.403 162.773C406.643 157.273 407.166 153.725 410.108 151.773C410.868 151.291 411.716 150.965 412.602 150.815C413.489 150.665 414.397 150.693 415.273 150.898C416.148 151.103 416.975 151.48 417.703 152.008C418.431 152.536 419.046 153.204 419.513 153.973C423.858 160.82 415.718 168.163 407.771 169.73ZM231.441 30.2501C232.568 30.2501 239.168 29.3976 245.191 28.7651C245.402 28.7651 245.605 28.6811 245.755 28.5315C245.904 28.382 245.988 28.1791 245.988 27.9676C245.988 27.7561 245.904 27.5532 245.755 27.4037C245.605 27.2541 245.402 27.1701 245.191 27.1701C242.936 27.3901 232.348 28.0226 231.193 28.2701C230.97 28.3445 230.78 28.4939 230.654 28.6929C230.529 28.8919 230.476 29.1282 230.506 29.3615C230.535 29.5949 230.644 29.811 230.814 29.973C230.985 30.135 231.206 30.2329 231.441 30.2501ZM253.001 28.4901C253.743 28.4901 268.346 27.2801 271.563 27.4451C272.636 27.4451 272.718 25.8776 271.563 25.7951C265.278 25.4886 258.978 25.6909 252.726 26.4001C252.488 26.478 252.285 26.6364 252.152 26.8481C252.019 27.0597 251.964 27.3112 251.997 27.5591C252.029 27.807 252.147 28.0358 252.331 28.2057C252.514 28.3757 252.751 28.4763 253.001 28.4901ZM279.841 26.9226L291.693 26.5926C291.89 26.5569 292.067 26.4534 292.195 26.3001C292.323 26.1468 292.393 25.9535 292.393 25.7538C292.393 25.5542 292.323 25.3609 292.195 25.2076C292.067 25.0543 291.89 24.9508 291.693 24.9151L279.896 24.5851C279.615 24.621 279.357 24.7563 279.168 24.9664C278.978 25.1765 278.87 25.4475 278.864 25.7302C278.857 26.013 278.952 26.2887 279.131 26.5075C279.311 26.7263 279.562 26.8735 279.841 26.9226ZM301.126 27.3076C306.186 27.3076 324.446 28.1601 328.901 28.9301C330.001 29.1501 330.386 27.4451 329.286 27.2526C319.957 25.8339 310.535 25.1169 301.098 25.1076C300.807 25.1112 300.528 25.2306 300.325 25.4395C300.121 25.6484 300.008 25.9296 300.012 26.2213C300.016 26.5131 300.135 26.7914 300.344 26.9951C300.553 27.1988 300.834 27.3112 301.126 27.3076ZM337.783 32.0651C345.064 34.2184 351.791 37.9243 357.501 42.9276C358.381 43.7251 359.618 42.4326 358.766 41.6351C352.998 36.1094 345.978 32.0617 338.306 29.8376C338.028 29.8119 337.751 29.8875 337.525 30.0504C337.298 30.2133 337.139 30.4525 337.075 30.7239C337.011 30.9953 337.048 31.2806 337.178 31.5271C337.308 31.7735 337.523 31.9646 337.783 32.0651ZM362.176 68.7501C361.948 68.8058 361.748 68.9428 361.614 69.1354C361.48 69.328 361.421 69.5629 361.448 69.796C361.475 70.0291 361.586 70.2443 361.761 70.4011C361.935 70.5579 362.161 70.6456 362.396 70.6476C366.026 70.6476 370.288 66.4126 370.646 60.5551C371.003 54.6976 366.988 49.9951 363.138 46.0626C362.974 45.8948 362.75 45.7992 362.516 45.7966C362.281 45.794 362.055 45.8847 361.887 46.0488C361.719 46.213 361.624 46.437 361.621 46.6716C361.618 46.9063 361.709 47.1323 361.873 47.3001C366.218 51.8101 368.336 55.9351 368.363 59.9501C368.436 61.8918 367.871 63.8038 366.753 65.3933C365.636 66.9828 364.028 68.1619 362.176 68.7501ZM332.173 77.6876C334.923 77.6876 353.046 73.5351 356.043 72.8201C356.253 72.7509 356.429 72.6052 356.537 72.412C356.644 72.2188 356.675 71.9923 356.623 71.7775C356.571 71.5626 356.44 71.3752 356.256 71.2525C356.072 71.1298 355.849 71.0807 355.631 71.1151C351.533 72.0501 337.068 74.5801 331.981 75.4601C331.714 75.5189 331.477 75.6729 331.315 75.8934C331.153 76.1138 331.076 76.3857 331.1 76.6583C331.124 76.9309 331.245 77.1856 331.443 77.375C331.64 77.5644 331.9 77.6755 332.173 77.6876ZM324.721 75.8726C318.863 76.5051 312.731 77.0551 306.818 77.9351C306.57 78.0095 306.355 78.1674 306.209 78.382C306.063 78.5967 305.996 78.855 306.019 79.1135C306.041 79.372 306.152 79.6147 306.333 79.8008C306.514 79.9869 306.753 80.105 307.011 80.1351C308.688 80.1351 322.108 78.3751 324.803 78.0451C326.206 77.8526 326.123 75.6801 324.721 75.8726ZM283.251 82.9126C284.846 82.9126 295.846 81.1251 298.403 80.7676C298.618 80.7136 298.805 80.583 298.93 80.4006C299.055 80.2181 299.109 79.9963 299.082 79.7767C299.055 79.5572 298.949 79.3551 298.784 79.2084C298.618 79.0617 298.405 78.9805 298.183 78.9801C294.828 79.3651 286.331 80.1076 283.031 80.6851C282.762 80.7452 282.525 80.9016 282.363 81.1247C282.202 81.3478 282.128 81.6222 282.155 81.8962C282.182 82.1702 282.308 82.4249 282.51 82.6121C282.712 82.7993 282.976 82.9062 283.251 82.9126ZM237.353 86.8726C243.238 86.8726 249.261 85.8276 255.091 85.2776C256.301 85.2776 256.301 83.2701 255.091 83.3801C249.233 83.8476 243.101 84.0951 237.188 84.9201C236.006 85.0576 236.143 86.8726 237.353 86.8726ZM208.368 89.4026C208.127 89.4598 207.915 89.6033 207.772 89.806C207.628 90.0088 207.564 90.2569 207.591 90.5035C207.618 90.7502 207.735 90.9785 207.918 91.1455C208.102 91.3125 208.34 91.4066 208.588 91.4101C210.458 91.4101 225.556 89.1826 227.838 88.8801C228.079 88.8235 228.289 88.6792 228.429 88.4753C228.568 88.2715 228.626 88.0229 228.592 87.7784C228.557 87.5338 228.433 87.311 228.243 87.1536C228.052 86.9962 227.81 86.9156 227.563 86.9276C223.961 87.3676 211.421 88.7701 208.368 89.4026ZM166.486 97.2676C177.158 95.0281 187.945 93.3756 198.798 92.3176C200.228 92.3176 200.173 89.9801 198.798 90.1176C187.81 90.7723 176.908 92.4665 166.238 95.1776C166.002 95.2539 165.799 95.41 165.665 95.6192C165.531 95.8283 165.474 96.0776 165.503 96.3244C165.532 96.5711 165.646 96.8001 165.825 96.9721C166.005 97.1442 166.238 97.2486 166.486 97.2676ZM129.691 111.458C137.024 107.064 145.034 103.914 153.396 102.135C154.853 101.833 154.276 99.6326 152.846 99.9351C144.235 101.645 135.983 104.826 128.453 109.34C128.217 109.525 128.056 109.788 128 110.082C127.944 110.376 127.996 110.681 128.147 110.939C128.298 111.198 128.538 111.393 128.822 111.488C129.106 111.583 129.414 111.573 129.691 111.458ZM106.453 133.568C109.489 125.393 115.339 118.567 122.953 114.318C123.971 113.768 123.118 112.255 122.073 112.778C113.783 116.899 107.414 124.076 104.308 132.798C103.786 134.338 105.931 134.943 106.453 133.568ZM112.448 166.458C111.623 165.523 110.303 166.815 111.073 167.723C112.998 169.95 123.146 177.76 125.208 177.76C125.425 177.758 125.635 177.686 125.806 177.553C125.977 177.421 126.1 177.236 126.156 177.027C126.212 176.818 126.198 176.596 126.117 176.396C126.035 176.196 125.89 176.028 125.703 175.918C121.039 173.125 116.606 169.961 112.448 166.458ZM150.783 184.085C144.576 183.472 138.5 181.904 132.771 179.438C131.506 178.888 130.461 180.758 131.753 181.363C137.707 184.183 144.131 185.88 150.701 186.368C152.213 186.45 152.213 184.25 150.783 184.085ZM156.751 187.853C159.941 188.32 172.948 190.438 176.248 190.603C176.522 190.611 176.788 190.517 176.996 190.339C177.204 190.161 177.338 189.913 177.372 189.641C177.407 189.37 177.339 189.096 177.182 188.872C177.025 188.648 176.79 188.49 176.523 188.43C173.361 187.77 160.463 186.23 157.273 185.68C155.981 185.653 155.458 187.633 156.751 187.853ZM199.128 191.208C193.794 191.681 188.417 191.235 183.233 189.888C183.018 189.863 182.8 189.917 182.621 190.039C182.441 190.161 182.311 190.343 182.255 190.553C182.198 190.762 182.219 190.985 182.312 191.181C182.406 191.377 182.567 191.533 182.766 191.62C188.118 193.18 193.71 193.748 199.266 193.298C200.503 193.16 200.476 191.125 199.128 191.208ZM381.893 177.705C387.625 177.077 393.275 175.851 398.751 174.048C399.906 173.663 399.411 171.848 398.228 172.205C392.886 173.758 387.407 174.789 381.866 175.285C380.271 175.45 380.298 177.843 381.893 177.705ZM356.373 179.795C356.152 179.866 355.961 180.01 355.833 180.205C355.705 180.399 355.648 180.631 355.67 180.863C355.693 181.094 355.794 181.311 355.957 181.477C356.12 181.643 356.335 181.748 356.566 181.775C358.573 181.775 372.296 179.355 374.633 179.025C375.981 178.778 375.458 176.825 374.166 177.018C367.071 178.035 361.791 178.75 356.373 179.795ZM349.251 180.648C342.403 181.858 335.501 182.573 328.956 183.205C327.526 183.37 327.581 185.57 328.956 185.46C335.883 184.902 342.777 183.984 349.608 182.71C349.744 182.687 349.873 182.637 349.989 182.563C350.105 182.49 350.206 182.394 350.285 182.282C350.364 182.169 350.421 182.042 350.451 181.908C350.481 181.774 350.484 181.636 350.461 181.5C350.437 181.365 350.387 181.235 350.314 181.119C350.24 181.003 350.145 180.902 350.032 180.823C349.92 180.744 349.793 180.688 349.659 180.658C349.525 180.628 349.386 180.624 349.251 180.648ZM148.336 278.658C149.546 278.658 149.601 276.953 148.336 276.788C142.757 275.957 137.085 275.957 131.506 276.788C131.242 276.846 131.009 277.002 130.855 277.224C130.701 277.446 130.636 277.719 130.675 277.987C130.713 278.255 130.851 278.498 131.061 278.668C131.272 278.839 131.538 278.923 131.808 278.905C137.299 278.332 142.83 278.249 148.336 278.658ZM392.508 277.2C392.28 277.272 392.083 277.42 391.951 277.619C391.819 277.818 391.759 278.057 391.781 278.296C391.804 278.534 391.907 278.757 392.075 278.928C392.242 279.099 392.463 279.207 392.701 279.235C392.976 279.235 407.468 278.823 410.961 279.235C411.896 279.373 412.198 277.943 411.263 277.805C405.04 277.079 398.766 276.876 392.508 277.2ZM385.001 279.373C385.22 279.373 385.429 279.286 385.584 279.131C385.739 278.976 385.826 278.766 385.826 278.548C385.826 278.329 385.739 278.119 385.584 277.964C385.429 277.81 385.22 277.723 385.001 277.723C380.948 277.46 376.877 277.746 372.901 278.575C371.718 278.823 372.048 280.555 373.176 280.555C377.055 279.681 381.026 279.284 385.001 279.373ZM447.591 313.5C447.371 314.6 448.966 315.288 449.433 314.215C451.798 308.88 452.981 300.713 450.011 294.965C449.433 293.865 447.783 294.8 448.333 295.9C451.661 302.5 448.471 309.238 447.591 313.5ZM115.501 396C111.632 399.215 108.396 403.122 105.958 407.523C105.904 407.613 105.868 407.713 105.853 407.817C105.837 407.921 105.842 408.027 105.868 408.13C105.92 408.336 106.051 408.513 106.233 408.623C106.416 408.732 106.634 408.765 106.84 408.713C107.047 408.661 107.224 408.53 107.333 408.348C109.849 404.201 113.069 400.525 116.848 397.485C117.948 396.688 116.601 395.258 115.501 396ZM133.871 379.858C130.103 382.677 126.52 385.735 123.146 389.015C122.982 389.183 122.891 389.409 122.894 389.644C122.896 389.878 122.992 390.102 123.16 390.266C123.327 390.43 123.553 390.521 123.788 390.519C124.023 390.516 124.247 390.42 124.411 390.253C125.951 388.63 134.228 382.168 135.053 381.48C135.878 380.793 134.888 379.5 133.871 379.858ZM142.121 374.853C142.698 374.853 140.993 375.403 151.251 368.638C151.465 368.49 151.616 368.267 151.675 368.014C151.733 367.76 151.695 367.494 151.568 367.267C151.441 367.04 151.233 366.869 150.987 366.787C150.74 366.704 150.471 366.717 150.233 366.823C147.203 368.888 144.309 371.148 141.571 373.588C141.478 373.697 141.419 373.831 141.398 373.972C141.377 374.114 141.396 374.259 141.454 374.391C141.511 374.522 141.604 374.635 141.721 374.717C141.839 374.798 141.978 374.845 142.121 374.853Z" fill="#563AEF" fill-opacity="0.5"/>
<path d="M253.001 438.763C253.276 439.423 253.001 439.12 253.001 438.763C245.233 441.905 237.198 444.344 228.994 446.05C228.004 446.243 228.334 447.7 229.324 447.59C237.818 446.634 246.097 444.284 253.826 440.633C254.954 440 254.211 438.323 253.001 438.763ZM291.501 427.075C292.161 427.075 314.436 418.33 316.609 416.928C317.681 416.213 316.939 414.37 315.674 414.838C313.446 415.663 295.736 424.023 291.309 425.59C291.147 425.652 291.011 425.766 290.922 425.915C290.834 426.063 290.797 426.237 290.82 426.409C290.842 426.58 290.921 426.739 291.045 426.86C291.168 426.981 291.329 427.057 291.501 427.075ZM325.546 412.5C326.261 412.5 344.796 404.058 346.529 402.738C347.381 402.078 346.804 400.51 345.676 400.95C343.999 401.583 328.791 409.2 325.299 410.658C325.103 410.739 324.94 410.883 324.835 411.067C324.73 411.251 324.688 411.464 324.716 411.674C324.744 411.884 324.841 412.078 324.991 412.228C325.141 412.377 325.336 412.473 325.546 412.5ZM379.501 357.225C381.041 358.215 386.761 362.725 388.301 363.715C388.537 363.851 388.813 363.898 389.081 363.846C389.348 363.795 389.587 363.648 389.755 363.434C389.922 363.219 390.006 362.951 389.992 362.68C389.978 362.408 389.865 362.151 389.676 361.955C388.219 360.718 381.921 356.785 380.354 355.85C380.171 355.737 379.952 355.701 379.743 355.75C379.534 355.799 379.353 355.929 379.24 356.111C379.127 356.294 379.091 356.514 379.14 356.722C379.189 356.931 379.319 357.112 379.501 357.225ZM414.014 380.05C413.161 379.363 412.006 380.6 412.886 381.315C414.839 382.938 422.594 389.813 424.739 391.27C424.966 391.383 425.226 391.413 425.473 391.356C425.72 391.299 425.94 391.158 426.096 390.957C426.251 390.757 426.332 390.508 426.326 390.255C426.319 390.001 426.225 389.757 426.059 389.565C424.299 387.75 416.296 381.865 414.014 380.05ZM431.751 395.835C431.587 395.675 431.366 395.586 431.136 395.589C430.907 395.591 430.688 395.685 430.527 395.849C430.367 396.013 430.278 396.234 430.281 396.464C430.283 396.693 430.377 396.912 430.541 397.073C433.994 400.566 437.098 404.389 439.809 408.485C440.689 409.723 442.696 408.485 441.844 407.22C438.972 403.016 435.581 399.19 431.751 395.835ZM393.251 459.25C389.566 459.25 373.699 458.205 369.794 457.408C369.615 457.364 369.426 457.393 369.269 457.488C369.112 457.584 368.999 457.738 368.955 457.916C368.911 458.095 368.94 458.284 369.036 458.441C369.131 458.598 369.285 458.711 369.464 458.755C377.318 460.232 385.267 461.151 393.251 461.505C393.55 461.505 393.837 461.386 394.048 461.175C394.26 460.963 394.379 460.677 394.379 460.378C394.379 460.079 394.26 459.792 394.048 459.58C393.837 459.369 393.55 459.25 393.251 459.25ZM294.966 439.478C294.004 439.01 293.206 440.44 294.196 440.935C301.124 444.434 308.541 446.863 316.196 448.14C317.681 448.415 318.259 446.133 316.746 445.885C309.223 444.775 301.892 442.618 294.966 439.478ZM262.736 437.58C266.174 436.838 273.186 434.83 274.286 434.665C275.331 435.078 282.041 437.608 285.616 438.46C285.884 438.52 286.164 438.474 286.4 438.333C286.635 438.192 286.808 437.967 286.882 437.702C286.955 437.438 286.925 437.156 286.797 436.913C286.669 436.67 286.453 436.486 286.194 436.398C283.444 435.408 280.694 434.583 277.641 433.648C279.859 432.911 282.011 431.991 284.076 430.898C284.226 430.737 284.326 430.536 284.364 430.319C284.401 430.103 284.374 429.88 284.287 429.678C284.199 429.476 284.054 429.305 283.87 429.184C283.686 429.064 283.471 429 283.251 429C280.171 430.045 277.146 431.365 274.149 432.52C270.739 431.31 267.604 430.073 264.606 428.753C263.616 428.313 262.819 429.77 263.836 430.238C266.339 431.42 268.841 432.548 271.316 433.565C268.393 434.58 265.419 435.443 262.406 436.15C262.28 436.242 262.183 436.369 262.128 436.516C262.074 436.662 262.063 436.822 262.098 436.974C262.134 437.127 262.213 437.265 262.326 437.373C262.44 437.481 262.582 437.553 262.736 437.58ZM139.646 360.91C136.896 358.765 126.584 349.91 124.301 347.49C123.559 346.693 122.321 347.875 123.064 348.673C127.552 353.952 132.679 358.654 138.326 362.67C139.426 363.413 140.691 361.735 139.646 360.91ZM106.976 491.04C105.26 475.858 102.167 460.864 97.7361 446.243C100.245 450.036 104.113 452.723 108.544 453.75C108.733 453.83 108.947 453.832 109.138 453.755C109.329 453.677 109.481 453.527 109.561 453.338C109.641 453.148 109.643 452.934 109.566 452.743C109.488 452.553 109.338 452.4 109.149 452.32C105.629 450.203 100.211 448.058 98.5336 442.915C99.4514 441.24 99.6774 439.272 99.1636 437.433C98.6497 435.593 97.4366 434.027 95.7836 433.07C96.773 427.23 98.8635 421.63 101.944 416.57C102.301 415.883 101.366 415.168 100.844 415.773C96.9193 420.666 94.5191 426.604 93.9411 432.85C93.2252 432.902 92.5209 433.059 91.8511 433.318C84.5652 414.485 74.2137 396.988 61.2161 381.535C61.7165 380.682 61.9109 379.684 61.7672 378.706C61.6236 377.727 61.1504 376.827 60.426 376.154C59.7015 375.481 58.7691 375.075 57.7828 375.003C56.7964 374.932 55.8152 375.199 55.0011 375.76C54.0723 376.392 53.397 377.333 53.095 378.415C52.793 379.497 52.8837 380.651 53.3511 381.673C53.6626 382.218 54.0812 382.694 54.5817 383.072C55.0822 383.451 55.6542 383.725 56.2633 383.876C56.8723 384.028 57.5058 384.054 58.1254 383.955C58.7451 383.855 59.3381 383.63 59.8686 383.295C72.6122 398.574 82.825 415.797 90.1186 434.308C85.6361 438.268 89.5411 445.693 95.1786 445.088C99.8267 460.221 103.067 475.751 104.859 491.48C104.034 491.918 103.394 492.638 103.058 493.509C102.721 494.38 102.711 495.343 103.027 496.222C103.344 497.1 103.968 497.835 104.783 498.29C105.598 498.746 106.55 498.892 107.464 498.702C108.378 498.512 109.193 497.999 109.759 497.256C110.325 496.513 110.604 495.591 110.545 494.66C110.485 493.728 110.092 492.849 109.436 492.184C108.781 491.519 107.907 491.113 106.976 491.04ZM59.7311 379.5C59.8277 379.863 59.8397 380.242 59.7661 380.61C59.6925 380.978 59.5354 381.324 59.3068 381.622C59.0782 381.919 58.7844 382.16 58.4479 382.326C58.1114 382.492 57.7413 382.578 57.3661 382.578C56.991 382.578 56.6209 382.492 56.2844 382.326C55.9479 382.16 55.654 381.919 55.4255 381.622C55.1969 381.324 55.0397 380.978 54.9662 380.61C54.8926 380.242 54.9046 379.863 55.0011 379.5C54.9046 379.138 54.8926 378.758 54.9662 378.39C55.0397 378.022 55.1969 377.676 55.4255 377.379C55.654 377.081 55.9479 376.84 56.2844 376.675C56.6209 376.509 56.991 376.423 57.3661 376.423C57.7413 376.423 58.1114 376.509 58.4479 376.675C58.7844 376.84 59.0782 377.081 59.3068 377.379C59.5354 377.676 59.6925 378.022 59.7661 378.39C59.8397 378.758 59.8277 379.138 59.7311 379.5ZM109.231 494.753C109.231 497.503 104.694 497.503 104.694 494.753C104.694 492.003 109.121 492.25 109.121 495L109.231 494.753ZM97.1861 440.853C95.7011 445.445 90.1736 442.228 90.2561 438.488C90.2561 435.188 94.8486 432.988 96.5811 436.15C97.025 436.862 97.3004 437.665 97.3862 438.499C97.472 439.333 97.3659 440.176 97.0761 440.963L97.1861 440.853ZM497.146 330.248C497.132 329.453 496.898 328.678 496.47 328.009C496.041 327.34 495.435 326.803 494.72 326.458C494.004 326.113 493.207 325.974 492.416 326.055C491.626 326.137 490.874 326.436 490.244 326.92C474.768 317.859 461.46 305.527 451.249 290.785C451.995 289.928 452.508 288.894 452.739 287.781C452.97 286.669 452.912 285.516 452.569 284.433C452.306 283.592 451.83 282.834 451.186 282.233C450.543 281.632 449.754 281.208 448.898 281.003C448.041 280.798 447.146 280.818 446.3 281.063C445.454 281.307 444.686 281.767 444.071 282.398C430.837 264.495 421.378 244.089 416.269 222.42C416.785 221.836 417.1 221.101 417.17 220.325C417.239 219.548 417.058 218.769 416.654 218.103C416.35 217.414 415.83 216.843 415.173 216.476C414.516 216.109 413.757 215.966 413.012 216.069C412.266 216.171 411.574 216.514 411.04 217.045C410.507 217.575 410.16 218.265 410.054 219.01C409.879 219.636 409.877 220.298 410.048 220.925C410.219 221.552 410.556 222.121 411.024 222.572C411.492 223.023 412.073 223.339 412.706 223.486C413.339 223.634 414 223.608 414.619 223.41C419.685 245.329 429.298 265.941 442.834 283.91C442.545 284.378 442.331 284.888 442.201 285.423C438.709 283.745 421.356 278.245 419.541 278.74C418.771 278.96 419.129 279.895 419.541 280.005C427.134 282.103 434.592 284.666 441.871 287.678C442.025 288.52 442.369 289.316 442.876 290.005C443.383 290.694 444.04 291.259 444.798 291.657C445.556 292.054 446.395 292.274 447.25 292.299C448.106 292.325 448.956 292.155 449.736 291.803C462.276 309.623 475.119 321.64 488.979 328.543C488.682 329.21 488.556 329.941 488.612 330.669C488.668 331.397 488.905 332.1 489.301 332.714C489.696 333.328 490.238 333.833 490.878 334.185C491.518 334.537 492.236 334.725 492.966 334.73C493.549 334.758 494.131 334.659 494.671 334.439C495.211 334.219 495.698 333.885 496.095 333.458C496.493 333.031 496.793 332.523 496.975 331.969C497.156 331.414 497.215 330.827 497.146 330.248ZM491.041 331.623C490.805 331.274 490.664 330.87 490.632 330.45C490.6 330.03 490.678 329.609 490.858 329.228C491.039 328.848 491.316 328.521 491.661 328.28C492.007 328.039 492.409 327.893 492.829 327.855C493.488 327.876 494.113 328.151 494.574 328.623C495.036 329.094 495.297 329.726 495.304 330.385C495.304 330.886 495.142 331.373 494.842 331.774C494.541 332.175 494.119 332.467 493.638 332.607C493.157 332.746 492.643 332.726 492.175 332.548C491.707 332.371 491.309 332.046 491.041 331.623ZM448.911 290.208C448.061 290.482 447.144 290.463 446.306 290.154C445.469 289.844 444.759 289.263 444.291 288.503C444.034 287.891 443.928 287.227 443.982 286.565C444.036 285.904 444.249 285.266 444.603 284.705C444.956 284.143 445.44 283.675 446.013 283.341C446.586 283.006 447.231 282.815 447.894 282.783C451.414 282.783 452.019 288.915 448.911 290.208ZM415.389 220C415.42 220.259 415.397 220.522 415.32 220.771C415.242 221.02 415.113 221.25 414.94 221.446C414.767 221.641 414.555 221.798 414.317 221.905C414.079 222.012 413.821 222.067 413.56 222.067C413.299 222.067 413.041 222.012 412.803 221.905C412.565 221.798 412.353 221.641 412.18 221.446C412.007 221.25 411.878 221.02 411.8 220.771C411.723 220.522 411.699 220.259 411.731 220C411.699 219.741 411.723 219.478 411.8 219.229C411.878 218.98 412.007 218.75 412.18 218.555C412.353 218.359 412.565 218.203 412.803 218.096C413.041 217.988 413.299 217.933 413.56 217.933C413.821 217.933 414.079 217.988 414.317 218.096C414.555 218.203 414.767 218.359 414.94 218.555C415.113 218.75 415.242 218.98 415.32 219.229C415.397 219.478 415.42 219.741 415.389 220ZM459.251 443.768C459.327 443.575 459.333 443.363 459.267 443.166C459.202 442.97 459.07 442.803 458.894 442.695C457.519 441.843 455.264 443.273 454.879 444.895C455.814 444.978 458.674 444.868 459.251 443.768Z" fill="#563AEF" fill-opacity="0.5"/>
<path d="M452.706 425.59C450.919 421.807 448.908 418.134 446.683 414.59C446.561 414.41 446.374 414.283 446.16 414.237C445.947 414.19 445.724 414.227 445.538 414.34C445.351 414.452 445.214 414.632 445.156 414.843C445.098 415.053 445.123 415.278 445.226 415.47C447.08 418.729 448.689 422.12 450.038 425.618C446.97 425.952 444.053 427.124 441.607 429.007C439.161 430.889 437.281 433.409 436.173 436.29C435.065 439.171 434.772 442.301 435.326 445.337C435.88 448.374 437.26 451.199 439.313 453.503C429.797 457.206 419.734 459.306 409.531 459.718C409.348 459.752 409.183 459.849 409.065 459.992C408.946 460.136 408.881 460.316 408.881 460.502C408.881 460.687 408.946 460.868 409.065 461.011C409.183 461.154 409.348 461.251 409.531 461.285C420.409 461.516 431.22 459.513 441.293 455.4C443.354 457.035 445.771 458.162 448.348 458.688C450.925 459.215 453.59 459.128 456.127 458.432C458.664 457.737 461.002 456.455 462.951 454.688C464.899 452.921 466.405 450.72 467.344 448.263C468.284 445.806 468.632 443.163 468.36 440.546C468.087 437.93 467.203 435.415 465.777 433.204C464.351 430.993 462.425 429.149 460.154 427.822C457.883 426.494 455.332 425.72 452.706 425.563V425.59ZM449.213 451C448.938 449.158 448.828 447.288 448.498 445.5H444.456C444.208 447.123 444.208 448.745 443.961 450.368C443.946 450.483 443.909 450.595 443.852 450.696C443.794 450.797 443.717 450.886 443.625 450.958C443.533 451.029 443.428 451.082 443.316 451.113C443.204 451.144 443.086 451.152 442.971 451.138C442.855 451.123 442.744 451.086 442.643 451.029C442.541 450.971 442.452 450.894 442.381 450.802C442.309 450.71 442.257 450.605 442.226 450.493C442.195 450.381 442.186 450.263 442.201 450.148C442.201 448.333 443.713 436.783 444.016 435.16C444.401 432.878 445.611 432.685 446.298 432.768C447.728 432.933 448.113 434.418 448.416 435.518C449.213 438.46 451.166 447.425 451.661 450.395C451.881 451.88 449.461 452.485 449.213 451ZM461.561 448.883C457.133 451.963 451.551 448.278 453.311 444.015C454.438 441.265 458.811 439.395 460.653 442.255C460.875 442.718 460.984 443.226 460.971 443.738C460.959 444.251 460.825 444.753 460.581 445.204C460.336 445.654 459.989 446.041 459.567 446.331C459.144 446.622 458.659 446.808 458.151 446.875C457.238 446.995 456.314 446.995 455.401 446.875C455.749 447.26 456.158 447.585 456.611 447.838C459.361 448.993 461.203 446.93 461.753 448.085C461.796 448.201 461.801 448.328 461.766 448.447C461.731 448.566 461.659 448.67 461.561 448.745V448.883Z" fill="#563AEF" fill-opacity="0.5"/>
<path d="M445.886 435.683C445.474 437.773 445.006 441.513 444.786 443.245H448.059C447.756 441.843 446.959 437.91 446.409 435.765C446.326 435.408 445.941 435.325 445.886 435.683ZM207.626 394.515C205.976 393.525 202.346 393.415 202.126 395.588C201.961 396.798 202.126 401.638 202.126 402.93C203.381 402.894 204.614 402.599 205.75 402.064C206.886 401.529 207.899 400.766 208.726 399.823C209.036 399.413 209.254 398.942 209.367 398.442C209.479 397.941 209.484 397.422 209.38 396.919C209.275 396.417 209.065 395.942 208.763 395.528C208.46 395.113 208.073 394.768 207.626 394.515Z" fill="#563AEF" fill-opacity="0.5"/>
<path d="M177.816 456.968C173.264 457.68 168.672 458.102 164.066 458.233C162.829 436.59 131.864 436.563 130.599 458.233C125.821 457.771 121.119 456.718 116.601 455.098C116.516 455.054 116.424 455.028 116.329 455.02C116.234 455.013 116.138 455.024 116.048 455.054C115.957 455.083 115.873 455.13 115.8 455.192C115.728 455.253 115.668 455.329 115.625 455.414C115.582 455.499 115.555 455.591 115.548 455.686C115.54 455.781 115.552 455.877 115.581 455.967C115.61 456.058 115.657 456.142 115.719 456.215C115.781 456.287 115.856 456.347 115.941 456.39C120.524 458.816 125.544 460.303 130.709 460.763C131.229 464.8 133.203 468.509 136.26 471.198C139.317 473.886 143.248 475.368 147.319 475.368C151.389 475.368 155.321 473.886 158.378 471.198C161.435 468.509 163.408 464.8 163.929 460.763C168.717 460.274 173.473 459.512 178.174 458.48C178.335 458.4 178.465 458.268 178.542 458.105C178.619 457.941 178.638 457.757 178.597 457.582C178.555 457.406 178.455 457.25 178.314 457.138C178.172 457.027 177.997 456.967 177.816 456.968ZM144.816 465.74C144.779 465.926 144.703 466.102 144.593 466.256C144.483 466.411 144.341 466.54 144.178 466.636C144.014 466.732 143.832 466.793 143.644 466.814C143.455 466.835 143.264 466.815 143.084 466.758C142.259 466.51 142.396 466.043 141.076 464.173C140.664 464.86 140.251 465.575 139.866 466.29C139.715 466.536 139.476 466.715 139.197 466.79C138.918 466.865 138.622 466.83 138.368 466.693C138.114 466.555 137.923 466.325 137.833 466.051C137.743 465.777 137.762 465.478 137.886 465.218C138.409 464.228 138.931 463.21 139.509 462.22C138.83 461.513 138.074 460.886 137.254 460.35C136.985 460.161 136.798 459.877 136.731 459.555C136.665 459.233 136.723 458.898 136.895 458.617C137.066 458.337 137.338 458.133 137.655 458.046C137.972 457.959 138.311 457.996 138.601 458.15C142.039 460.268 139.921 460.515 142.534 457.27C143.606 455.95 145.641 457.573 144.761 458.92C144.156 459.855 143.386 460.818 142.726 461.67C144.074 463.403 144.954 464.75 144.789 465.74H144.816ZM156.531 466.07C155.946 466.598 155.254 466.994 154.502 467.231C153.75 467.469 152.956 467.541 152.174 467.445C151.392 467.348 150.639 467.085 149.967 466.672C149.296 466.259 148.721 465.707 148.281 465.053C147.721 464.226 147.424 463.25 147.429 462.252C147.434 461.253 147.741 460.28 148.309 459.459C148.877 458.638 149.68 458.008 150.612 457.652C151.545 457.296 152.563 457.23 153.534 457.463C153.296 454.49 153.213 451.507 153.286 448.525C153.29 448.207 153.412 447.901 153.627 447.667C153.843 447.433 154.137 447.286 154.454 447.256C154.771 447.225 155.088 447.312 155.344 447.501C155.601 447.689 155.779 447.966 155.844 448.278C156.421 451.88 156.861 462.44 156.916 463.65C156.971 464.283 157.246 465.328 156.504 466.07H156.531ZM105.134 303.49C105.629 303.49 105.766 303.49 105.794 303.325C105.794 302.858 104.859 296.67 104.749 295.928C96.9387 297 97.9287 304.205 105.134 303.49Z" fill="#563AEF" fill-opacity="0.5"/>
<path d="M124.575 277.42C121.315 277.867 118.083 278.501 114.895 279.318C112.332 276.828 109.206 274.992 105.783 273.966C102.36 272.94 98.7406 272.754 95.2303 273.423C91.72 274.091 88.4224 275.596 85.6167 277.809C82.811 280.022 80.5797 282.879 79.1116 286.137C77.6436 289.395 76.9819 292.959 77.1826 296.526C77.3833 300.094 78.4405 303.561 80.2648 306.634C82.089 309.707 84.6266 312.295 87.6629 314.179C90.6991 316.064 94.1446 317.189 97.7078 317.46C100.811 326.196 106.217 333.93 113.355 339.845C113.42 339.908 113.497 339.958 113.581 339.992C113.666 340.025 113.756 340.042 113.846 340.04C113.937 340.039 114.026 340.02 114.11 339.984C114.193 339.948 114.268 339.896 114.332 339.831C114.395 339.766 114.444 339.69 114.478 339.605C114.512 339.521 114.528 339.431 114.527 339.34C114.526 339.25 114.506 339.16 114.471 339.077C114.435 338.994 114.383 338.918 114.318 338.855C108.364 332.624 103.544 325.403 100.073 317.515C104.218 317.359 108.237 316.051 111.68 313.739C115.124 311.427 117.855 308.201 119.568 304.424C121.281 300.646 121.908 296.467 121.379 292.353C120.85 288.239 119.186 284.354 116.573 281.133C119.488 280.363 122.073 279.675 124.823 279.153C126.143 278.933 125.675 277.2 124.575 277.42ZM90.2553 305.25V284.79C90.2977 284.518 90.436 284.27 90.6453 284.091C90.8545 283.911 91.121 283.813 91.3965 283.813C91.6721 283.813 91.9385 283.911 92.1478 284.091C92.3571 284.27 92.4954 284.518 92.5378 284.79C92.5378 288.86 93.0053 302.5 93.0878 305.25C92.9928 305.551 92.8043 305.814 92.5496 306.001C92.2949 306.188 91.9873 306.289 91.6715 306.289C91.3557 306.289 91.0481 306.188 90.7934 306.001C90.5388 305.814 90.3502 305.551 90.2553 305.25ZM107.085 305.525C101.585 308.468 94.2428 303.215 97.7078 297.083C98.4676 295.991 99.485 295.104 100.67 294.499C101.855 293.895 103.17 293.592 104.5 293.618C104.041 290.622 103.765 287.6 103.675 284.57C103.69 284.272 103.809 283.989 104.012 283.77C104.215 283.552 104.489 283.412 104.785 283.376C105.081 283.34 105.381 283.409 105.631 283.573C105.88 283.736 106.064 283.982 106.15 284.268C106.618 286.248 107.938 299.42 108.075 301.153C108.13 302.5 108.735 304.508 107.085 305.388V305.525Z" fill="#563AEF" fill-opacity="0.5"/>
</svg>
