<svg width="185" height="262" viewBox="0 0 185 262" fill="none" xmlns="http://www.w3.org/2000/svg">
<path d="M92.8895 117.777C58.0975 105.843 55.4256 57.6654 88.6844 41.9568C121.943 26.2481 157.455 58.9148 144.572 93.3668L130.606 130.715L92.8895 117.777Z" fill="url(#paint0_linear_160_7289)" fill-opacity="0.15"/>
<path d="M116.788 167.993C103.905 202.445 139.417 235.112 172.676 219.403C205.934 203.695 203.262 155.517 168.47 143.583L130.754 130.645L116.788 167.993Z" fill="url(#paint1_linear_160_7289)" fill-opacity="0.15"/>
<path d="M117.777 168.471C105.843 203.263 57.6654 205.935 41.9568 172.676C26.2481 139.417 58.9148 103.905 93.3668 116.788L130.715 130.754L117.777 168.471Z" fill="url(#paint2_linear_160_7289)" fill-opacity="0.15"/>
<path d="M167.993 144.572C202.445 157.455 235.112 121.943 219.403 88.6843C203.694 55.4254 155.517 58.0974 143.583 92.8894L130.645 130.606L167.993 144.572Z" fill="url(#paint3_linear_160_7289)" fill-opacity="0.15"/>
<defs>
<linearGradient id="paint0_linear_160_7289" x1="75.1241" y1="48.3615" x2="130.606" y2="130.715" gradientUnits="userSpaceOnUse">
<stop stop-color="white"/>
<stop offset="0.917117" stop-color="#5356FF"/>
</linearGradient>
<linearGradient id="paint1_linear_160_7289" x1="159.115" y1="225.808" x2="130.754" y2="130.645" gradientUnits="userSpaceOnUse">
<stop stop-color="white"/>
<stop offset="0.917117" stop-color="#5356FF"/>
</linearGradient>
<linearGradient id="paint2_linear_160_7289" x1="48.3615" y1="186.236" x2="130.715" y2="130.754" gradientUnits="userSpaceOnUse">
<stop stop-color="white"/>
<stop offset="0.917117" stop-color="#5356FF"/>
</linearGradient>
<linearGradient id="paint3_linear_160_7289" x1="225.808" y1="102.245" x2="130.645" y2="130.606" gradientUnits="userSpaceOnUse">
<stop stop-color="white"/>
<stop offset="0.917117" stop-color="#5356FF"/>
</linearGradient>
</defs>
</svg>
