<svg width="189" height="199" viewBox="0 0 189 199" fill="none" xmlns="http://www.w3.org/2000/svg">
<path d="M100.266 105.132C100.453 107.231 96.5304 108.381 94.497 105.132C92.2991 102.262 93.9151 95.5975 100.266 93.6735C106.248 91.3956 115.713 95.7682 117.573 105.132C119.943 114.136 112.786 126.282 100.266 128.051C88.135 130.484 73.1025 120.629 71.4209 105.132C68.872 90.0133 81.5967 72.3485 100.266 70.7547C118.573 68.1466 139.125 83.5162 140.649 105.132C143.36 126.37 125.111 149.55 100.266 150.969C75.7874 153.751 49.6968 132.864 48.3452 105.132C45.4661 77.7613 69.2492 49.0952 100.266 47.8366C130.891 44.8972 162.553 71.2674 163.725 105.132C166.78 138.619 137.441 172.803 100.266 173.887C63.4651 177.001 26.2801 145.116 25.2691 105.132C22.0568 65.5275 56.9166 25.8313 100.266 24.9183C143.228 21.6297 185.966 59.0337 186.801 105.132C190.193 150.871 149.773 196.052 100.266 196.806C51.1472 200.254 2.85241 157.364 2.19313 105.132C-1.35982 53.2787 44.5907 2.57839 100.266 2" stroke="white" stroke-opacity="0.06" stroke-width="3" stroke-linecap="round"/>
</svg>
