<svg width="63" height="63" viewBox="0 0 63 63" fill="none" xmlns="http://www.w3.org/2000/svg">
<path fill-rule="evenodd" clip-rule="evenodd" d="M36.364 23.636L30 0L23.636 23.636L0 30L23.636 36.364L30 60L31.0961 55.9289L31.409 57.091L32.3746 56.831L31.6139 54.0058L36.364 36.364L54.0058 31.6139L56.831 32.3746L57.091 31.409L55.9289 31.0961L60 30L36.364 23.636ZM55.9289 31.0961L53.1516 30.3484L52.8917 31.314L54.0058 31.6139L55.9289 31.0961ZM31.6139 54.0058L31.314 52.8917L30.3484 53.1517L31.0961 55.9289L31.6139 54.0058ZM33.5303 4.96967L33.5033 4.97694L33.4353 5.22966L33 5.11246L32.5647 5.22966L32.4967 4.97694L32.4697 4.96967L33 3L33.5303 4.96967ZM34.591 8.90901L35.6516 12.8483L34.686 13.1083L33.6254 9.169L34.591 8.90901ZM36.7123 16.7877L37.773 20.727L36.8074 20.987L35.7467 17.0477L36.7123 16.7877ZM38.8336 24.6664L39.364 26.636L41.3336 27.1664L41.0736 28.132L38.548 27.452L37.868 24.9264L38.8336 24.6664ZM45.273 28.227L49.2123 29.2877L48.9523 30.2533L45.013 29.1926L45.273 28.227ZM61.0231 32.4967L61.0303 32.4697L63 33L61.0303 33.5303L61.0231 33.5033L60.7703 33.4353L60.8875 33L60.7703 32.5647L61.0231 32.4967ZM57.091 34.591L53.1517 35.6516L52.8917 34.686L56.831 33.6254L57.091 34.591ZM49.2123 36.7123L45.273 37.773L45.013 36.8074L48.9523 35.7467L49.2123 36.7123ZM41.3336 38.8336L39.364 39.364L38.8336 41.3336L37.868 41.0736L38.548 38.548L41.0736 37.868L41.3336 38.8336ZM37.773 45.273L36.7123 49.2123L35.7467 48.9523L36.8074 45.013L37.773 45.273ZM35.6516 53.1516L34.591 57.091L33.6254 56.831L34.686 52.8917L35.6516 53.1516ZM33.5033 61.0231L33.5303 61.0303L33 63L32.4697 61.0303L32.4967 61.0231L32.5647 60.7703L33 60.8875L33.4353 60.7703L33.5033 61.0231ZM29.2877 49.2123L28.227 45.273L29.1926 45.013L30.2533 48.9523L29.2877 49.2123ZM27.1664 41.3336L26.636 39.364L24.6664 38.8336L24.9264 37.868L27.452 38.548L28.132 41.0736L27.1664 41.3336ZM20.727 37.773L16.7877 36.7123L17.0477 35.7467L20.987 36.8074L20.727 37.773ZM12.8484 35.6516L8.90901 34.591L9.169 33.6254L13.1083 34.686L12.8484 35.6516ZM4.97694 33.5033L4.96967 33.5303L3 33L4.96967 32.4697L4.97694 32.4967L5.22966 32.5647L5.11246 33L5.22966 33.4353L4.97694 33.5033ZM8.90901 31.409L12.8483 30.3484L13.1083 31.314L9.169 32.3746L8.90901 31.409ZM16.7877 29.2877L20.727 28.227L20.987 29.1926L17.0477 30.2533L16.7877 29.2877ZM24.6664 27.1664L26.636 26.636L27.1664 24.6664L28.132 24.9264L27.452 27.452L24.9264 28.132L24.6664 27.1664ZM28.227 20.727L29.2877 16.7877L30.2533 17.0477L29.1926 20.987L28.227 20.727ZM30.3484 12.8484L31.409 8.90901L32.3746 9.169L31.314 13.1083L30.3484 12.8484Z" fill="white" fill-opacity="0.15"/>
</svg>
