<svg width="59" height="59" viewBox="0 0 59 59" fill="none" xmlns="http://www.w3.org/2000/svg">
<path d="M2.6162 18.7241C2.69127 18.5369 2.76836 18.3502 2.84749 18.1642L18.1647 2.84702C18.3507 2.76789 18.5373 2.69079 18.7246 2.61573L2.6162 18.7241Z" fill="white" fill-opacity="0.4"/>
<path d="M1.17705 23.4494C1.20711 23.3086 1.23822 23.1679 1.2704 23.0275L23.0279 1.26992C23.1684 1.23775 23.3091 1.20663 23.4499 1.17657L1.17705 23.4494Z" fill="white" fill-opacity="0.4"/>
<path d="M0.651717 26.9323C0.641033 27.0517 0.631085 27.1712 0.621875 27.2907L27.2912 0.621399C27.1717 0.630608 27.0522 0.640554 26.9328 0.651243L0.651717 26.9323Z" fill="white" fill-opacity="0.4"/>
<path d="M0.556616 30.6421C0.552588 30.5361 0.549141 30.43 0.546271 30.3239L30.3243 0.545798C30.4304 0.54867 30.5365 0.552113 30.6426 0.556142L0.556616 30.6421Z" fill="white" fill-opacity="0.4"/>
<path d="M0.788324 33.368C0.801085 33.4643 0.81433 33.5606 0.828058 33.6568L12.8939 21.591C13.0088 21.3597 13.1287 21.1303 13.2534 20.9028L0.788324 33.368Z" fill="white" fill-opacity="0.4"/>
<path d="M20.9033 13.253C21.1308 13.1282 21.3602 13.0083 21.5915 12.8934L33.6573 0.827582C33.5611 0.813855 33.4648 0.800615 33.3684 0.787849L20.9033 13.253Z" fill="white" fill-opacity="0.4"/>
<path d="M11.3097 26.1328L1.29473 36.1477C1.31535 36.2363 1.33639 36.3248 1.35786 36.4132L11.2263 26.5447C11.2526 26.4072 11.2804 26.2698 11.3097 26.1328Z" fill="white" fill-opacity="0.4"/>
<path d="M26.5452 11.2258C26.4076 11.2521 26.2703 11.2799 26.1332 11.3092L36.1482 1.29425C36.2367 1.31487 36.3252 1.33592 36.4136 1.35738L26.5452 11.2258Z" fill="white" fill-opacity="0.4"/>
<path d="M10.8844 29.8441L2.01716 38.7114C2.04439 38.7934 2.07201 38.8753 2.1 38.9572L10.8813 30.1758C10.8814 30.0653 10.8825 29.9547 10.8844 29.8441Z" fill="white" fill-opacity="0.4"/>
<path d="M30.1763 10.8809C30.0657 10.8809 29.9552 10.882 29.8446 10.884L38.7119 2.01668C38.7939 2.04392 38.8758 2.07154 38.9576 2.09953L30.1763 10.8809Z" fill="white" fill-opacity="0.4"/>
<path d="M11.076 32.9387L2.92501 41.0897C2.95805 41.166 2.99142 41.2421 3.02515 41.3182L11.1189 33.2245C11.1038 33.1293 11.0896 33.0341 11.076 32.9387Z" fill="white" fill-opacity="0.4"/>
<path d="M33.2249 11.1184C33.1298 11.1034 33.0345 11.0891 32.9392 11.0755L41.0902 2.92454C41.1664 2.95757 41.2426 2.99095 41.3186 3.02467L33.2249 11.1184Z" fill="white" fill-opacity="0.4"/>
<path d="M11.6598 35.641L3.99788 43.303C4.03616 43.374 4.07475 43.445 4.11366 43.5158L11.7355 35.8939C11.7097 35.8098 11.6845 35.7255 11.6598 35.641Z" fill="white" fill-opacity="0.4"/>
<path d="M35.8944 11.7351C35.8102 11.7092 35.7259 11.684 35.6415 11.6593L43.3034 3.9974C43.3745 4.03568 43.4454 4.07428 43.5163 4.11319L35.8944 11.7351Z" fill="white" fill-opacity="0.4"/>
<path d="M12.5396 38.0474L5.22174 45.3652C5.26488 45.4315 5.3083 45.4976 5.35203 45.5636L12.6417 38.2739C12.6071 38.1986 12.5731 38.1231 12.5396 38.0474Z" fill="white" fill-opacity="0.4"/>
<path d="M38.2744 12.6412C38.1991 12.6067 38.1235 12.5726 38.0479 12.5391L45.3657 5.22127C45.432 5.2644 45.4981 5.30783 45.564 5.35156L38.2744 12.6412Z" fill="white" fill-opacity="0.4"/>
<path d="M13.6651 40.208L6.58689 47.2862C6.63461 47.3479 6.68261 47.4094 6.7309 47.4708L13.79 40.4118C13.7479 40.344 13.7063 40.2761 13.6651 40.208Z" fill="white" fill-opacity="0.4"/>
<path d="M40.4122 13.7895C40.3445 13.7474 40.2766 13.7058 40.2085 13.6646L47.2867 6.58641C47.3484 6.63413 47.4099 6.68214 47.4713 6.73042L40.4122 13.7895Z" fill="white" fill-opacity="0.4"/>
<path d="M15.008 42.1512L8.08668 49.0726C8.13881 49.1299 8.19121 49.187 8.24388 49.244L15.1536 42.3343C15.1047 42.2735 15.0561 42.2124 15.008 42.1512Z" fill="white" fill-opacity="0.4"/>
<path d="M42.3347 15.1531C42.2739 15.1042 42.2129 15.0557 42.1517 15.0076L49.073 8.0862C49.1303 8.13834 49.1875 8.19073 49.2445 8.24341L42.3347 15.1531Z" fill="white" fill-opacity="0.4"/>
<path d="M16.5522 43.8932L9.71684 50.7286C9.77338 50.7817 9.83009 50.8345 9.88695 50.8871L16.7173 44.0567C16.6666 44.0071 16.6161 43.9571 16.5658 43.9068C16.5613 43.9023 16.5568 43.8977 16.5522 43.8932Z" fill="white" fill-opacity="0.4"/>
<path d="M44.0572 16.7168C44.0075 16.6662 43.9576 16.6157 43.9073 16.5654C43.9028 16.5608 43.8982 16.5563 43.8937 16.5517L50.729 9.71636C50.7452 9.7336 50.7614 9.75084 50.7775 9.7681C50.8143 9.80748 50.851 9.84694 50.8875 9.88648L44.0572 16.7168Z" fill="white" fill-opacity="0.4"/>
<path d="M18.2909 45.4406L11.4768 52.2547C11.5378 52.3034 11.5989 52.3519 11.6601 52.4L18.4757 45.5845C18.4139 45.5369 18.3523 45.489 18.2909 45.4406Z" fill="white" fill-opacity="0.4"/>
<path d="M45.5849 18.4752C45.5374 18.4134 45.4895 18.3518 45.4411 18.2905L52.2552 11.4764C52.3039 11.5373 52.3523 11.5984 52.4005 11.6596L45.5849 18.4752Z" fill="white" fill-opacity="0.4"/>
<path d="M20.2307 46.787L13.3705 53.6472C13.436 53.6914 13.5016 53.7353 13.5674 53.7789L20.4363 46.91C20.3675 46.8695 20.299 46.8285 20.2307 46.787Z" fill="white" fill-opacity="0.4"/>
<path d="M46.9105 20.4358C46.8699 20.3671 46.8289 20.2985 46.7874 20.2302L53.6477 13.37C53.6919 13.4355 53.7358 13.5011 53.7794 13.5669L46.9105 20.4358Z" fill="white" fill-opacity="0.4"/>
<path d="M22.3875 47.9163L15.4038 54.9C15.4741 54.9394 15.5446 54.9785 15.6151 55.0173L22.6161 48.0164C22.5397 47.9835 22.4635 47.9502 22.3875 47.9163Z" fill="white" fill-opacity="0.4"/>
<path d="M48.0168 22.6156C47.984 22.5392 47.9506 22.463 47.9168 22.387L54.9005 15.4033C54.9399 15.4737 54.979 15.5441 55.0178 15.6147L48.0168 22.6156Z" fill="white" fill-opacity="0.4"/>
<path d="M24.7895 48.8005L17.5859 56.004C17.6614 56.0383 17.737 56.0722 17.8128 56.1058L25.0448 48.8738C24.9595 48.85 24.8744 48.8255 24.7895 48.8005Z" fill="white" fill-opacity="0.4"/>
<path d="M48.8743 25.0443C48.8504 24.9591 48.826 24.874 48.801 24.789L56.0045 17.5854C56.0388 17.661 56.0727 17.7366 56.1063 17.8123L48.8743 25.0443Z" fill="white" fill-opacity="0.4"/>
<path d="M27.4862 49.3899L19.9298 56.9463C20.011 56.9749 20.0923 57.0031 20.1738 57.0309L27.7752 49.4295C27.6788 49.417 27.5825 49.4038 27.4862 49.3899Z" fill="white" fill-opacity="0.4"/>
<path d="M49.43 27.7747C49.4175 27.6783 49.4043 27.582 49.3903 27.4858L56.9467 19.9293C56.9753 20.0106 57.0036 20.0919 57.0314 20.1733L49.43 27.7747Z" fill="white" fill-opacity="0.4"/>
<path d="M30.5731 49.5892L22.4544 57.7078C22.5421 57.73 22.6299 57.7517 22.7178 57.7731L30.9096 49.5812C30.7975 49.5848 30.6853 49.5875 30.5731 49.5892Z" fill="white" fill-opacity="0.4"/>
<path d="M49.5817 30.9092C49.5853 30.797 49.588 30.6848 49.5896 30.5726L57.7083 22.4539C57.7305 22.5416 57.7522 22.6294 57.7736 22.7173L49.5817 30.9092Z" fill="white" fill-opacity="0.4"/>
<path d="M34.2707 49.1777L25.1878 58.2606C25.2832 58.2752 25.3786 58.2893 25.4741 58.3029L34.6928 49.0842C34.5524 49.1169 34.4117 49.1481 34.2707 49.1777Z" fill="white" fill-opacity="0.4"/>
<path d="M49.0846 34.6923C49.1174 34.5519 49.1486 34.4112 49.1782 34.2702L58.2611 25.1873C58.2756 25.2827 58.2897 25.3781 58.3034 25.4736L49.0846 34.6923Z" fill="white" fill-opacity="0.4"/>
<path d="M39.4502 47.2843L28.1738 58.5607C28.2788 58.5658 28.3838 58.5703 28.4888 58.5743L40.2132 46.8499C39.9615 47.001 39.7071 47.1458 39.4502 47.2843Z" fill="white" fill-opacity="0.4"/>
<path d="M46.8504 40.2127C47.0014 39.961 47.1463 39.7066 47.2848 39.4497L58.5611 28.1734C58.5663 28.2783 58.5708 28.3833 58.5748 28.4883L46.8504 40.2127Z" fill="white" fill-opacity="0.4"/>
<path d="M31.8402 58.5091C31.7223 58.5181 31.6044 58.5265 31.4865 58.5342L58.5346 31.486C58.527 31.604 58.5186 31.7219 58.5095 31.8397L31.8402 58.5091Z" fill="white" fill-opacity="0.4"/>
<path d="M35.2677 58.0391C35.4058 58.0117 35.5438 57.9833 35.6815 57.9539L57.9544 35.681C57.9838 35.5433 58.0122 35.4053 58.0395 35.2672L35.2677 58.0391Z" fill="white" fill-opacity="0.4"/>
<path d="M40.4068 56.5147C40.228 56.5864 40.0487 56.6562 39.8687 56.7242L56.7247 39.8683C56.6567 40.0482 56.5869 40.2275 56.5152 40.4063L40.4068 56.5147Z" fill="white" fill-opacity="0.4"/>
<path d="M50.1041 50.1036C50.9874 49.2203 51.8018 48.2941 52.5473 47.3318L47.3323 52.5468C48.2946 51.8013 49.2208 50.9869 50.1041 50.1036Z" fill="white" fill-opacity="0.4"/>
</svg>
