<svg width="44" height="44" viewBox="0 0 44 44" fill="none" xmlns="http://www.w3.org/2000/svg">
<path fill-rule="evenodd" clip-rule="evenodd" d="M25.3971 16.5077L20.9524 0L16.5077 16.5077L0 20.9524L16.5077 25.3971L20.9524 41.9048L21.7179 39.0615L21.9365 39.8731L22.6108 39.6915L22.0796 37.7183L25.3971 25.3971L37.7183 22.0796L39.6915 22.6108L39.8731 21.9365L39.0615 21.7179L41.9048 20.9524L25.3971 16.5077ZM39.0615 21.7179L37.1218 21.1957L36.9402 21.8701L37.7183 22.0796L39.0615 21.7179ZM22.0796 37.7183L21.8701 36.9402L21.1957 37.1218L21.7179 39.0615L22.0796 37.7183ZM23.418 3.47088L23.3991 3.47596L23.3516 3.65246L23.0476 3.57061L22.7436 3.65246L22.6961 3.47596L22.6772 3.47088L23.0476 2.09524L23.418 3.47088ZM24.1588 6.22217L24.8996 8.97345L24.2252 9.15503L23.4844 6.40375L24.1588 6.22217ZM25.6403 11.7247L26.3811 14.476L25.7067 14.6576L24.9659 11.9063L25.6403 11.7247ZM27.1219 17.2273L27.4923 18.6029L28.8679 18.9733L28.6864 19.6477L26.9224 19.1728L26.4475 17.4089L27.1219 17.2273ZM31.6192 19.7141L34.3705 20.4549L34.1889 21.1293L31.4376 20.3885L31.6192 19.7141ZM42.6193 22.6961L42.6244 22.6772L44 23.0476L42.6244 23.418L42.6193 23.3991L42.4428 23.3516L42.5246 23.0476L42.4428 22.7436L42.6193 22.6961ZM39.8731 24.1588L37.1218 24.8996L36.9402 24.2252L39.6915 23.4844L39.8731 24.1588ZM34.3705 25.6403L31.6192 26.3811L31.4376 25.7067L34.1889 24.9659L34.3705 25.6403ZM28.8679 27.1219L27.4923 27.4923L27.1219 28.8679L26.4475 28.6864L26.9224 26.9224L28.6864 26.4475L28.8679 27.1219ZM26.3811 31.6192L25.6403 34.3705L24.966 34.1889L25.7067 31.4376L26.3811 31.6192ZM24.8996 37.1218L24.1588 39.8731L23.4844 39.6915L24.2252 36.9402L24.8996 37.1218ZM23.3991 42.6193L23.418 42.6244L23.0476 44L22.6772 42.6244L22.6961 42.6193L22.7436 42.4428L23.0476 42.5246L23.3516 42.4428L23.3991 42.6193ZM20.4549 34.3705L19.7141 31.6192L20.3885 31.4376L21.1293 34.1889L20.4549 34.3705ZM18.9733 28.8679L18.6029 27.4923L17.2273 27.1219L17.4089 26.4475L19.1728 26.9224L19.6477 28.6864L18.9733 28.8679ZM14.476 26.3811L11.7247 25.6403L11.9063 24.966L14.6576 25.7067L14.476 26.3811ZM8.97345 24.8996L6.22217 24.1588L6.40375 23.4844L9.15503 24.2252L8.97345 24.8996ZM3.47596 23.3991L3.47088 23.418L2.09524 23.0476L3.47088 22.6772L3.47596 22.6961L3.65246 22.7436L3.57061 23.0476L3.65246 23.3516L3.47596 23.3991ZM6.22217 21.9365L8.97345 21.1957L9.15503 21.8701L6.40375 22.6108L6.22217 21.9365ZM11.7247 20.4549L14.476 19.7141L14.6576 20.3885L11.9063 21.1293L11.7247 20.4549ZM17.2273 18.9733L18.6029 18.6029L18.9733 17.2273L19.6477 17.4089L19.1728 19.1728L17.4089 19.6477L17.2273 18.9733ZM19.7141 14.476L20.4549 11.7247L21.1293 11.9063L20.3885 14.6576L19.7141 14.476ZM21.1957 8.97345L21.9365 6.22217L22.6108 6.40375L21.8701 9.15503L21.1957 8.97345Z" fill="white" fill-opacity="0.6"/>
</svg>
