<svg width="143" height="161" viewBox="0 0 143 161" fill="none" xmlns="http://www.w3.org/2000/svg">
<path fill-rule="evenodd" clip-rule="evenodd" d="M75.8021 91.5458L61.9555 83.5514L17.5423 160.477L16.0037 159.589L60.417 82.6632L54.2629 79.1101L9.84966 156.036L8.31114 155.148L52.7244 78.2218L46.5703 74.6688L2.15706 151.595L0.618546 150.706L45.0318 73.7805L38.8777 70.2275L-5.53553 147.153L-7.07405 146.265L37.3392 69.3392L-39.5868 24.926L-38.6985 23.3875L38.2274 67.8007L41.7805 61.6466L-35.1455 17.2334L-34.2572 15.6949L42.6688 60.1081L46.2218 53.954L-30.7041 9.54079L-29.8159 8.00227L47.1101 52.4155L50.6631 46.2614L-26.2628 1.8482L-25.3746 0.309679L51.5514 44.7229L59.5458 30.8762C71.8102 9.63371 98.9729 2.35549 120.215 14.6199C141.458 26.8842 148.736 54.0469 136.472 75.2895C124.207 96.532 97.0447 103.81 75.8021 91.5458ZM49.4731 66.0879L43.319 62.5349L39.766 68.6889L45.92 72.242L49.4731 66.0879ZM51.0116 66.9762L57.1657 70.5292L53.6126 76.6833L47.4585 73.1303L51.0116 66.9762ZM58.7042 71.4175L64.8583 74.9706L61.3052 81.1246L55.1511 77.5716L58.7042 71.4175ZM66.3968 75.8588L62.8437 82.0129L76.6904 90.0073C97.0832 101.781 123.159 94.794 134.933 74.4012C146.707 54.0084 139.72 27.9322 119.327 16.1584C98.9343 4.38459 72.8581 11.3717 61.0843 31.7645L53.0899 45.6112L59.244 49.1642L67.2384 35.3176C77.0499 18.3235 98.78 12.501 115.774 22.3125C132.768 32.124 138.591 53.8541 128.779 70.8481C118.968 87.8421 97.2375 93.6647 80.2435 83.8532L66.3968 75.8588ZM58.3557 50.7027L52.2017 47.1497L48.6486 53.3038L54.8027 56.8568L58.3557 50.7027ZM60.7825 50.0525L68.7769 36.2058C78.0978 20.0615 98.7415 14.5301 114.886 23.851C131.03 33.1719 136.562 53.8155 127.241 69.9599C117.92 86.1042 97.276 91.6356 81.1317 82.3147L67.2851 74.3203L70.8381 68.1662L84.6848 76.1606C97.4303 83.5192 113.728 79.1523 121.087 66.4068C128.445 53.6613 124.078 37.3637 111.333 30.005C98.5872 22.6464 82.2896 27.0134 74.931 39.7589L66.9366 53.6055L60.7825 50.0525ZM63.1455 63.7249L69.2996 67.278L65.7465 73.4321L59.5925 69.879L63.1455 63.7249ZM58.0539 68.9907L61.607 62.8367L55.4529 59.2836L51.8999 65.4377L58.0539 68.9907ZM62.4953 61.2981L66.0483 55.1441L59.8942 51.591L56.3412 57.7451L62.4953 61.2981ZM76.4695 40.6471L68.4751 54.4938L74.6292 58.0469L82.6236 44.2002C87.5293 35.7032 98.3944 32.7919 106.891 37.6976C115.388 42.6034 118.3 53.4685 113.394 61.9655C108.488 70.4625 97.6231 73.3738 89.1261 68.468L75.2794 60.4736L71.7264 66.6277L85.573 74.6221C97.4689 81.4901 112.68 77.4143 119.548 65.5185C126.416 53.6227 122.34 38.4116 110.444 31.5436C98.5486 24.6755 83.3375 28.7513 76.4695 40.6471ZM84.1621 45.0885C88.5773 37.4411 98.3558 34.821 106.003 39.2362C113.65 43.6513 116.271 53.4299 111.855 61.0772C107.44 68.7245 97.6617 71.3447 90.0144 66.9295L76.1677 58.9351L84.1621 45.0885ZM73.7409 59.5854L70.1879 65.7395L64.0338 62.1864L67.5868 56.0323L73.7409 59.5854ZM53.9144 58.3953L47.7603 54.8423L44.2073 60.9963L50.3614 64.5494L53.9144 58.3953Z" fill="url(#paint0_linear_161_8552)" fill-opacity="0.1"/>
<defs>
<linearGradient id="paint0_linear_161_8552" x1="139.946" y1="37.2939" x2="-85.7765" y2="104.929" gradientUnits="userSpaceOnUse">
<stop stop-color="white"/>
<stop offset="1" stop-color="white" stop-opacity="0"/>
</linearGradient>
</defs>
</svg>
