<svg width="62" height="62" viewBox="0 0 62 62" fill="none" xmlns="http://www.w3.org/2000/svg">
<path d="M37.0933 24.5539L37.1681 24.8319L37.4461 24.9067L39.4814 25.4547C39.7481 25.5265 40.0224 25.3686 40.0942 25.1019L43.1993 25.9379C43.1275 26.2046 43.2854 26.4789 43.5521 26.5507L47.6227 27.6468C47.8894 27.7185 48.1637 27.5606 48.2355 27.2939L51.3406 28.13C51.2688 28.3966 51.4267 28.671 51.6934 28.7428L55.764 29.8388C56.0307 29.9106 56.305 29.7526 56.3768 29.486L59.4819 30.322C59.4101 30.5886 59.568 30.863 59.8347 30.9348L60.0768 31L59.8347 31.0652C59.568 31.137 59.4101 31.4114 59.4819 31.678L56.3768 32.514C56.305 32.2474 56.0307 32.0894 55.764 32.1612L51.6934 33.2572C51.4267 33.329 51.2688 33.6034 51.3406 33.87L48.2355 34.7061C48.1637 34.4394 47.8894 34.2815 47.6227 34.3532L43.5521 35.4493C43.2854 35.5211 43.1275 35.7954 43.1993 36.0621L40.0942 36.8981C40.0224 36.6314 39.7481 36.4735 39.4814 36.5453L37.4461 37.0933L37.1681 37.1681L37.0933 37.4461L36.5453 39.4814C36.4735 39.7481 36.6314 40.0224 36.8981 40.0942L36.0621 43.1993C35.7954 43.1275 35.5211 43.2854 35.4493 43.5521L34.3532 47.6227C34.2815 47.8894 34.4394 48.1637 34.7061 48.2355L33.87 51.3406C33.6034 51.2688 33.329 51.4267 33.2572 51.6934L32.1612 55.764C32.0894 56.0307 32.2474 56.305 32.514 56.3768L31.678 59.4819C31.4114 59.4101 31.137 59.568 31.0652 59.8347L31 60.0768L30.9348 59.8347C30.863 59.568 30.5886 59.4101 30.322 59.4819L29.486 56.3768C29.7526 56.305 29.9106 56.0307 29.8388 55.764L28.7428 51.6934C28.671 51.4267 28.3966 51.2688 28.13 51.3406L27.2939 48.2355C27.5606 48.1637 27.7185 47.8894 27.6468 47.6227L26.5507 43.5521C26.4789 43.2854 26.2046 43.1275 25.9379 43.1993L25.1019 40.0942C25.3686 40.0224 25.5265 39.7481 25.4547 39.4814L24.9067 37.4461L24.8319 37.1681L24.5539 37.0933L22.5186 36.5453C22.2519 36.4735 21.9776 36.6314 21.9058 36.8981L18.8007 36.0621C18.8725 35.7954 18.7146 35.5211 18.4479 35.4493L14.3773 34.3532C14.1106 34.2815 13.8363 34.4394 13.7645 34.7061L10.6594 33.87C10.7312 33.6034 10.5733 33.329 10.3066 33.2572L6.23597 32.1612C5.96932 32.0894 5.69496 32.2474 5.62317 32.514L2.51813 31.678C2.58993 31.4114 2.43197 31.137 2.16532 31.0652L1.92315 31L2.16532 30.9348C2.43197 30.863 2.58992 30.5886 2.51813 30.322L5.62317 29.486C5.69496 29.7526 5.96933 29.9106 6.23597 29.8388L10.3066 28.7428C10.5733 28.671 10.7312 28.3966 10.6594 28.13L13.7645 27.2939C13.8363 27.5606 14.1106 27.7185 14.3773 27.6468L18.4479 26.5507C18.7146 26.4789 18.8725 26.2046 18.8007 25.9379L21.9058 25.1019C21.9776 25.3686 22.2519 25.5265 22.5186 25.4547L24.5539 24.9067L24.8319 24.8319L24.9067 24.5539L25.4547 22.5186C25.5265 22.2519 25.3686 21.9776 25.1019 21.9058L25.9379 18.8007C26.2046 18.8725 26.4789 18.7146 26.5507 18.4479L27.6468 14.3773C27.7185 14.1106 27.5606 13.8363 27.2939 13.7645L28.13 10.6594C28.3966 10.7312 28.671 10.5733 28.7428 10.3066L29.8388 6.23597C29.9106 5.96932 29.7526 5.69496 29.486 5.62317L30.322 2.51813C30.5886 2.58993 30.863 2.43197 30.9348 2.16532L31 1.92316L31.0652 2.16532C31.137 2.43197 31.4114 2.58992 31.678 2.51813L32.514 5.62317C32.2474 5.69496 32.0894 5.96933 32.1612 6.23597L33.2572 10.3066C33.329 10.5733 33.6034 10.7312 33.87 10.6594L34.7061 13.7645C34.4394 13.8363 34.2815 14.1106 34.3532 14.3773L35.4493 18.4479C35.5211 18.7146 35.7954 18.8725 36.0621 18.8007L36.8981 21.9058C36.6314 21.9776 36.4735 22.2519 36.5453 22.5186L37.0933 24.5539Z" stroke="white" stroke-opacity="0.5" stroke-linecap="round" stroke-dasharray="4 4"/>
</svg>
