<svg width="30" height="30" viewBox="0 0 30 30" fill="none" xmlns="http://www.w3.org/2000/svg">
<g clip-path="url(#clip0_215_4959)">
<path d="M15 0.9375C7.23375 0.9375 0.9375 7.23375 0.9375 15C0.9375 22.7663 7.23375 29.0625 15 29.0625C22.7663 29.0625 29.0625 22.7663 29.0625 15C29.0625 7.23375 22.7663 0.9375 15 0.9375Z" fill="#FFE6A4"/>
<path fill-rule="evenodd" clip-rule="evenodd" d="M11.4275 6.1225C10.3688 8.34625 9.6875 11.4838 9.6875 15C9.6875 18.5163 10.3688 21.6537 11.4275 23.8775C12.5188 26.1712 13.845 27.1875 15 27.1875C16.155 27.1875 17.4813 26.1712 18.5725 23.8775C19.6313 21.6537 20.3125 18.5163 20.3125 15C20.3125 11.4838 19.6313 8.34625 18.5725 6.1225C17.4813 3.82875 16.155 2.8125 15 2.8125C13.845 2.8125 12.5188 3.82875 11.4275 6.1225ZM9.73375 5.31625C10.9038 2.85875 12.7038 0.9375 15 0.9375C17.2963 0.9375 19.0963 2.85875 20.2663 5.31625C21.4688 7.8425 22.1875 11.2675 22.1875 15C22.1875 18.7325 21.4688 22.1575 20.2663 24.6838C19.0963 27.1412 17.2963 29.0625 15 29.0625C12.7038 29.0625 10.9038 27.1412 9.73375 24.6838C8.53125 22.1575 7.8125 18.7325 7.8125 15C7.8125 11.2675 8.53125 7.8425 9.73375 5.31625Z" fill="#E0BE38"/>
<path fill-rule="evenodd" clip-rule="evenodd" d="M1.5625 11.25C1.5625 11.0014 1.66127 10.7629 1.83709 10.5871C2.0129 10.4113 2.25136 10.3125 2.5 10.3125H27.5C27.7486 10.3125 27.9871 10.4113 28.1629 10.5871C28.3387 10.7629 28.4375 11.0014 28.4375 11.25C28.4375 11.4986 28.3387 11.7371 28.1629 11.9129C27.9871 12.0887 27.7486 12.1875 27.5 12.1875H2.5C2.25136 12.1875 2.0129 12.0887 1.83709 11.9129C1.66127 11.7371 1.5625 11.4986 1.5625 11.25ZM1.5625 18.75C1.5625 18.5014 1.66127 18.2629 1.83709 18.0871C2.0129 17.9113 2.25136 17.8125 2.5 17.8125H27.5C27.7486 17.8125 27.9871 17.9113 28.1629 18.0871C28.3387 18.2629 28.4375 18.5014 28.4375 18.75C28.4375 18.9986 28.3387 19.2371 28.1629 19.4129C27.9871 19.5887 27.7486 19.6875 27.5 19.6875H2.5C2.25136 19.6875 2.0129 19.5887 1.83709 19.4129C1.66127 19.2371 1.5625 18.9986 1.5625 18.75Z" fill="#E0BE38"/>
<path fill-rule="evenodd" clip-rule="evenodd" d="M15 2.8125C8.26875 2.8125 2.8125 8.26875 2.8125 15C2.8125 21.7313 8.26875 27.1875 15 27.1875C21.7313 27.1875 27.1875 21.7313 27.1875 15C27.1875 8.26875 21.7313 2.8125 15 2.8125ZM0.9375 15C0.9375 7.23375 7.23375 0.9375 15 0.9375C22.7663 0.9375 29.0625 7.23375 29.0625 15C29.0625 22.7663 22.7663 29.0625 15 29.0625C7.23375 29.0625 0.9375 22.7663 0.9375 15Z" fill="#E0BE38"/>
</g>
<defs>
<clipPath id="clip0_215_4959">
<rect width="30" height="30" fill="white"/>
</clipPath>
</defs>
</svg>
