<svg width="30" height="30" viewBox="0 0 30 30" fill="none" xmlns="http://www.w3.org/2000/svg">
<g clip-path="url(#clip0_215_4929)">
<path d="M0 10.625V16.875C0 19.7475 5.345 21.25 10.625 21.25C15.905 21.25 21.25 19.7475 21.25 16.875V10.625H0Z" fill="#05CDEE"/>
<path d="M0 4.375V10.625C0 13.4975 5.345 15 10.625 15C15.905 15 21.25 13.4975 21.25 10.625V4.375H0Z" fill="#05CDEE"/>
<path fill-rule="evenodd" clip-rule="evenodd" d="M21.25 12.1875V15.75C19.3875 17.2875 16.025 18.4375 10.625 18.4375C5.225 18.4375 1.8625 17.2875 0 15.75V12.1875C0 15.0625 5.35 16.5625 10.625 16.5625C15.9 16.5625 21.25 15.0625 21.25 12.1875Z" fill="#02BAD8"/>
<path fill-rule="evenodd" clip-rule="evenodd" d="M21.25 7.1875V10.75C19.3875 12.2875 16.025 13.4375 10.625 13.4375C5.225 13.4375 1.8625 12.2875 0 10.75V7.1875C0 10.0625 5.35 11.5625 10.625 11.5625C15.9 11.5625 21.25 10.0625 21.25 7.1875Z" fill="#02BAD8"/>
<path d="M10.625 8.75C16.493 8.75 21.25 6.79125 21.25 4.375C21.25 1.95875 16.493 0 10.625 0C4.75698 0 0 1.95875 0 4.375C0 6.79125 4.75698 8.75 10.625 8.75Z" fill="#02BAD8"/>
<path d="M20 30C25.5228 30 30 25.5228 30 20C30 14.4772 25.5228 10 20 10C14.4772 10 10 14.4772 10 20C10 25.5228 14.4772 30 20 30Z" fill="#02BAD8"/>
<path d="M20.4752 19.0625H19.5252C19.4226 19.062 19.321 19.0412 19.2264 19.0013C19.1317 18.9614 19.0459 18.9032 18.9739 18.83C18.9019 18.7568 18.845 18.6701 18.8066 18.5748C18.7683 18.4796 18.7491 18.3777 18.7502 18.275C18.7502 18.0695 18.8319 17.8723 18.9772 17.727C19.1226 17.5817 19.3197 17.5 19.5252 17.5H22.1877C22.4364 17.5 22.6748 17.4012 22.8507 17.2254C23.0265 17.0496 23.1252 16.8111 23.1252 16.5625C23.1252 16.3139 23.0265 16.0754 22.8507 15.8996C22.6748 15.7238 22.4364 15.625 22.1877 15.625H20.9377V14.6875C20.9377 14.4389 20.839 14.2004 20.6632 14.0246C20.4873 13.8488 20.2489 13.75 20.0002 13.75C19.7516 13.75 19.5132 13.8488 19.3373 14.0246C19.1615 14.2004 19.0627 14.4389 19.0627 14.6875V15.6712C18.4088 15.7861 17.8218 16.142 17.4175 16.6687C17.0133 17.1954 16.8212 17.8545 16.8793 18.5159C16.9374 19.1772 17.2414 19.7928 17.7313 20.2409C18.2212 20.689 18.8613 20.9372 19.5252 20.9363H20.4752C20.9027 20.9363 21.2502 21.2837 21.2502 21.7237C21.2502 21.8255 21.2302 21.9263 21.1913 22.0203C21.1523 22.1144 21.0952 22.1998 21.0233 22.2718C20.9513 22.3437 20.8659 22.4008 20.7718 22.4398C20.6778 22.4787 20.577 22.4988 20.4752 22.4988H17.8127C17.5641 22.4988 17.3257 22.5975 17.1498 22.7733C16.974 22.9492 16.8752 23.1876 16.8752 23.4363C16.8752 23.6849 16.974 23.9233 17.1498 24.0992C17.3257 24.275 17.5641 24.3738 17.8127 24.3738H19.0627V25.3113C19.0627 25.5599 19.1615 25.7983 19.3373 25.9742C19.5132 26.15 19.7516 26.2488 20.0002 26.2488C20.2489 26.2488 20.4873 26.15 20.6632 25.9742C20.839 25.7983 20.9377 25.5599 20.9377 25.3113V24.3275C21.5917 24.2126 22.1787 23.8567 22.583 23.3301C22.9872 22.8034 23.1793 22.1443 23.1212 21.4829C23.0631 20.8215 22.7591 20.206 22.2692 19.7578C21.7793 19.3097 21.1392 19.0616 20.4752 19.0625Z" fill="#FAFAFA"/>
</g>
<defs>
<clipPath id="clip0_215_4929">
<rect width="30" height="30" fill="white"/>
</clipPath>
</defs>
</svg>
