<svg width="30" height="30" viewBox="0 0 30 30" fill="none" xmlns="http://www.w3.org/2000/svg">
<g clip-path="url(#clip0_215_4907)">
<path d="M27.5 5.21246V9.17496L15 4.54996L2.5 9.17496V5.21246C2.5 4.82496 2.75 4.47496 3.1125 4.33746L14.675 0.0624575C14.7779 0.0191405 14.8884 -0.00317383 15 -0.00317383C15.1116 -0.00317383 15.2221 0.0191405 15.325 0.0624575L26.8875 4.33746C27.25 4.47496 27.5 4.82496 27.5 5.21246Z" fill="#6AF0A7"/>
<path d="M27.5 9.17505V14.1L15 9.37505L2.5 14.1V9.17505L15 4.55005L27.5 9.17505Z" fill="#10E26F"/>
<path d="M27.5 14.1V15.2125C27.5 26.6 15.3625 29.9375 15.2375 29.975C15.1625 29.9875 15.075 30 15 30C14.925 30 14.8375 29.9875 14.7625 29.975C14.6375 29.9375 2.5 26.6 2.5 15.2125V14.1L15 9.375L27.5 14.1Z" fill="#00BE56"/>
<path d="M20.2635 18.045C20.2087 17.8817 20.1099 17.7365 19.9781 17.6256C19.8462 17.5147 19.6863 17.4423 19.516 17.4163L16.9885 17.0288L15.8485 14.6013C15.541 13.9438 14.4597 13.9438 14.1522 14.6013L13.0122 17.0288L10.4847 17.4163C10.3143 17.4422 10.1544 17.5147 10.0225 17.6256C9.89061 17.7366 9.79185 17.8817 9.73708 18.0451C9.68231 18.2086 9.67364 18.3839 9.71204 18.5519C9.75043 18.7199 9.8344 18.8741 9.95471 18.9975L11.8122 20.9L11.371 23.5988C11.3425 23.7726 11.3636 23.9509 11.4318 24.1133C11.5 24.2757 11.6125 24.4155 11.7566 24.5169C11.9006 24.6183 12.0703 24.677 12.2461 24.6864C12.422 24.6958 12.597 24.6555 12.751 24.57L15.001 23.3263L17.251 24.57C17.4047 24.6561 17.5797 24.6968 17.7556 24.6873C17.9316 24.6777 18.1012 24.6185 18.2447 24.5163C18.3883 24.4146 18.5006 24.2748 18.5689 24.1127C18.6371 23.9505 18.6586 23.7725 18.631 23.5988L18.1897 20.9L20.0472 18.9975C20.1672 18.8739 20.2508 18.7196 20.289 18.5516C20.3271 18.3836 20.3183 18.2084 20.2635 18.045Z" fill="#FAFAFA"/>
</g>
<defs>
<clipPath id="clip0_215_4907">
<rect width="30" height="30" fill="white"/>
</clipPath>
</defs>
</svg>
