<svg width="30" height="30" viewBox="0 0 30 30" fill="none" xmlns="http://www.w3.org/2000/svg">
<g clip-path="url(#clip0_215_4971)">
<path d="M12.5 15.675C12.5 14.675 12.9375 13.75 13.65 13.125H0V18.125C0 21.1625 7.85 21.25 8.75 21.25C9.125 21.25 10.7625 21.2375 12.5125 20.9875C12.5 20.8875 12.5 20.7875 12.5 20.6875V15.675Z" fill="#563AEF"/>
<path d="M0 8.125V13.125C0 16.1625 7.85 16.25 8.75 16.25C9.125 16.25 10.75 16.2375 12.5 15.9875V15.675C12.5 14.675 12.9375 13.75 13.65 13.125C13.9875 12.8 14.3875 12.5625 14.8375 12.4125L17.5 11.5125V8.125H0Z" fill="#A797FC"/>
<path d="M8.75 11.25C7.85375 11.25 0 11.1625 0 8.125V3.125H17.5V8.125C17.5 11.1625 9.64625 11.25 8.75 11.25Z" fill="#563AEF"/>
<path d="M8.75 6.25C7.85375 6.25 0 6.1625 0 3.125C0 0.0874999 7.85375 0 8.75 0C9.64625 0 17.5 0.0874999 17.5 3.125C17.5 6.1625 9.64625 6.25 8.75 6.25Z" fill="#A797FC"/>
<path d="M29.3638 14.7824L22.8013 12.5499C22.6061 12.4824 22.3939 12.4824 22.1988 12.5499L15.6363 14.7824C15.4506 14.845 15.2893 14.9644 15.1751 15.1236C15.0609 15.2829 14.9997 15.474 15 15.6699V20.6924C15 26.8224 21.8425 29.8024 22.1338 29.9262C22.2499 29.9742 22.3744 29.9989 22.5001 29.9987C22.6258 29.9985 22.7503 29.9734 22.8663 29.9249C23.1575 29.8012 30 26.8224 30 20.6924V15.6699C30.0003 15.474 29.9391 15.2829 29.8249 15.1236C29.7107 14.9644 29.5494 14.845 29.3638 14.7824Z" fill="#563AEF"/>
<path d="M26.6078 19.5225L23.1703 23.8975C23.0664 24.0303 22.9366 24.1407 22.7888 24.2218C22.6411 24.303 22.4783 24.3534 22.3105 24.3699C22.1427 24.3864 21.9733 24.3686 21.8126 24.3177C21.6518 24.2668 21.503 24.1838 21.3753 24.0738L19.1878 22.1988C19.058 22.0936 18.9506 21.9635 18.8719 21.8161C18.7932 21.6687 18.7449 21.507 18.7297 21.3407C18.7146 21.1743 18.733 21.0066 18.7838 20.8474C18.8346 20.6882 18.9168 20.5409 19.0255 20.414C19.1342 20.2872 19.2673 20.1834 19.4168 20.1088C19.5663 20.0343 19.7292 19.9904 19.896 19.9799C20.0627 19.9694 20.2299 19.9924 20.3875 20.0476C20.5452 20.1028 20.6903 20.1891 20.814 20.3013L22.0115 21.3275L24.6428 17.9788C24.7441 17.8495 24.8698 17.7415 25.0129 17.6609C25.156 17.5803 25.3136 17.5288 25.4767 17.5093C25.6397 17.4898 25.805 17.5027 25.9631 17.5472C26.1212 17.5917 26.2689 17.667 26.3978 17.7688C26.9403 18.1938 27.0353 18.98 26.6078 19.5225Z" fill="white"/>
</g>
<defs>
<clipPath id="clip0_215_4971">
<rect width="30" height="30" fill="white"/>
</clipPath>
</defs>
</svg>
