<svg width="74" height="76" viewBox="0 0 74 76" fill="none" xmlns="http://www.w3.org/2000/svg">
<path fill-rule="evenodd" clip-rule="evenodd" d="M73.7493 0.761534L0.000277698 17.9102L61.2138 75.4332L73.7493 0.761534ZM69.6163 15.7464L59.0501 5.81724L56.8863 18.7065L69.6163 15.7464ZM72.4827 2.10948L70.3189 14.9987L59.7527 5.06953L72.4827 2.10948ZM54.4364 33.3L56.6002 20.4107L67.1664 30.3399L54.4364 33.3ZM44.6369 9.16869L55.2031 19.0979L42.4731 22.0579L44.6369 9.16869ZM58.0695 5.46092L55.9057 18.3501L45.3395 8.42098L58.0695 5.46092ZM51.9865 47.8934L54.1503 35.0042L64.7165 44.9334L51.9865 47.8934ZM42.187 23.7622L52.7532 33.6913L40.0232 36.6514L42.187 23.7622ZM30.2237 12.5201L28.0599 25.4094L40.7899 22.4493L30.2237 12.5201ZM41.4925 21.7016L43.6563 8.81237L30.9263 11.7724L41.4925 21.7016ZM51.7004 49.5977L49.5366 62.4869L62.2666 59.5269L51.7004 49.5977ZM50.3033 48.2848L39.7371 38.3557L37.5733 51.2449L50.3033 48.2848ZM25.6101 40.0028L27.7738 27.1136L38.34 37.0428L25.6101 40.0028ZM15.8106 15.8716L13.6468 28.7608L26.3767 25.8007L15.8106 15.8716ZM27.0794 25.053L29.2431 12.1638L16.5132 15.1239L27.0794 25.053ZM12.6662 28.4045L14.83 15.5153L2.10001 18.4753L12.6662 28.4045ZM24.6295 39.6465L26.7933 26.7573L14.0633 29.7174L24.6295 39.6465ZM38.7565 37.9993L36.5928 50.8886L26.0266 40.9594L38.7565 37.9993ZM48.5561 62.1306L50.7198 49.2414L37.9899 52.2014L48.5561 62.1306ZM62.6831 60.4834L60.5193 73.3726L49.9532 63.4435L62.6831 60.4834ZM41.2064 23.4059L39.0427 36.2951L28.4765 26.3659L41.2064 23.4059ZM51.0059 47.5371L53.1697 34.6479L40.4398 37.608L51.0059 47.5371ZM65.133 45.8899L62.9692 58.7792L52.403 48.85L65.133 45.8899ZM55.6196 20.0544L53.4558 32.9436L42.8896 23.0145L55.6196 20.0544ZM65.4191 44.1857L67.5829 31.2964L54.8529 34.2565L65.4191 44.1857ZM67.869 29.5922L70.0328 16.703L57.3028 19.663L67.869 29.5922Z" fill="url(#paint0_radial_160_6640)"/>
<defs>
<radialGradient id="paint0_radial_160_6640" cx="0" cy="0" r="1" gradientUnits="userSpaceOnUse" gradientTransform="translate(49.9092 26.2297) rotate(98.1239) scale(46.399 61.8654)">
<stop stop-color="#563AEF" stop-opacity="0.54"/>
<stop offset="1" stop-color="#563AEF" stop-opacity="0"/>
</radialGradient>
</defs>
</svg>
