<svg width="223" height="222" viewBox="0 0 223 222" fill="none" xmlns="http://www.w3.org/2000/svg">
<path d="M111.5 0L119.832 56.4351L144.458 4.95914L135.757 61.3388L174.486 19.3959L149.527 70.7105L198.919 42.0274L159.917 83.7176L215.584 70.8428L166.005 99.2043L223 103.281L167.25 115.794L220.509 136.462L163.542 132.014L208.333 167.435L155.21 146.422L187.552 193.449L142.993 157.737L160.014 212.193L127.979 164.955L128.165 222L111.5 167.435L94.8351 222L95.0215 164.955L62.9864 212.193L80.0071 157.737L35.4482 193.449L67.7908 146.422L14.6674 167.435L59.4584 132.014L2.49069 136.462L55.7501 115.794L0 103.281L56.9955 99.2043L7.41651 70.8428L63.0838 83.7176L24.0814 42.0274L73.4739 70.7105L48.5138 19.3959L87.2434 61.3388L78.5427 4.95914L103.168 56.4351L111.5 0Z" fill="white" fill-opacity="0.06"/>
</svg>
