<svg width="108" height="21" viewBox="0 0 108 21" fill="none" xmlns="http://www.w3.org/2000/svg">
<path fill-rule="evenodd" clip-rule="evenodd" d="M35.0615 4.16852H35.104C35.3164 4.16852 35.4439 4.34284 35.4439 4.56074V14.6713C35.4439 14.8456 35.3164 15.0199 35.104 15.0199C34.9341 15.0199 34.7641 14.8891 34.7641 14.6713V4.51716C34.7641 4.34284 34.8916 4.16852 35.0615 4.16852ZM25.7588 4.6916H32.173C32.3855 4.6916 32.5129 4.9095 32.5129 5.08381C32.5129 5.25813 32.3855 5.43245 32.173 5.43245H26.0986V9.65967H31.5784C31.7483 9.65967 31.9182 9.79043 31.9182 10.0083C31.9182 10.1827 31.7908 10.357 31.5784 10.357H26.141V14.715C26.0986 14.9329 25.9286 15.1072 25.7163 15.1072C25.5039 15.1072 25.334 14.9329 25.334 14.715V5.08381H25.3765C25.3765 4.86591 25.5464 4.6916 25.7588 4.6916ZM44.3647 7.82928C44.3647 7.61138 44.1947 7.48063 44.0248 7.48063C43.8124 7.48063 43.685 7.65496 43.685 7.82928V12.0566C43.685 13.4947 42.5381 14.6277 41.1363 14.5841C39.6495 14.5841 38.8 13.5818 38.8 12.0129V7.82928C38.8 7.61138 38.63 7.48063 38.4601 7.48063C38.2902 7.48063 38.1202 7.65496 38.1202 7.82928V12.1437C38.1202 13.9305 39.2247 15.2378 41.0513 15.2378C42.1558 15.2815 43.2177 14.6713 43.7275 13.669V14.7585C43.7275 14.9764 43.8974 15.1071 44.0673 15.1071C44.2797 15.1071 44.4072 14.9328 44.4072 14.7585H44.3647V7.82928ZM50.8214 7.87254C50.8214 8.04686 50.6515 8.17758 50.4816 8.17758H48.1452V13.015C48.1452 14.1045 48.74 14.4967 49.632 14.4967C49.9294 14.4967 50.2267 14.4531 50.4816 14.3659C50.6515 14.3659 50.7789 14.4967 50.7789 14.671C50.7789 14.8018 50.694 14.9325 50.5665 14.976C50.2267 15.1068 49.8444 15.1504 49.5046 15.1504C48.4001 15.1504 47.4656 14.4967 47.4656 13.1021V8.17758H46.6585C46.4885 8.17758 46.3187 8.00329 46.3187 7.82897C46.3187 7.65464 46.4885 7.52391 46.6585 7.52391H47.4656V5.43208C47.4656 5.25775 47.593 5.08344 47.7629 5.08344H47.8054C47.9753 5.08344 48.1452 5.25775 48.1452 5.43208V7.52391H50.4816C50.6515 7.52391 50.8214 7.69822 50.8214 7.87254ZM56.2587 8.17758C56.4286 8.17758 56.5984 8.04686 56.5984 7.87254C56.5984 7.69822 56.4286 7.52391 56.2587 7.52391H53.9223V5.43208C53.9223 5.25775 53.7524 5.08344 53.5825 5.08344H53.54C53.3701 5.08344 53.2426 5.25775 53.2426 5.43208V7.52391H52.4356C52.2656 7.52391 52.0957 7.65464 52.0957 7.82897C52.0957 8.00329 52.2656 8.17758 52.4356 8.17758H53.2426V13.1021C53.2426 14.4967 54.1771 15.1504 55.2816 15.1504C55.6214 15.1504 56.0038 15.1068 56.3436 14.976C56.471 14.9325 56.556 14.8018 56.556 14.671C56.556 14.4967 56.4286 14.3659 56.2587 14.3659C56.0038 14.4531 55.7064 14.4967 55.409 14.4967C54.517 14.4967 53.9223 14.1045 53.9223 13.015V8.17758H56.2587ZM57.8731 11.272C57.8731 9.04939 59.3599 7.30623 61.3564 7.30623C63.4378 7.30623 64.7547 9.04939 64.7547 11.272C64.7547 11.4463 64.5848 11.6206 64.4148 11.6206H58.6377C58.7652 13.4946 60.082 14.584 61.5263 14.584C62.4184 14.584 63.3104 14.1918 63.9052 13.5382C63.9476 13.4946 64.0326 13.4509 64.1175 13.4509C64.2874 13.4509 64.4573 13.6253 64.4573 13.7996C64.4573 13.8868 64.4148 13.9739 64.3299 14.0611C63.6078 14.8891 62.5458 15.3249 61.4839 15.2814C59.5298 15.2814 57.8731 13.7125 57.8731 11.3156V11.272ZM58.5951 10.9232C58.7225 9.26712 59.8694 8.00334 61.3137 8.00334C62.9704 8.00334 63.8624 9.39788 63.9474 10.9232H58.5951ZM67.5156 9.70323C67.9829 8.43944 69.1298 7.52425 70.4466 7.43709C70.6591 7.43709 70.829 7.61141 70.829 7.87289C70.829 8.04721 70.7015 8.26511 70.4891 8.26511H70.4466C68.8749 8.43944 67.5156 9.6161 67.5156 12.0566V14.8457C67.4731 15.0636 67.3457 15.1943 67.1333 15.1943C66.9634 15.1943 66.7935 15.02 66.7935 14.8457V7.87289C66.8359 7.65499 66.9634 7.52425 67.1758 7.52425C67.3457 7.52425 67.5156 7.69858 67.5156 7.87289V9.70323ZM82.0436 7.04492C81.5338 7.04492 81.1091 7.39355 80.9817 7.91651L79.7498 11.9694L78.5179 7.91651C78.3904 7.39355 77.9231 7.00134 77.371 7.00134H77.2435C76.6912 7.00134 76.224 7.34997 76.0966 7.91651L74.8647 11.9259L73.6753 7.87293C73.5478 7.39355 73.123 7.00134 72.6133 7.00134H72.5708C72.0186 7.00134 71.5938 7.48072 71.5938 8.04725C71.5938 8.22155 71.6363 8.39588 71.6787 8.57013V8.57021L73.5903 14.192C73.7178 14.7585 74.185 15.1508 74.7797 15.1943H74.8647C75.4169 15.1943 75.8842 14.8021 76.0541 14.2356L77.286 10.2262L78.5179 14.2356C78.6453 14.8021 79.155 15.1943 79.7073 15.1943H79.7923C80.3869 15.1943 80.8967 14.8021 81.0241 14.192L82.9358 8.52665C82.9785 8.39588 83.0205 8.22155 83.0205 8.09083V8.04725C83.0205 7.48072 82.5955 7.04492 82.0436 7.04492ZM85.0169 7.43681C85.824 7.17533 86.6312 7.00101 87.4802 7.04459C88.6695 7.04459 89.5194 7.39323 90.1564 7.95977C90.7515 8.657 91.049 9.57221 91.0063 10.4874V14.061C91.0063 14.6711 90.5386 15.1504 89.9443 15.1504C89.392 15.1504 88.9243 14.7582 88.8824 14.1917C88.2873 14.8453 87.4383 15.2376 86.5457 15.194C85.1443 15.194 83.9123 14.3224 83.9123 12.7535C83.9123 11.0103 85.1862 10.1823 87.0134 10.1823C87.6504 10.1823 88.2873 10.2695 88.8824 10.4874V10.3567C88.8824 9.39788 88.3301 8.91854 87.2254 8.91854C86.7158 8.91854 86.2062 8.9621 85.6966 9.13643C85.6112 9.17999 85.4838 9.17999 85.3991 9.17999C84.8895 9.22355 84.4646 8.83133 84.4646 8.30842C84.4646 7.91619 84.6766 7.56754 85.0169 7.43681ZM88.9252 12.2306C88.9252 13.1022 88.2027 13.6252 87.1835 13.5816C86.5038 13.5816 85.9942 13.233 85.9942 12.6229V12.5793C85.9942 11.9255 86.5884 11.4898 87.523 11.4898C87.9906 11.4898 88.5002 11.6205 88.9252 11.7949V12.2306ZM97.5479 7.78577C97.6753 7.3064 98.1003 7.00134 98.5671 7.00134C99.1622 7.00134 99.6299 7.48072 99.6299 8.04725V8.09083C99.6299 8.26511 99.5871 8.43944 99.5017 8.61377L97.2085 14.2356C96.9956 14.8021 96.486 15.1508 95.9337 15.1943H95.8063C95.212 15.1508 94.7444 14.7585 94.5742 14.192L92.1956 8.57021C92.1109 8.39588 92.0682 8.22155 92.0682 8.04725C92.1109 7.43713 92.5778 7.00134 93.1301 7.00134C93.6397 7.00134 94.0646 7.34997 94.192 7.82935L95.849 12.4052L97.5479 7.78577ZM104.303 6.9578C102.051 6.9578 100.48 8.83174 100.48 11.0979V11.4465C100.564 13.6255 102.391 15.3251 104.515 15.1944C105.492 15.1944 106.426 14.8893 107.191 14.2356C107.404 14.0613 107.488 13.8434 107.488 13.582V13.5383C107.488 13.059 107.106 12.6668 106.639 12.6668C106.469 12.6668 106.256 12.7103 106.129 12.8411C105.662 13.1897 105.11 13.4076 104.557 13.3641C103.623 13.4076 102.816 12.7539 102.688 11.7952H107.063C107.616 11.7515 108.041 11.2722 107.998 10.7056V10.5313C107.998 8.57029 106.342 6.91422 104.303 6.9578ZM104.303 8.78785C103.41 8.78785 102.816 9.44153 102.646 10.4874H105.917C105.789 9.48509 105.194 8.78785 104.303 8.78785Z" fill="#072654"/>
<path fill-rule="evenodd" clip-rule="evenodd" d="M15.437 0.163022C25.0505 -1.22649 18.8979 6.66102 15.907 8.86786C17.9579 10.38 20.0515 12.5051 20.9488 14.9163C22.6151 19.3301 18.5133 19.9839 15.437 18.8805C12.0616 17.7362 9.07066 15.2841 7.10526 12.4234C6.54981 12.4234 5.95163 12.3416 5.39619 12.1782C6.50708 15.2024 6.97708 18.3084 6.67799 20.8422C6.67799 15.7337 4.15711 10.6661 0.525325 6.45668C-0.756472 4.98544 0.568065 3.882 1.72168 5.31238C2.49827 6.34828 3.21157 7.42627 3.85803 8.54098C5.0971 4.37242 11.2497 0.73517 15.437 0.163022ZM14.0699 7.68259C15.9498 6.57915 21.6753 0.653307 16.3344 1.18459C13.2581 1.51153 9.54088 4.24969 8.00268 6.00701C10.139 5.76179 12.3181 6.6609 14.0699 7.68259ZM7.9599 7.31495C9.41258 7.19235 10.9935 7.92797 12.1899 8.66361C11.0362 9.1949 9.75442 9.52178 8.42989 9.60356C6.46447 9.60356 6.07993 7.47842 7.9599 7.31495ZM8.7714 12.2598C10.4805 14.0988 12.8305 15.897 15.3514 16.5509C16.804 16.9188 18.4277 16.7553 17.8295 14.7527C17.2313 12.9137 15.6931 11.279 14.1977 10.0529C13.7704 10.339 13.3004 10.625 12.8305 10.8295C11.5487 11.5241 10.1814 12.0146 8.7714 12.2598Z" fill="#F5A623"/>
</svg>
